<?xml version="1.0" encoding="UTF-8"?>
<svg id="_レイヤー_1" data-name="レイヤー 1" xmlns="http://www.w3.org/2000/svg" viewBox="0 0 11338.58 11338.58">
  <defs>
    <style>
      .cls-1 {
        fill: #d3d3d3;
      }

      .cls-1, .cls-2 {
        stroke-width: 0px;
      }

      .cls-2 {
        fill: #fff;
      }

      .cls-3 {
        fill: none;
        stroke: #d3d3d3;
        stroke-miterlimit: 10;
        stroke-width: 300px;
      }
    </style>
  </defs>
  <ellipse class="cls-1" cx="7215.07" cy="5835.32" rx="1864.29" ry="1378.57"/>
  <path class="cls-1" d="M3062.49,6281.9c1063.48,388.39,2184.47,668.41,3320.58,667.81,157.45-.34,315.76-6.71,472.68-19.68,461.97-39.1,925.08-134.33,1345.2-331.36,448.19-210.58,827.96-541.11,995.48-1017.43,16.37-44.86,31.13-92.82,43.81-138.89,31.89-118.3,58.25-237.26,84.31-358.32,5.18-26.14,11.05-52.34,16.24-78.5,7.46-35.28,14.38-70.84,21.94-106.14,3.73-19.76,8.32-41.79,12.65-61.51,0,0,.84-3.86.84-3.86,0,0,.75-3.87.75-3.87,4.28-22.83,9.7-47.36,14.49-70.08,0,0,3.16-15.7,3.16-15.7,1.06-5.24,2.07-10.48,3.25-15.74,0,0,6.86-31.6,6.86-31.6,0,0,.91-3.96.91-3.96,0,0,.83-3.97.83-3.97,4.74-23.26,10.36-48.76,15.84-71.93,5.42-26.2,12.46-54.97,18.78-81.14,0,0,8.05-32.86,8.05-32.86,0,0,4.02-16.5,4.02-16.5,0,0,4.51-16.61,4.51-16.61,1.48-5.54,3.07-11.1,4.46-16.66,0,0,2.08-8.33,2.08-8.33,0,0,2.32-8.38,2.32-8.38,0,0,4.66-16.79,4.66-16.79,0,0,2.34-8.42,2.34-8.42,0,0,2.58-8.46,2.58-8.46,0,0,2.57-8.48,2.57-8.48,0,0,1.29-4.24,1.29-4.24,0,0,.64-2.12.64-2.12,0,0,.72-2.13.72-2.13,0,0,5.73-17.11,5.73-17.11l.99-.13c.98,1.74,10.12,15.57,10.93,16.99,3.67,6,8.86,14.87,12.56,20.98,9.88,17.49,20.58,36.19,29.25,54.21,3.98,7.82,11.56,23.46,15.12,31.46,2.8,6.92,15.81,33.23,18,39.7,9.69,23.43,19.72,48.77,28.49,72.61,5.6,15.6,11.31,33.39,16.48,49.13,2.62,8.08,6.58,20.99,9.1,28.87,0,0,1.2,4.14,1.2,4.14,0,0,9.15,33.27,9.15,33.27,5.77,21.99,11.89,44.85,16.37,67.09,3,13.27,6.26,29.12,8.87,42.29,42.06,220.92,37.46,449.4-14.99,668.73-41.32,168.55-102.64,332.7-184.56,485.83-163.64,306.65-414.05,562.23-703.3,751.74-432.35,283.94-941.02,432.27-1449.73,496.8-1419.87,176.36-3008.17-270.84-4248.5-950.72h0Z"/>
  <path class="cls-1" d="M10730.32,3083.63c-370.17,8.91-782.82,70.21-1053.46,343.01-16.82,17.55-35.38,37.02-51.19,55.08-74.86,83.87-132.58,181.69-156.97,291.69-2.95,13.21-6.11,30.22-7.95,43.6-.48,3.2-1.88,11.15-2.2,14.63-.72,6.12-1.63,12.23-2.45,18.34-.49,4.81-.7,6.87-1.15,11.06-12.56,111.9-5.54,224.38,8.69,336.21,5.57,45.32,13.33,94.49,20.13,140.53,1.4,9.81,3.06,20.91,4.19,30.79,0,0-.8.6-.8.6-26.03-11.17-49.53-25.81-71.77-42.08-151.57-112.65-234.11-305.56-224.68-493.14.39-11.02,1.47-22.03,2.41-33,.23-3.43.73-7.65,1.18-10.97,3.52-28.64,9.04-58.74,16-86.78,28.5-117.09,85.32-226.02,161.21-318.7,32.52-39.99,68.96-77.24,106.71-111.89,27.73-25.48,57.05-50.7,87.42-72.92,87.99-65.51,187.75-115.75,291.48-149.48,234.91-76.22,491.79-73.92,729.83-14.06,24.41,6.24,48.68,13.14,72.67,20.83,23.96,7.71,47.67,16.05,70.88,25.68,0,0-.18.98-.18.98h0Z"/>
  <path class="cls-1" d="M10087.06,2911.8c-39.9-106.11-93.35-207.7-162.88-297.13-199.24-262.05-523.27-362.63-838.14-276.27-137.91,36.67-267.81,105.91-371.83,203.97-2.91,2.97-15.12,14.32-17.71,16.95-6.27,6.47-14.26,14.69-20.57,21.12-4.41,4.87-15.43,17.04-19.88,21.89-4.64,5.39-11.32,13.39-15.97,18.84-4.36,4.89-14.35,17.88-18.59,23.19-7.65,9.43-14.95,20.18-22.31,29.87-4.63,6.8-13.79,20.04-18.3,26.77-3.51,5.45-12.51,19.75-16.13,25.34-3.21,5.57-12.16,20.53-15.35,25.94-3.26,5.83-11.19,20.58-14.53,26.52-2.73,5.65-11,21.52-13.73,27.06-3.73,7.64-10.32,22.17-14,29.88,0,0-1,2.33-1,2.33,0,0-1.99,4.68-1.99,4.68-3.7,9-8.43,19.11-11.85,28.21-2.09,5.7-9.14,22.83-11.01,28.67-14.17,38.46-25.89,78.74-35.61,118.79-3.38,15.53-7.91,35.55-10.57,51.22-3.08,15.46-5.2,31.16-7.69,46.81-1.03,7.86-2.27,18.48-3.27,26.28-1.64,12.17-2.95,30.25-4.22,42.42-.6,11.94-1.81,25.45-2.31,37.47-.3,8.23-.63,18.84-.96,26.95-.42,12.59-.23,25.36-.48,38,.08,12.31.43,25.94.43,38.32,0,0-.98.2-.98.2-5.03-13.76-10.37-27.57-14.65-41.6-2.75-8.65-5.37-17.76-8.04-26.49-3.06-11.97-6.77-25.66-9.53-37.68-2.15-10.36-4.73-22.25-6.83-32.75-1.66-10.02-4.86-28.45-6.26-38.66-1.41-12.4-3.51-26.65-4.48-39.06-2.03-22.3-3.23-45.21-3.72-67.65.18-8.13-.06-26.33.11-34.04,1.44-49.32,6.36-99.1,15.72-147.69,0,0,4.61-22.57,4.61-22.57,2.48-12.83,6.39-26.54,9.38-39.31.67-3.03,6.89-24.24,7.9-27.84,1.77-6.34,4.76-15.78,6.94-22.14,5.19-17.11,13.37-37.93,19.68-54.75,2.79-6.74,10.66-25.29,13.61-32.27,4.51-10.3,10.18-21.5,14.89-31.8,15.59-31.31,33.22-62.66,52.18-92.02,7.03-11.09,15.83-23.35,23.22-34.22,33.43-46.4,71.46-90.37,113.19-129.63,5.07-5.1,12.26-11.38,17.6-16.14,13.69-12.55,31.32-26.78,45.81-38.45,359.5-277.93,899.3-276.03,1199.69,88.18,111.26,136.01,175.82,307.36,181.44,482,.08,7.39.16,14.75-.06,22.12,0,0-.99.17-.99.17h0Z"/>
  <path class="cls-1" d="M8384.89,2912.72c18.17,38.39,32.32,78.32,44.17,119.04,21.56,73.37,33.81,149.61,37.72,226.02,4.25,91.09-4.05,183.21-25.65,271.85-7.59,31.21-16.9,62.02-27.56,92.31-2.49,7.07-7.79,20.63-10.2,27.22-3.26,7.88-9.51,23.37-12.99,31.4-4.5,9.94-9.5,21.16-14.19,30.95-3.67,7.11-9.62,19.61-13.03,26.15-3.85,7.51-12.14,22.32-16.27,29.97-4.57,7.74-10.22,17.49-14.82,25.19-4.61,7.71-13.49,21.28-18.22,28.82-1.09,1.8-14.49,21.17-16.46,24.12-2.59,3.97-8.47,11.62-11.39,15.76-6.01,8.43-16.94,22.53-23.57,30.9-15.52,19.56-33.52,40.48-50.52,58.75-25.82,27.87-54.34,55.3-82.6,80.67-117.21,104.24-252.79,187.41-394.8,252.92-187.68,86.58-387.94,144.03-590.26,183.88-34.53,6.99-68.61,12.85-102.7,19.74-19.43,4.14-46.29,9.24-65.26,13.55-20.47,4.74-53.16,12.21-73.46,17.13-21.55,5.58-51.79,13.22-73.43,18.78-17,4.6-72.22,20.12-89.63,24.98-26.62,8.09-62.68,18.82-89.45,26.89-65.92,20.74-145.37,47.04-210.56,69.75-29.89,10.78-83.22,29.55-112.85,40.49-29.24,11.07-83.13,30.98-112.49,42.14-30.02,11.76-81.89,31.91-112.1,43.72-297.88,118.34-595.53,250.79-885.8,386.77-1066.26,502.54-2105.27,1071.32-3137.58,1640.15-321.73,177.97-651.72,362.49-973.58,539.99,0,0-.52-.85-.52-.85,306.09-203.77,624.04-408.33,935.2-604.94,864.67-543.42,1744.87-1067.06,2649.47-1541.79,193.09-101.15,396.41-203.95,592.56-299.13,186.35-90.06,382.98-181.25,572.86-263.35,318.37-136.48,644.94-264.85,981.42-352.56,12.69-3.57,39.56-9.8,52.42-12.94,10.65-2.46,41.85-10.26,52.7-12.36,20.05-4.19,50.81-11.02,70.86-15.03,27.91-5.46,57.08-11.15,84.38-16.74,272.22-56.15,543.39-143.78,771.73-305.2,38.23-27.36,75.33-56.98,109.91-88.84,75.7-69.89,141.22-149.27,195.59-236.53,2.73-4.33,5.23-8.79,7.92-13.17,0,0,3.98-6.59,3.98-6.59,0,0,1.99-3.3,1.99-3.3.66-1.1,1.26-2.23,1.9-3.35,2.5-4.48,5.07-8.94,7.62-13.41,1.26-2.24,2.6-4.45,3.81-6.72,0,0,3.64-6.82,3.64-6.82,0,0,7.39-13.62,7.39-13.62,19.18-36.73,36.98-75.46,52.35-113.97,34.38-86.33,59.3-176.2,78.28-267.14,8.67-42.12,16.35-84.39,23.21-127.07,2.18-14.51,4.72-28.92,6.76-43.51,3.78-23.39,6.95-46.96,11.09-70.94,0,0,.99-.14.99-.14h0Z"/>
  <path class="cls-1" d="M10730.37,3083.64c-112.95,20.47-229.2,10.53-340.62-14.09-55.59-13.02-110.92-28.58-162.51-53.51-39.17-18.9-76.02-42.25-108.6-71.3-10.98-9.92-21.62-20.39-31.3-32.57,0,0,.43-.9.43-.9,7.82-.26,15.34.04,22.78.43,39.12,2.31,77.66,8.78,115.84,17.19,63.5,13.61,124.46,35.32,186.43,54.15,78.42,24.21,157.94,47.58,236.86,72.34,26.73,8.51,53.65,17.07,80.77,27.27,0,0-.08,1-.08,1h0Z"/>
  <path class="cls-1" d="M1104.8,7351.88c206.92-163.74,432.31-304.03,668.25-422.16,413.33-206.5,862.89-342.23,1322.91-389.63,266.59-27.8,536.52-25.69,802.72,5.89,178.87,22.48,358.41,53.31,530.85,106.58,146.21,45.6,287.98,106.72,419.45,185.48,37.6,22.72,74.3,46.83,109.85,72.64,17.66,13.26,35.19,26.64,52.16,41.02,0,0-.42.91-.42.91-88.55-13.84-175.53-33.85-262.8-53.16-49.09-10.97-98.47-22.06-147.35-33.59-25.12-5.59-52.44-11.83-77.01-17.72-96.95-21.95-194.09-44.52-291.22-65.68-321.15-72.12-652.13-102.74-981.07-91.11-293.84,10.58-586.34,54.49-871.18,127.53-66.13,16.99-132.8,35.68-198.06,55.7-376.24,113.72-737.92,282.12-1077.08,477.3h0Z"/>
  <ellipse class="cls-1" cx="6628.63" cy="5895.74" rx="2029.67" ry="1318.15"/>
  <ellipse class="cls-1" cx="3655.86" cy="5992.81" rx="1812.29" ry="170.42" transform="translate(-2456.63 2540.77) rotate(-29.16)"/>
  <polygon class="cls-1" points="2615.86 6539.43 5542.38 5170.9 5834.81 6814.73 2615.86 6539.43"/>
  <ellipse class="cls-1" cx="9248.04" cy="2831.79" rx="803.57" ry="603.75"/>
  <ellipse class="cls-1" cx="8899.51" cy="4210.94" rx="538.31" ry="1781.87"/>
  <path class="cls-1" d="M4419.19,6472.7c10.33.39,19.96-1.76,28.9-6.46,9.3-3.02,17.34-8.19,24.14-15.51,7.31-6.79,12.48-14.84,15.51-24.14,4.7-8.94,6.85-18.57,6.46-28.9-.89-6.65-1.79-13.29-2.68-19.94-3.56-12.71-9.99-23.74-19.29-33.1-5.06-3.91-10.12-7.82-15.18-11.73-11.7-6.78-24.32-10.2-37.85-10.24-10.33-.39-19.96,1.76-28.9,6.46-9.3,3.02-17.34,8.19-24.14,15.51-7.31,6.79-12.48,14.84-15.51,24.14-4.7,8.94-6.85,18.57-6.46,28.9.89,6.65,1.79,13.29,2.68,19.94,3.56,12.71,9.99,23.74,19.29,33.1,5.06,3.91,10.12,7.82,15.18,11.73,11.7,6.78,24.32,10.2,37.85,10.24h0Z"/>
  <path class="cls-1" d="M4628.95,6751.2c1.45.19,2.89.38,4.34.58-6.65-.89-13.29-1.79-19.94-2.68,68.35,9.21,136.21,21.95,203.24,38.19,67.02,16.24,133.21,35.95,198.19,59.03,36.45,12.94,72.51,26.95,108.15,41.99-5.97-2.52-11.94-5.04-17.92-7.56,26.22,11.08,52.2,22.71,77.92,34.89,8.61,5.48,17.9,8.45,27.88,8.9,9.97,2.23,19.94,1.79,29.91-1.34,9.76-2.32,18.26-6.8,25.51-13.42,8.16-5.29,14.6-12.3,19.32-21.04,2.52-5.97,5.04-11.94,7.56-17.92,3.57-13.29,3.57-26.58,0-39.88-2.52-5.97-5.04-11.94-7.56-17.92-6.67-11.27-15.64-20.24-26.91-26.91-42.13-19.95-84.97-38.42-128.23-55.79-37.42-15.02-75.29-28.91-113.54-41.64-38.43-12.79-77.25-24.41-116.39-34.84-39.14-10.43-78.59-19.67-118.29-27.7-39.52-7.99-79.28-14.78-119.21-20.36-11.34-1.58-22.69-3.09-34.04-4.59-10.33-.39-19.96,1.76-28.9,6.46-9.3,3.02-17.34,8.19-24.14,15.51-7.31,6.79-12.48,14.84-15.51,24.14-4.7,8.94-6.85,18.57-6.46,28.9l2.68,19.94c3.56,12.71,9.99,23.74,19.29,33.1,5.06,3.91,10.12,7.82,15.18,11.73,11.7,6.78,24.32,10.2,37.85,10.24h0Z"/>
  <path class="cls-1" d="M7348.04,4661.21c80.04-.34,160.08,3.61,239.7,11.84,22.61,2.34,45.17,5.03,67.7,8.04l-19.94-2.68c77.7,10.45,154.84,24.88,231.05,43.29,76.2,18.4,151.45,40.75,225.34,66.93,41.6,14.74,82.76,30.71,123.43,47.85l-17.92-7.56c72.22,30.5,142.83,64.74,211.47,102.62l17.92,7.56,19.94,2.68,19.94-2.68c9.76-2.32,18.26-6.8,25.51-13.42,5.63-3.33,10.12-7.82,13.45-13.45,4.65-4.68,7.86-10.19,9.64-16.55,3.39-5.85,5.1-12.16,5.12-18.93,2.23-9.97,1.79-19.94-1.34-29.91-8.72-29.13-17.63-58.26-29.33-86.36-8.06-19.35-16.13-38.66-26.54-56.88s-22.8-34.64-36-50.57c-9.87-11.91-21.03-22.55-33.2-32.08-16.69-13.06-33.31-25.35-52.02-35.34-32.26-17.24-67.04-30.22-101.82-41.42-67.3-21.67-135.71-40.19-204.5-56.48-70.1-16.59-140.81-30.56-211.95-41.86-76.7-12.19-153.88-21.81-231.28-28.3-9.1-.76-18.21-1.48-27.32-2.16,6.65,49.11,13.29,98.21,19.94,147.32,61.2-23.78,125.13-39.98,190.17-48.81l-19.94,2.68c61.14-8.18,123.08-9.9,184.58-5.25,17.51,1.32,34.97,3.18,52.37,5.51l-19.94-2.68c61.16,8.3,121.46,22.73,179.66,43.32,16.53,5.85,32.88,12.2,49.04,19.01l-17.92-7.56c66.68,28.24,129.76,64.67,187.11,108.91-5.06-3.91-10.12-7.82-15.18-11.73,7.16,5.55,14.24,11.21,21.22,16.99,9.36,9.3,20.39,15.72,33.1,19.29,13.29,3.57,26.58,3.57,39.88,0,24.09-6.64,46.98-27.25,52.38-52.38,4.22-19.64,7.11-40.74,4.78-60.89s-5.12-39.43-12.95-58.28-16-37.3-28.29-54.1c-12.14-16.59-24.86-32.7-39.88-46.78-26.12-24.5-56.37-46.07-89.11-60.83-37.04-16.7-75.01-29.56-113.98-40.83-37.5-10.84-75.26-21.16-111.31-36.32,5.97,2.52,11.94,5.04,17.92,7.56-10.07-4.29-19.97-8.94-29.66-14.04,5.06,39.26,10.12,78.53,15.18,117.79,5.09-5.45,10.55-10.47,16.41-15.09-5.06,3.91-10.12,7.82-15.18,11.73,10.46-8.07,21.87-14.62,34.02-19.8l-17.92,7.56c14.83-6.17,30.36-10.18,46.26-12.39l-19.94,2.68c19.44-2.55,39.07-2.4,58.5.12l-19.94-2.68c23.52,3.22,46.21,10.12,68.09,19.25l-17.92-7.56c49.15,20.83,92.61,52.28,135.51,83.56,11.7,6.78,24.32,10.2,37.85,10.24,10.33.39,19.96-1.76,28.9-6.46,9.3-3.02,17.34-8.19,24.14-15.51,9.3-9.36,15.72-20.39,19.29-33.1,4.6-24.16,7.25-48.59,4.09-73.05-1.96-15.18-3.71-30.18-7.88-44.91s-10.2-28.26-16.2-42.01c-9.8-22.44-24.17-41.91-39.64-60.79s-34.1-33.84-53.78-47.35c-8.24-5.66-16.97-10.62-26.07-14.75-15.03-6.82-30.29-13.41-46.35-17.37-6.65,49.11-13.29,98.21-19.94,147.32,15.06-1.11,30.44-2.92,45.02-7.06,14.05-3.99,27.73-9.94,40.75-16.47,7.77-3.89,15.09-8.55,22.05-13.74,11.93-8.91,23.88-17.89,34.14-28.72,15.91-16.78,30.61-36.29,40.6-57.29,6.39-13.44,12.48-27.41,16.64-41.76,4.21-14.55,5.99-29.79,7.62-44.78,1.04-9.53,1.09-19.17.06-28.7-1.76-16.29-3.67-32.65-9.14-48.16-6.55-18.61-17.03-34.62-34.47-44.82-8.61-5.48-17.9-8.45-27.88-8.9-9.97-2.23-19.94-1.79-29.91,1.34-18.15,5.87-35.66,17.12-44.82,34.47s-14.23,38.84-7.56,57.79c2.83,8.05,4.83,16.29,6.03,24.74-.89-6.65-1.79-13.29-2.68-19.94,1.58,12.11,1.47,24.27-.16,36.37.89-6.65,1.79-13.29,2.68-19.94-1.89,13.1-5.49,25.8-10.59,38.01l7.56-17.92c-5.62,13.13-12.86,25.43-21.59,36.73l11.73-15.18c-8.21,10.44-17.56,19.84-28.04,28l15.18-11.73c-9.71,7.41-20.2,13.62-31.45,18.41l17.92-7.56c-10.01,4.13-20.4,7.04-31.12,8.6l19.94-2.68c-2.83.38-5.67.67-8.51.88-10.33-.39-19.96,1.76-28.9,6.46-9.3,3.02-17.34,8.19-24.14,15.51-3.91,5.06-7.82,10.12-11.73,15.18-5.48,8.61-8.45,17.9-8.9,27.88-1.79,6.65-1.79,13.29,0,19.94.45,9.98,3.42,19.28,8.9,27.88,10.43,16.18,25.65,29.74,44.82,34.47,8.31,2.05,16.41,4.72,24.31,8.01l-17.92-7.56c13.85,5.9,26.76,13.57,38.68,22.76-5.06-3.91-10.12-7.82-15.18-11.73,12.69,9.94,24,21.41,33.87,34.15l-11.73-15.18c10.1,13.25,18.51,27.63,25.05,42.96l-7.56-17.92c6.2,14.84,10.57,30.31,12.85,46.24-.89-6.65-1.79-13.29-2.68-19.94,2.01,14.93,2.13,29.97.17,44.91.89-6.65,1.79-13.29,2.68-19.94-.42,3-.91,5.98-1.48,8.95,36.72-14.94,73.45-29.88,110.17-44.82-23.89-17.42-47.84-34.82-72.94-50.49-29.39-18.35-60.42-33.44-92.9-45.56-29.89-11.15-61.68-16.95-93.5-18.68-12.47-.68-25-.33-37.41,1.15-18.37,2.19-36.79,4.44-54.49,10.02-36.83,11.61-71.9,31.22-98.43,59.65-9.3,9.36-15.72,20.39-19.29,33.1-3.13,9.97-3.57,19.94-1.34,29.91.45,9.98,3.42,19.28,8.9,27.88,6.67,11.27,15.64,20.24,26.91,26.91,41.13,21.69,85.43,36.63,129.95,49.58,39.09,11.37,78.53,21.93,116.14,37.73l-17.92-7.56c22.65,9.64,43.94,21.61,63.51,36.59-5.06-3.91-10.12-7.82-15.18-11.73,16.35,12.67,31.24,27.08,43.98,43.4l-11.73-15.18c9.52,12.38,17.67,25.69,23.88,40.04l-7.56-17.92c4.87,11.56,8.37,23.56,10.18,35.98-.89-6.65-1.79-13.29-2.68-19.94,1.53,11.48,1.57,22.99.03,34.48.89-6.65,1.79-13.29,2.68-19.94-.47,3.21-1.05,6.39-1.73,9.56,41.78-11.03,83.57-22.06,125.35-33.1-50.77-41.99-105.03-79.36-163.62-109.59-58.64-30.25-120.74-55.01-184.31-72.76-63.63-17.77-129.49-28.49-195.35-33.41-59.8-4.47-120.06-2.96-179.53,4.76-66.07,8.57-130.78,21.8-193.62,44.31-6.93,2.48-13.83,5.07-20.69,7.74-9.76,2.32-18.26,6.8-25.51,13.42-8.16,5.29-14.6,12.3-19.32,21.04-2.52,5.97-5.04,11.94-7.56,17.92-3.13,9.97-3.57,19.94-1.34,29.91.02,6.77,1.73,13.08,5.12,18.93,3.02,9.3,8.19,17.34,15.51,24.14,5.06,3.91,10.12,7.82,15.18,11.73,11.7,6.78,24.32,10.2,37.85,10.24,56.77,4.23,113.4,10.14,169.83,17.69l-19.94-2.68c73.13,9.84,145.89,22.44,218.06,37.84s143.74,33.55,214.51,54.44c35.87,10.59,71.96,21.21,106.48,35.72l-17.92-7.56c23.7,10.08,46.5,22.19,66.98,37.91-5.06-3.91-10.12-7.82-15.18-11.73,14.06,10.97,26.6,23.51,37.59,37.55l-11.73-15.18c15.82,20.54,28.04,43.43,38.17,67.25l-7.56-17.92c12.03,28.61,21.14,58.3,30.02,88,36.72-28.23,73.45-56.47,110.17-84.7-65.46-36.13-132.72-68.98-201.47-98.37-74.15-31.7-149.38-60.48-226.31-84.75-71.62-22.6-144.36-41.65-217.86-57.05-79.08-16.57-159.1-28.8-239.42-37.54-74.32-8.08-149.06-12.47-223.82-13.05-9.22-.07-18.45-.08-27.67-.04-19.28.08-39.37,8.31-53.03,21.97-13.01,13.01-22.8,34.35-21.97,53.03s7.24,39.51,21.97,53.03,32.74,22.05,53.03,21.97h0Z"/>
  <path class="cls-1" d="M8422.31,2949.16c-5.28,48.48-8.84,97.14-10.67,145.87-1.82,48.48-1.93,97.03-.32,145.52.91,27.32,2.36,54.63,4.35,81.89-.39,10.33,1.76,19.96,6.46,28.9,3.02,9.3,8.19,17.34,15.51,24.14,6.79,7.31,14.84,12.48,24.14,15.51,8.94,4.7,18.57,6.85,28.9,6.46,6.65-.89,13.29-1.79,19.94-2.68,12.71-3.56,23.74-9.99,33.1-19.29,3.91-5.06,7.82-10.12,11.73-15.18,6.78-11.7,10.2-24.32,10.24-37.85-3.55-48.64-5.38-97.39-5.47-146.16-.09-48.52,1.53-97.04,4.86-145.44,1.88-27.27,4.3-54.51,7.26-81.68.39-10.33-1.76-19.96-6.46-28.9-3.02-9.3-8.19-17.34-15.51-24.14-6.79-7.31-14.84-12.48-24.14-15.51-8.94-4.7-18.57-6.85-28.9-6.46-6.65.89-13.29,1.79-19.94,2.68-12.71,3.56-23.74,9.99-33.1,19.29-3.91,5.06-7.82,10.12-11.73,15.18-6.78,11.7-10.2,24.32-10.24,37.85h0Z"/>
  <path class="cls-1" d="M9914.71,2862.6c6.34,16.9,12.68,33.79,19.02,50.69,3.03,8.07,5.96,16.17,9.18,24.16s6.42,15.46,9.73,23.14c.8,1.87,1.64,3.72,2.51,5.56,1.77,3.73,3.69,7.4,5.84,10.93,5.12,8.43,11.64,16.06,17.64,23.79,2.08,2.68,4.29,5.25,6.63,7.7s4.69,4.66,7.19,6.82c1.25,1.08,2.53,2.13,3.83,3.16,6.22,4.91,12.44,9.84,18.85,14.51,16.24,11.85,35.03,19.24,53.49,26.86,12.8,5.28,26,9.53,39.24,13.53,1.63.49,3.25.98,4.88,1.47,9.97,3.13,19.94,3.57,29.91,1.34,9.98-.45,19.28-3.42,27.88-8.9,8.74-4.71,15.75-11.15,21.04-19.32,6.63-7.24,11.1-15.75,13.42-25.51.89-6.65,1.79-13.29,2.68-19.94-.04-13.54-3.46-26.16-10.24-37.85-3.91-5.06-7.82-10.12-11.73-15.18-9.36-9.3-20.39-15.72-33.1-19.29-15.5-4.63-30.97-9.46-45.89-15.74l17.92,7.56c-12.88-5.45-25.36-12-36.46-20.55,5.06,3.91,10.12,7.82,15.18,11.73-7-5.42-13.37-11.61-18.78-18.62l11.73,15.18c-6.18-8.06-10.82-17.08-14.77-26.41l7.56,17.92c-4.09-9.73-7.64-19.69-11.34-29.57-3.92-10.43-7.83-20.87-11.75-31.3-2.22-5.92-4.44-11.84-6.66-17.75-2.32-9.76-6.8-18.26-13.42-25.51-5.29-8.16-12.3-14.6-21.04-19.32-8.61-5.48-17.9-8.45-27.88-8.9-9.97-2.23-19.94-1.79-29.91,1.34l-17.92,7.56c-11.27,6.67-20.24,15.64-26.91,26.91l-7.56,17.92c-3.57,13.29-3.57,26.58,0,39.88h0Z"/>
  <path class="cls-1" d="M9333.49,4349.65c-.04.24-.07.48-.1.73-.89,6.26-2.11,14.02-2.72,20.3-.05.55-.09,1.09-.1,1.64-.02,1.04.06,2.07.18,3.1.76,6.33,1.71,14.02,2.73,20.3.04.24.08.48.12.72.1.54.23,1.07.37,1.6,1.86,6.79,6.88,16.91,8.45,20.51.39.9.81,1.78,1.31,2.62.28.47.58.94.89,1.39.14.2.29.4.43.59,3.41,4.62,8.37,10.99,11.95,15.47.65.81,1.33,1.58,2.09,2.29.4.38.82.73,1.25,1.07,4.37,3.53,10.95,8.61,15.47,11.95.25.18.49.36.74.54-12.38-21.59-24.76-43.17-37.15-64.76,2.62,26.96,4.17,54.02,4.65,81.1.48,27-.11,54.01-1.76,80.97-.93,15.2-2.2,30.38-3.81,45.53-.39,10.33,1.76,19.96,6.46,28.9,3.02,9.3,8.19,17.34,15.51,24.14,6.79,7.31,14.84,12.48,24.14,15.51,8.94,4.7,18.57,6.85,28.9,6.46,6.65-.89,13.29-1.79,19.94-2.68,12.71-3.56,23.74-9.99,33.1-19.29l11.73-15.18c6.78-11.7,10.2-24.32,10.24-37.85,2.9-27.34,4.7-54.8,5.4-82.29s.29-55-1.22-82.46c-.43-7.73-.94-15.45-1.54-23.16-.29-3.78-.61-7.55-.94-11.32-.18-1.97-.36-3.94-.54-5.9-.7-7.36-1-16.48-2.92-22.4-1.26-2.99-2.52-5.97-3.78-8.96-3.02-9.3-8.19-17.34-15.51-24.14-6.84-6.84-10.57-8.21-16.07-12.37,5.06,3.91,10.12,7.82,15.18,11.73-1.35-1.06-2.54-2.27-3.6-3.62l11.73,15.18c-1.11-1.47-2.02-3.05-2.74-4.74l7.56,17.92c-.7-1.71-1.18-3.46-1.44-5.28.89,6.65,1.79,13.29,2.68,19.94-.22-1.7-.24-3.4-.04-5.11-.89,6.65-1.79,13.29-2.68,19.94.03-.24.07-.48.1-.73,3.13-9.97,3.57-19.94,1.34-29.91-.45-9.98-3.42-19.28-8.9-27.88-4.71-8.74-11.15-15.75-19.32-21.04-7.24-6.63-15.75-11.1-25.51-13.42-6.65-.89-13.29-1.79-19.94-2.68-13.54.04-26.16,3.46-37.85,10.24-5.06,3.91-10.12,7.82-15.18,11.73-9.3,9.36-15.72,20.39-19.29,33.1h0Z"/>
  <path class="cls-1" d="M2152.78,6884.48c10.33.39,19.96-1.76,28.9-6.46,9.3-3.02,17.34-8.19,24.14-15.51,7.31-6.79,12.48-14.84,15.51-24.14,4.7-8.94,6.85-18.57,6.46-28.9l-2.68-19.94c-3.56-12.71-9.99-23.74-19.29-33.1-5.06-3.91-10.12-7.82-15.18-11.73-11.7-6.78-24.32-10.2-37.85-10.24-10.33-.39-19.96,1.76-28.9,6.46-9.3,3.02-17.34,8.19-24.14,15.51-7.31,6.79-12.48,14.84-15.51,24.14-4.7,8.94-6.85,18.57-6.46,28.9l2.68,19.94c3.56,12.71,9.99,23.74,19.29,33.1,5.06,3.91,10.12,7.82,15.18,11.73,11.7,6.78,24.32,10.2,37.85,10.24h0Z"/>
  <path class="cls-1" d="M2153.11,6714.33c-109.04,3.94-204.77,56.6-298.74,106.82-86.77,46.37-173.36,93.06-260.12,139.45-174.37,93.24-349.44,185.32-527.63,271.1-100.44,48.35-201.87,94.65-304.57,138.01,5.97-2.52,11.94-5.04,17.92-7.56-93.3,39.33-187.64,76.18-283.14,109.82-18.61,6.56-34.62,17.03-44.82,34.47-9.41,16.08-13.39,39.77-7.56,57.79,5.87,18.15,17.12,35.66,34.47,44.82,17.14,9.05,38.84,14.24,57.79,7.56,107.91-38.01,214.17-80.34,319.41-125.16,100.21-42.68,199.21-88.18,297.28-135.56,98.22-47.46,195.51-96.81,292.27-147.17,96.84-50.41,193.15-101.84,289.37-153.45,48.32-25.91,96.61-51.87,144.93-77.77s93.73-51.36,141.78-74.59c12-5.8,24.13-11.33,36.4-16.52l-17.92,7.56c33.34-13.92,67.81-24.93,103.68-29.89-6.65.89-13.29,1.79-19.94,2.68,9.68-1.24,19.38-2.06,29.14-2.41,19.66-.71,38.94-7.88,53.03-21.97,13.01-13.01,22.8-34.35,21.97-53.03s-7.24-39.51-21.97-53.03-32.99-22.69-53.03-21.97h0Z"/>
  <path class="cls-1" d="M2362.21,6634.63c-124.43,38.55-243.26,94.31-357.33,156.78-110.04,60.26-216.41,126.88-324.26,190.9-112.62,66.85-226.48,131.6-341.51,194.21-115.52,62.87-232.21,123.58-350,182.09-117.29,58.26-235.66,114.34-355.04,168.18-14.73,6.65-29.48,13.25-44.24,19.83-16.08,7.17-30,28.61-34.47,44.82-4.94,17.95-2.71,41.86,7.56,57.79,10.32,16.01,25.7,30.11,44.82,34.47,6.65.89,13.29,1.79,19.94,2.68,13.54-.04,26.16-3.46,37.85-10.24,110.46-49.23,220.08-100.33,328.78-153.32,108.7-52.99,216.5-107.85,323.31-164.54,106.82-56.7,212.66-115.23,317.46-175.57,102.31-58.9,203-120.46,304.47-180.78,98.9-58.79,199.22-115.7,304.24-162.96,13.01-5.85,26.09-11.55,39.23-17.1l-17.92,7.56c44.86-18.85,90.5-35.76,136.98-50.16,18.39-5.7,34.99-17.66,44.82-34.47,9.41-16.08,13.39-39.77,7.56-57.79s-17.12-35.66-34.47-44.82c-17.54-9.27-38.33-13.59-57.79-7.56h0Z"/>
  <path class="cls-1" d="M7271.86,7010.64c-89.54-2.48-172.13,41.4-234.3,103.28-30.1,29.96-56.29,64.53-79.06,100.32-20.26,31.84-37.15,65.48-52.45,99.94-36.05,81.19-65.55,164.78-91.27,249.75-24.03,79.36-45.32,159.51-68.28,239.18-22.86,79.33-47.36,158.31-77.94,235.05-3.75,9.41-7.59,18.78-11.52,28.11,2.52-5.97,5.04-11.94,7.56-17.92-27,63.85-58.65,125.73-96.82,183.66-5.48,8.61-8.45,17.9-8.9,27.88-2.23,9.97-1.79,19.94,1.34,29.91,4.79,17.4,18.24,36.25,34.47,44.82,17.41,9.2,38.49,13.81,57.79,7.56,19.17-6.2,33.66-17.53,44.82-34.47,71.27-108.18,120.22-230.06,159.92-352.89,38.51-119.15,68.48-240.82,105.09-360.54,20.47-66.94,43.06-133.29,70.23-197.84-2.52,5.97-5.04,11.94-7.56,17.92,24.64-58.32,52.95-114.9,91.63-165.31-3.91,5.06-7.82,10.12-11.73,15.18,20.91-27.05,44.46-52.1,71.47-73.15l-15.18,11.73c18.44-14.21,38.32-26.38,59.75-35.53l-17.92,7.56c17.7-7.41,36.15-12.6,55.16-15.21-6.65.89-13.29,1.79-19.94,2.68,11.17-1.44,22.38-2,33.63-1.68,18.89.52,39.8-8.74,53.03-21.97s22.8-34.35,21.97-53.03-7.24-39.51-21.97-53.03-32.53-21.4-53.03-21.97h0Z"/>
  <path class="cls-1" d="M6341.74,7273.8c4.33-2.17,8.72-4.2,13.18-6.1l-17.92,7.56c18.27-7.62,37.43-12.68,57.04-15.33-6.65.89-13.29,1.79-19.94,2.68,21.59-2.78,43.4-2.62,64.98.27-6.65-.89-13.29-1.79-19.94-2.68,22.09,3.08,43.66,8.97,64.24,17.58l-17.92-7.56c19.13,8.13,37.16,18.51,53.66,31.15-5.06-3.91-10.12-7.82-15.18-11.73,14.88,11.55,28.27,24.8,39.82,39.68-3.91-5.06-7.82-10.12-11.73-15.18,14.21,18.59,25.32,39.27,34.5,60.75-2.52-5.97-5.04-11.94-7.56-17.92,13.13,31.18,22.36,63.86,30.8,96.57,8.6,33.33,15.93,66.99,21.97,100.87,3.47,19.45,6.51,38.98,9.16,58.56-.89-6.65-1.79-13.29-2.68-19.94,12.93,96.7,15.78,194.68,8.44,291.96-2.06,27.34-4.94,54.61-8.58,81.78.89-6.65,1.79-13.29,2.68-19.94-10.86,80.23-28.56,159.51-53.22,236.64-6.99,21.86-14.55,43.54-22.63,65.02-3.13,9.97-3.57,19.94-1.34,29.91.45,9.98,3.42,19.28,8.9,27.88,4.71,8.74,11.15,15.75,19.32,21.04,7.24,6.63,15.75,11.1,25.51,13.42,19.2,4.37,40.75,3.43,57.79-7.56,5.06-3.91,10.12-7.82,15.18-11.73,9.3-9.36,15.72-20.39,19.29-33.1,33.78-89.82,58.02-183.13,72.45-277.99,15.37-101.04,22.08-202.9,16.7-305.04-5.34-101.34-20.65-202.83-46.72-300.94-6.03-22.68-12.48-45.3-20.53-67.36-9.92-27.19-21.26-54.5-36.53-79.19-25.93-41.94-61.55-77.09-104.02-102.22-20.86-12.34-43.71-22.08-66.68-29.65s-46.84-11.12-70.92-13.85c-18.22-2.06-36.68-2.14-54.91-.07-24.23,2.74-48.17,6.25-71.17,14.58-14.02,5.08-27.87,10.93-41.21,17.61-8.74,4.71-15.75,11.15-21.04,19.32-6.63,7.24-11.1,15.75-13.42,25.51-3.13,9.97-3.57,19.94-1.34,29.91.45,9.98,3.42,19.28,8.9,27.88,10.32,16.01,25.7,30.11,44.82,34.47,6.65.89,13.29,1.79,19.94,2.68,13.54-.04,26.16-3.46,37.85-10.24h0Z"/>
  <path class="cls-1" d="M6623.26,7300.48c1.51,3.49,3,6.99,4.48,10.49-2.52-5.97-5.04-11.94-7.56-17.92,16.04,38.07,30.12,76.97,42.14,116.49,12.02,39.52,22,79.67,29.89,120.22,4.45,22.89,8.23,45.91,11.35,69.01-.89-6.65-1.79-13.29-2.68-19.94,4.15,30.9,7.1,61.95,8.83,93.08-.39,10.33,1.76,19.96,6.46,28.9,3.02,9.3,8.19,17.34,15.51,24.14,6.79,7.31,14.84,12.48,24.14,15.51,8.94,4.7,18.57,6.85,28.9,6.46,6.65-.89,13.29-1.79,19.94-2.68,12.71-3.56,23.74-9.99,33.1-19.29,3.91-5.06,7.82-10.12,11.73-15.18,6.78-11.7,10.2-24.32,10.24-37.85,2.66-43.78,5.32-87.57,7.97-131.35,2.65-43.65,5.3-87.29,7.95-130.94,1.35-22.31,2.02-44.8,4.96-66.97-.89,6.65-1.79,13.29-2.68,19.94,1.83-13.54,4.75-26.98,10.07-39.61-2.52,5.97-5.04,11.94-7.56,17.92,3.09-7.22,6.94-14.13,11.74-20.36-3.91,5.06-7.82,10.12-11.73,15.18,3.35-4.25,7.21-8.03,11.47-11.36-5.06,3.91-10.12,7.82-15.18,11.73,4.91-3.77,10.26-6.88,15.95-9.31-5.97,2.52-11.94,5.04-17.92,7.56,5.45-2.27,11.13-3.87,16.97-4.68-6.65.89-13.29,1.79-19.94,2.68,4.8-.62,9.62-.68,14.42-.06-6.65-.89-13.29-1.79-19.94-2.68,4.01.56,7.91,1.6,11.64,3.17-5.97-2.52-11.94-5.04-17.92-7.56,3.12,1.36,6.04,3.07,8.74,5.13l-15.18-11.73c1.66,1.3,3.35,2.68,4.69,4.32-3.91-5.06-7.82-10.12-11.73-15.18.51.68.91,1.37,1.24,2.15l-7.56-17.92c.29.76.47,1.51.58,2.31-.89-6.65-1.79-13.29-2.68-19.94.09.92.08,1.83-.03,2.74.89-6.65,1.79-13.29,2.68-19.94-.2,1.42-.6,2.76-1.14,4.08,2.52-5.97,5.04-11.94,7.56-17.92-.71,1.62-1.6,3.13-2.67,4.53,3.91-5.06,7.82-10.12,11.73-15.18-.89,1.13-1.87,2.17-3.01,3.05,5.06-3.91,10.12-7.82,15.18-11.73-.52.39-1.06.73-1.66,1,5.97-2.52,11.94-5.04,17.92-7.56-.31.12-.61.22-.94.28,6.65-.89,13.29-1.79,19.94-2.68-.23.03-.44.04-.67.02,6.65.89,13.29,1.79,19.94,2.68-.16-.03-.29-.06-.44-.12,5.97,2.52,11.94,5.04,17.92,7.56-.14-.07-.26-.14-.38-.24,5.06,3.91,10.12,7.82,15.18,11.73-.08-.07-.15-.15-.22-.23,3.91,5.06,7.82,10.12,11.73,15.18-.11-.15-.19-.29-.27-.45,2.52,5.97,5.04,11.94,7.56,17.92-.14-.35-.22-.69-.28-1.06.89,6.65,1.79,13.29,2.68,19.94-.09-.85-.03-1.69.08-2.54.39-10.33-1.76-19.96-6.46-28.9-3.02-9.3-8.19-17.34-15.51-24.14-6.79-7.31-14.84-12.48-24.14-15.51-8.94-4.7-18.57-6.85-28.9-6.46-6.65.89-13.29,1.79-19.94,2.68-12.71,3.56-23.74,9.99-33.1,19.29-3.91,5.06-7.82,10.12-11.73,15.18-6.78,11.7-10.2,24.32-10.24,37.85-.94,7.24,1.45,18.66,2.64,22.73,3.9,13.4,10,24.58,19.91,34.49,19.39,19.39,49.11,27.4,75.52,19.46,13.45-4.05,27.49-11.71,36.92-22.32,4.91-5.53,9.53-11.4,13.56-17.6.65-1,1.18-2.05,1.67-3.13,7.04-15.3,11.93-26.53,11.47-44-.09-3.3-1.53-11.6-1.4-10.65.18,1.37-.72-7.45-1.44-10.64-.13-.56-.3-1.09-.48-1.64-1.04-3.1-6.28-15.39-7.7-18.24-.13-.26-.25-.53-.4-.78s-.32-.51-.49-.76c-1.99-2.65-4.02-5.28-6.09-7.88-1.96-2.68-4-5.31-6.1-7.88-1.12-1.22-2.36-2.34-3.64-3.38-6.1-4.96-12.25-10.18-18.93-14.43-1.42-.91-2.9-1.72-4.43-2.44-7.2-3.41-14.56-6.65-22.1-9.27-1.59-.55-3.2-1.01-4.84-1.37-.74-.17-1.48-.31-2.23-.44-7.32-1.27-14.82-2.15-22.2-3.01-3.41-.4-6.85-.49-10.27-.25-9.98.7-20.08,1.89-29.83,4.21-3.49.83-6.9,1.96-10.23,3.31-8.76,3.56-18.74,7.18-27.16,12.18-8.41,4.99-16.21,11.58-23.67,17.64-2.8,2.27-5.42,4.76-7.8,7.46-6.71,7.6-13.05,15.74-18.5,24.32-2.37,3.74-4.47,7.65-6.3,11.68-4.38,9.63-8.81,19.55-12.11,29.67-2.79,8.54-4.66,17.36-6,26.23-2.33,15.42-4.34,30.86-5.46,46.41-.72,10.08-1.28,20.18-1.89,30.27-2.63,43.37-5.27,86.75-7.9,130.12-2.63,43.37-5.27,86.75-7.9,130.12-.33,5.44-.66,10.88-.99,16.32h150c-1.53-27.58-4.02-55.11-7.46-82.52-4.25-33.82-9.14-67.54-15.69-101-5.29-26.99-11.5-53.79-18.62-80.35s-15.23-53.12-24.21-79.24c-11.02-32.05-23.71-63.38-36.91-94.59-1.33-3.15-2.68-6.3-4.04-9.44-4.71-8.74-11.15-15.75-19.32-21.04-7.24-6.63-15.75-11.1-25.51-13.42-9.97-3.13-19.94-3.57-29.91-1.34-9.98.45-19.28,3.42-27.88,8.9-5.06,3.91-10.12,7.82-15.18,11.73-9.3,9.36-15.72,20.39-19.29,33.1-.89,6.65-1.79,13.29-2.68,19.94.04,13.54,3.46,26.16,10.24,37.85h0Z"/>
  <path class="cls-1" d="M6250.46,7272.48c18.32.45,36.59,1.92,54.75,4.36-6.65-.89-13.29-1.79-19.94-2.68,35.9,4.86,71.26,13.52,105.38,25.69,9.59,3.42,19.08,7.12,28.45,11.08l-17.92-7.56c32.81,13.89,64.24,31.02,93.65,51.16,8.23,5.63,16.29,11.51,24.19,17.6l-15.18-11.73c22.46,17.36,43.52,36.52,62.8,57.36,5.46,5.9,10.78,11.94,15.95,18.1,6.79,7.31,14.84,12.48,24.14,15.51,8.94,4.7,18.57,6.85,28.9,6.46,10.33.39,19.96-1.76,28.9-6.46,9.3-3.02,17.34-8.19,24.14-15.51,3.91-5.06,7.82-10.12,11.73-15.18,6.78-11.7,10.2-24.32,10.24-37.85-.89-6.65-1.79-13.29-2.68-19.94-3.56-12.71-9.99-23.74-19.29-33.1-18.52-22.05-38.95-42.49-60.95-61.07-5.52-4.66-11.13-9.21-16.84-13.63-10.52-8.16-20.99-16.38-31.83-24.12-11.76-8.4-23.87-16.31-36.28-23.72-30.11-17.98-61.97-32.41-94.53-45.35-26.67-10.6-54.2-19.04-82.24-25.16-20.51-4.48-41.2-7.29-62.01-10.05-14.22-1.88-28.53-3.16-42.86-3.82-3.56-.16-7.12-.29-10.68-.37-10.33-.39-19.96,1.76-28.9,6.46-9.3,3.02-17.34,8.19-24.14,15.51-7.31,6.79-12.48,14.84-15.51,24.14-4.7,8.94-6.85,18.57-6.46,28.9.89,6.65,1.79,13.29,2.68,19.94,3.56,12.71,9.99,23.74,19.29,33.1,5.06,3.91,10.12,7.82,15.18,11.73,11.7,6.78,24.32,10.2,37.85,10.24h0Z"/>
  <path class="cls-1" d="M6567.53,8216.88c2.5,159.97,9.59,319.85,21.39,479.4,11.8,159.55,28.23,318.75,49.29,477.34,21.65,163.1,47.44,325.58,78.42,487.18,30.12,157.12,64.82,313.37,104.07,468.46,10.96,43.32,21.29,85.35,50.52,120.55,31.95,38.47,83.56,48.71,131.03,48.3,72.77-.64,145.15,1.28,217.59,8.79,17.82,1.85,35.6,3.99,53.35,6.36-6.65-.89-13.29-1.79-19.94-2.68,153.95,20.96,304.74,62.16,447.93,122.46l-17.92-7.56c72.11,30.56,142.09,65.85,209.46,105.78,33.78,20.02,83.77,8.75,102.61-26.91,19.09-36.13,9.15-81.24-26.91-102.61-236.83-140.37-504.3-224.01-778.32-247.66-37.01-3.19-74.12-5.2-111.26-5.99-35.42-.76-71.98,2.92-107.17-1.43,6.65.89,13.29,1.79,19.94,2.68-8.2-1.26-15.91-3.18-23.59-6.35l17.92,7.56c-4.27-2.02-8.19-4.28-12.06-6.99,5.06,3.91,10.12,7.82,15.18,11.73-4.4-3.47-8.21-7.23-11.79-11.54l11.73,15.18c-4.74-6.29-8.46-12.89-11.72-20.05,2.52,5.97,5.04,11.94,7.56,17.92-11.56-27.43-17.11-57.66-24.31-86.44-8.13-32.45-16.06-64.95-23.79-97.49-15.29-64.38-29.8-128.95-43.54-193.69-27.46-129.47-51.8-259.6-73-390.24-11.99-73.94-22.96-148.03-32.96-222.27.89,6.65,1.79,13.29,2.68,19.94-33.64-250.83-55.87-503.16-66.34-756.02-2.95-71.2-4.96-142.45-6.07-213.7-.61-39.21-34.06-76.83-75-75s-75.66,32.97-75,75h0Z"/>
  <path class="cls-1" d="M6606.14,8461.71c10.33.39,19.96-1.76,28.9-6.46,9.3-3.02,17.34-8.19,24.14-15.51,7.31-6.79,12.48-14.84,15.51-24.14,4.7-8.94,6.85-18.57,6.46-28.9-.89-6.65-1.79-13.29-2.68-19.94-3.56-12.71-9.99-23.74-19.29-33.1-5.06-3.91-10.12-7.82-15.18-11.73-11.7-6.78-24.32-10.2-37.85-10.24-10.33-.39-19.96,1.76-28.9,6.46-9.3,3.02-17.34,8.19-24.14,15.51-7.31,6.79-12.48,14.84-15.51,24.14-4.7,8.94-6.85,18.57-6.46,28.9.89,6.65,1.79,13.29,2.68,19.94,3.56,12.71,9.99,23.74,19.29,33.1,5.06,3.91,10.12,7.82,15.18,11.73,11.7,6.78,24.32,10.2,37.85,10.24h0Z"/>
  <path class="cls-1" d="M6530.44,8265.44c31.06,252.29,57.44,505.15,79.02,758.42,21.58,253.27,38.41,506.95,50.46,760.86,3.34,70.45,6.32,140.91,8.93,211.39,1.3,35.24,2.52,70.48,3.64,105.73,1.05,33.08,2.83,66.35-1.36,99.29.89-6.65,1.79-13.29,2.68-19.94-2.18,15.17-5.69,29.86-11.31,44.13,2.52-5.97,5.04-11.94,7.56-17.92-6.04,14.26-14.05,27.2-23.43,39.49,3.91-5.06,7.82-10.12,11.73-15.18-29.19,37.37-67.52,65.97-98.71,101.48-21.62,24.62-37.93,49.1-49.33,79.8-10.91,29.4-10.33,65.12-1.03,94.82,11.72,37.38,52.78,65.16,92.26,52.38,37.56-12.16,64.95-52.17,52.38-92.26-1.5-4.79-2.67-9.59-3.48-14.55.89,6.65,1.79,13.29,2.68,19.94-1.03-7.7-1.05-15.27-.02-22.98-.89,6.65-1.79,13.29-2.68,19.94,1.21-7.49,3.33-14.63,6.22-21.65l-7.56,17.92c4.84-11.04,11.26-21.07,18.56-30.64l-11.73,15.18c29.52-37.72,68.76-66.37,99.85-102.69,24.12-28.18,42.74-56.76,54.68-92.12,12.3-36.43,13.92-76.86,13.19-115.04-2.91-151.16-10.64-302.42-18.53-453.38-7.97-152.6-17.67-305.11-29.09-457.49-11.36-151.65-24.43-303.17-39.21-454.52-14.77-151.35-31.25-302.54-49.42-453.53-2.28-18.96-4.59-37.92-6.93-56.88-2.54-20.61-6.69-37.75-21.97-53.03-13.01-13.01-34.35-22.8-53.03-21.97s-39.51,7.24-53.03,21.97c-12.5,13.61-24.34,33.79-21.97,53.03h0Z"/>
  <path class="cls-1" d="M6778.92,10072.17c-.39,48.95-.92,97.89-1.16,146.84-.02,4.93.02,9.86.47,14.77.78,8.61,1.98,17.24,3.42,25.76.45,2.66,1.06,5.3,1.9,7.86,2.59,7.91,6.05,15.75,9.7,23.22,2.42,4.95,6.06,9.07,9.41,13.41,3.04,3.93,6.02,8.36,9.67,11.88,5.92,5.71,12.88,10.65,19.54,15.37,8.65,6.13,19.33,9.68,28.95,13.57,4.18,1.69,8.48,3.03,12.86,4.14,10.31,2.62,20.85,4.35,31.3,6.32,46.36,8.73,92.88,16.52,139.27,25.07s92.5,17.81,138.12,29.5c42.12,10.79,83.77,23.62,124.14,39.82,4.52,1.81,9.02,3.67,13.51,5.56-5.97-2.52-11.94-5.04-17.92-7.56,40.09,16.98,78.87,37.21,115.01,61.54,10.25,6.9,20.26,14.13,30.04,21.68-5.06-3.91-10.12-7.82-15.18-11.73,31.6,24.52,60.42,52.54,84.96,84.16l-11.73-15.18c4.01,5.2,7.91,10.48,11.69,15.85,4.71,8.74,11.15,15.75,19.32,21.04,7.24,6.63,15.75,11.1,25.51,13.42,9.97,3.13,19.94,3.57,29.91,1.34,9.98-.45,19.28-3.42,27.88-8.9,5.06-3.91,10.12-7.82,15.18-11.73,9.3-9.36,15.72-20.39,19.29-33.1.89-6.65,1.79-13.29,2.68-19.94-.04-13.54-3.46-26.16-10.24-37.85-30.67-43.57-66.27-82.5-108.38-115.19-23.45-18.21-47.19-35.59-72.69-50.84-20.2-12.08-41.08-23.03-62.42-32.96-51.17-23.82-104.12-43.21-158.52-58.2-54.35-14.97-109.66-26.12-165.09-36.27-27.89-5.11-55.82-9.96-83.73-14.94-13.95-2.49-27.9-5-41.83-7.59-12.88-2.39-25.88-4.51-38.61-7.59-5.26-1.27-10.43-2.85-15.42-4.95l17.92,7.56c-3.85-1.7-7.49-3.7-10.88-6.21,5.06,3.91,10.12,7.82,15.18,11.73-2.76-2.15-5.19-4.55-7.33-7.31,3.91,5.06,7.82,10.12,11.73,15.18-1.8-2.48-3.27-5.09-4.49-7.91,2.52,5.97,5.04,11.94,7.56,17.92-1.74-4.32-2.78-8.78-3.44-13.39.89,6.65,1.79,13.29,2.68,19.94-1.56-12.37-.8-25.02-.71-37.45l.34-42.8c.22-28.29.45-56.58.67-84.87.39-10.33-1.76-19.96-6.46-28.9-3.02-9.3-8.19-17.34-15.51-24.14-6.79-7.31-14.84-12.48-24.14-15.51-8.94-4.7-18.57-6.85-28.9-6.46-6.65.89-13.29,1.79-19.94,2.68-12.71,3.56-23.74,9.99-33.1,19.29l-11.73,15.18c-6.78,11.7-10.2,24.32-10.24,37.85h0Z"/>
  <path class="cls-1" d="M5999.35,7224.53c46.74,28.07,96.22,51.14,145.71,73.86,49.4,22.68,99.09,45.02,146.4,71.89,25.87,14.69,50.97,30.79,74.54,48.97-5.06-3.91-10.12-7.82-15.18-11.73,27.34,21.22,52.36,45.28,73.61,72.64-3.91-5.06-7.82-10.12-11.73-15.18,19.78,25.69,35.7,53.91,48.36,83.73-2.52-5.97-5.04-11.94-7.56-17.92,26.78,63.87,38.65,132.62,47.87,200.88-.89-6.65-1.79-13.29-2.68-19.94,18.03,134.48,23.98,270.53,17.62,406.07-1.81,38.62-4.64,77.19-8.42,115.67-.39,10.33,1.76,19.96,6.46,28.9,3.02,9.3,8.19,17.34,15.51,24.14,6.79,7.31,14.84,12.48,24.14,15.51,8.94,4.7,18.57,6.85,28.9,6.46,19.4-.87,39.51-7.24,53.03-21.97l11.73-15.18c6.78-11.7,10.2-24.32,10.24-37.85,10.08-102.49,13.2-205.65,9.21-308.56-2-51.63-5.77-103.19-11.31-154.55s-12.55-107.76-23.01-160.87c-9.88-50.22-24.97-98.14-45.86-144.89-19.12-42.79-46.38-81.93-78.27-116.21-29.35-31.55-64.08-58.5-99.93-82.23-31.67-20.96-65.19-38.97-99.23-55.73-69.72-34.32-142-63.47-209.98-101.29-8.23-4.58-16.38-9.29-24.46-14.14-16.57-9.95-39.25-12.67-57.79-7.56-17.4,4.79-36.25,18.24-44.82,34.47-9.2,17.41-13.81,38.49-7.56,57.79,6.06,18.74,17.31,34.52,34.47,44.82h0Z"/>
  <path class="cls-1" d="M6590.68,7533.93c10.33.39,19.96-1.76,28.9-6.46,9.3-3.02,17.34-8.19,24.14-15.51,7.31-6.79,12.48-14.84,15.51-24.14,4.7-8.94,6.85-18.57,6.46-28.9l-2.68-19.94c-3.56-12.71-9.99-23.74-19.29-33.1-5.06-3.91-10.12-7.82-15.18-11.73-11.7-6.78-24.32-10.2-37.85-10.24-10.33-.39-19.96,1.76-28.9,6.46-9.3,3.02-17.34,8.19-24.14,15.51-7.31,6.79-12.48,14.84-15.51,24.14-4.7,8.94-6.85,18.57-6.46,28.9.89,6.65,1.79,13.29,2.68,19.94,3.56,12.71,9.99,23.74,19.29,33.1,5.06,3.91,10.12,7.82,15.18,11.73,11.7,6.78,24.32,10.2,37.85,10.24h0Z"/>
  <path class="cls-1" d="M8315.78,3691.87c-15.73,23.58-32.28,46.59-49.59,69.03l11.73-15.18c-57.26,73.98-122.79,141.26-193.92,201.96-20.04,17.1-40.52,33.68-61.36,49.79,5.06-3.91,10.12-7.82,15.18-11.73-71.88,55.45-148.05,105.13-226.7,150.39-79.81,45.93-162.14,87.37-245.74,125.92-47.03,21.68-94.47,42.45-142.18,62.59l17.92-7.56c-65.04,27.43-130.56,53.7-196.27,79.48-9.76,2.32-18.26,6.8-25.51,13.42-8.16,5.29-14.6,12.3-19.32,21.04-9.41,16.08-13.39,39.77-7.56,57.79,5.87,18.15,17.12,35.66,34.47,44.82,17.67,9.34,38.15,13.36,57.79,7.56,82.49-24.35,165.37-48.7,250.78-60.38l-19.94,2.68c82.71-11.09,166.58-10.36,248.34-28.82,33.14-7.48,65.65-17.7,97.24-30.19,37.15-14.69,73.54-31.18,108.45-50.6,65.09-36.21,125.57-81.2,181.5-130.27,55.69-48.86,106.55-103.01,154.5-159.42,51.79-60.94,100.36-124.56,148.68-188.25,5.66-7.46,11.31-14.92,16.97-22.39-43.17-25.24-86.35-50.47-129.52-75.71-51.61,106.19-103.23,212.38-154.84,318.57-12.22,25.14-23.11,51.67-40.12,74.08l11.73-15.18c-5.57,7.17-11.72,13.8-18.9,19.39,5.06-3.91,10.12-7.82,15.18-11.73-3.99,2.98-8.17,5.54-12.72,7.59,5.97-2.52,11.94-5.04,17.92-7.56-4.02,1.68-8.11,2.86-12.42,3.5l19.94-2.68c-3.97.45-7.84.42-11.8-.09l19.94,2.68c-1.03-.15-2.05-.33-3.06-.55-19.99-3.93-39.75-3-57.79,7.56-15.56,9.1-30.39,26.94-34.47,44.82-4.37,19.2-3.43,40.75,7.56,57.79,10.14,15.72,25.8,30.73,44.82,34.47,21.57,4.24,33.43,4.13,54.73.63,11.98-1.96,23.72-7.34,34.28-12.96,15.89-8.46,30.58-21.38,41.85-35.5,12.44-15.58,23.68-31.11,32.6-48.92,7.92-15.83,15.5-31.85,23.24-47.77,32.42-66.71,64.85-133.42,97.27-200.13,18.2-37.44,36.39-74.88,54.59-112.32,5.48-8.61,8.45-17.9,8.9-27.88,2.23-9.97,1.79-19.94-1.34-29.91-4.79-17.4-18.24-36.25-34.47-44.82-17.41-9.2-38.49-13.81-57.79-7.56-5.97,2.52-11.94,5.04-17.92,7.56-11.27,6.67-20.24,15.64-26.91,26.91-20.53,27.11-41.08,54.22-61.87,81.14l11.73-15.18c-70.3,90.96-143.8,180.12-228.81,257.86-22.4,20.48-45.6,40.07-69.61,58.64,5.06-3.91,10.12-7.82,15.18-11.73-58.25,44.86-121.34,83.56-189.09,112.34,5.97-2.52,11.94-5.04,17.92-7.56-53.57,22.59-109.6,38.53-167.23,46.38l19.94-2.68c-56.43,7.5-113.48,8.53-169.92,15.87-61.93,8.06-122.5,20.68-182.74,37.09-30.91,8.42-61.63,17.48-92.35,26.55,13.29,48.21,26.58,96.43,39.88,144.64,89.11-34.97,177.83-70.93,265.64-109.06,82.48-35.82,164.04-73.86,243.7-115.59s155.76-86.17,229.38-136.13c77.45-52.56,151.9-110.43,220.13-174.58,68.03-63.97,129.26-134.9,183.14-211.16,6.32-8.95,12.52-17.99,18.6-27.1,5.48-8.61,8.45-17.9,8.9-27.88,2.23-9.97,1.79-19.94-1.34-29.91-4.79-17.4-18.24-36.25-34.47-44.82-17.41-9.2-38.49-13.81-57.79-7.56-5.97,2.52-11.94,5.04-17.92,7.56-11.27,6.67-20.24,15.64-26.91,26.91h0Z"/>
  <path class="cls-2" d="M10209.03,2744.33c-88.19.36-176.37.71-264.56,1.07-87.74.35-175.47.71-263.21,1.06-49.49.2-98.98.4-148.48.6v150c46.83-2.73,93.46-8.24,139.81-15.43,39.92-6.19,79.55-14.29,118.7-24.24,39.35-10,78.22-21.88,116.44-35.58,43.72-15.67,86.76-33.58,128.81-53.29,36.76-17.23,72.69-36.22,107.62-56.92,4.3-2.55,8.59-5.13,12.86-7.73,8.74-4.71,15.75-11.15,21.04-19.32,6.63-7.24,11.1-15.75,13.42-25.51,3.13-9.97,3.57-19.94,1.34-29.91-.45-9.98-3.42-19.28-8.9-27.88l-11.73-15.18c-9.36-9.3-20.39-15.72-33.1-19.29l-19.94-2.68c-13.54.04-26.16,3.46-37.85,10.24-41.35,25.16-84.13,47.93-128.09,68.18-12.35,5.69-24.8,11.17-37.32,16.47l17.92-7.56c-40.73,17.18-82.33,32.27-124.61,45.16-42.09,12.83-84.84,23.49-128.02,31.91-24.54,4.78-49.21,8.83-73.99,12.17,6.65-.89,13.29-1.79,19.94-2.68-31.32,4.19-62.79,7.22-94.34,9.06-10.33-.39-19.96,1.76-28.9,6.46-9.3,3.02-17.34,8.19-24.14,15.51-7.31,6.79-12.48,14.84-15.51,24.14-4.7,8.94-6.85,18.57-6.46,28.9.89,6.65,1.79,13.29,2.68,19.94,3.56,12.71,9.99,23.74,19.29,33.1,5.06,3.91,10.12,7.82,15.18,11.73,11.7,6.78,24.32,10.2,37.85,10.24,88.19-.36,176.37-.71,264.56-1.07,87.74-.35,175.47-.71,263.21-1.06,49.49-.2,98.98-.4,148.48-.6,10.33.39,19.96-1.76,28.9-6.46,9.3-3.02,17.34-8.19,24.14-15.51,7.31-6.79,12.48-14.84,15.51-24.14,4.7-8.94,6.85-18.57,6.46-28.9-.89-6.65-1.79-13.29-2.68-19.94-3.56-12.71-9.99-23.74-19.29-33.1-5.06-3.91-10.12-7.82-15.18-11.73-11.7-6.78-24.32-10.2-37.85-10.24h0Z"/>
  <path class="cls-2" d="M7392.48,4122.63c85.09,158.22,189.94,305.23,305.77,442.36,107.32,127.06,226.77,243.68,354.56,350.05,142.17,118.34,292.92,226.32,450.96,322.44,156.46,95.15,319.45,179.29,486.07,255.13,179.54,81.72,362.86,155.27,548.24,222.63,21.69,7.88,43.41,15.67,65.15,23.4,23.26,7.29,46.52,8.33,69.78,3.13,23.29-1.06,44.98-7.98,65.06-20.77,20.39-11,36.76-26.02,49.1-45.07,15.47-16.9,25.91-36.74,31.32-59.51,10.2-44.8,8-95.08-17.64-134.85-9.12-11.81-18.24-23.61-27.36-35.42-21.84-21.69-47.58-36.69-77.22-45.01-141.43-50.26-281.74-103.7-420.06-162.01,13.93,5.88,27.87,11.76,41.8,17.64-135.77-57.33-269.6-119.32-400.2-187.66-130.42-68.24-257.61-142.79-379.84-224.84-62.59-42.02-123.8-86.09-183.46-132.17,11.81,9.12,23.61,18.24,35.42,27.36-148.52-114.96-287.38-242.67-411.38-383.85-35.09-39.95-68.93-80.98-101.48-123.01,9.12,11.81,18.24,23.61,27.36,35.42-78.42-101.54-148.97-209.04-209.75-322.04-11-20.39-26.02-36.76-45.07-49.1-16.9-15.47-36.74-25.91-59.51-31.32-23.26-7.29-46.52-8.33-69.78-3.13-23.29,1.06-44.98,7.98-65.06,20.77-37.37,24.09-70.26,59.96-80.42,104.59-10.68,46.88-5.38,92.05,17.64,134.85h0Z"/>
  <path class="cls-2" d="M7853.7,3953.98c91.82,95.01,192.33,180.5,298.3,259.32,98.02,72.91,201.91,137.93,310.21,194.43,116.95,61.02,239.26,113.07,364.24,155.3,115.75,39.11,234.56,69.15,355.02,89.55,130.52,22.1,262.74,35.36,395.17,36.04,14.99.08,29.99-.01,44.98-.23,32.35-.48,65.39-13.61,88.39-36.61,12.19-11.32,20.8-24.73,25.85-40.23,7.83-14.9,11.41-30.95,10.77-48.16-1.45-32.33-12.07-65.86-36.61-88.39-24.25-22.26-54.7-37.11-88.39-36.61-109.92,1.64-219.85-4.99-328.82-19.5l33.23,4.47c-159.37-21.42-316.38-59.58-467.89-113.44-42.81-15.22-85.17-31.7-127.03-49.35l29.86,12.6c-143.51-60.7-281.02-135.49-409.62-223.51-36.35-24.88-71.95-50.82-106.81-77.74l25.3,19.55c-84.77-65.62-164.85-137.17-239.36-214.26-22.04-22.81-56.9-36.61-88.39-36.61-17.21-.65-33.26,2.94-48.16,10.77-15.5,5.04-28.91,13.66-40.23,25.85-21.87,23.82-38.1,55.1-36.61,88.39,1.5,33.48,12.96,63.92,36.61,88.39h0Z"/>
  <path class="cls-2" d="M8178.6,3622.07c88.51,38.62,178.82,72.61,271.42,100.11,87.07,25.86,175.72,46.36,265.28,61.47,95.35,16.08,191.71,26.98,288.31,31.57,90.72,4.31,181.71,3.14,272.29-3.57,96.37-7.14,192.57-20.14,287.34-39.03,11.14-2.22,22.25-4.54,33.35-6.93,17.79-3.83,35.83-19.1,44.82-34.47s13.39-39.77,7.56-57.79-17.12-35.66-34.47-44.82c-18.42-9.73-37.28-11.98-57.79-7.56-56.3,12.12-113.05,22.01-170.12,29.7,6.65-.89,13.29-1.79,19.94-2.68-154.36,20.62-310.79,25-466.07,13.26-43.67-3.3-87.24-7.9-130.66-13.71l19.94,2.68c-152.71-20.61-303.3-56.66-448.56-108.13-40.52-14.35-80.59-29.92-120.2-46.62l17.92,7.56c-8.22-3.48-16.41-7-24.59-10.57-8.61-5.48-17.9-8.45-27.88-8.9-9.97-2.23-19.94-1.79-29.91,1.34-17.4,4.79-36.25,18.24-44.82,34.47-9.2,17.41-13.81,38.49-7.56,57.79,5.6,17.32,17.01,37.21,34.47,44.82h0Z"/>
  <rect class="cls-3" x="283.46" y="283.46" width="10771.65" height="10771.65" rx="707.4" ry="707.4"/>
</svg>