<?xml version="1.0" encoding="UTF-8"?>
<svg id="_レイヤー_1" data-name="レイヤー 1" xmlns="http://www.w3.org/2000/svg" viewBox="0 0 11338.58 11338.58">
  <defs>
    <style>
      .cls-1 {
        fill: #f2d01e;
      }

      .cls-1, .cls-2, .cls-3 {
        stroke-width: 0px;
      }

      .cls-2 {
        fill: #fff;
      }

      .cls-3 {
        fill: #f5d01f;
      }

      .cls-4 {
        fill: none;
        stroke: #f5d01f;
        stroke-miterlimit: 10;
        stroke-width: 300px;
      }
    </style>
  </defs>
  <ellipse class="cls-1" cx="2802.48" cy="2138.34" rx="1100" ry="871.43"/>
  <path class="cls-1" d="M902.13,2584.69c121.56-133.98,250.6-265.68,378.02-394.26,164.29-165.98,334.36-328.38,502.74-490.11,151.66-162.44,327.62-302.4,527.46-403.61,94.47-47.93,194.28-86.58,296.7-113.73,178.94-47.77,367.57-57.32,550.97-33.84,316.49,40.7,614.5,175.84,871.96,360.27,166.13,118.98,317.08,259.37,451.57,412.97,188.77,215.99,345.86,458.93,471.22,716.65,83.23,172.06,153.26,351.85,207.36,535.15,12.79,43,25.33,88.73,36.21,132.28,0,0,5.58,22.13,5.58,22.13,0,0,5.19,22.24,5.19,22.24,3.39,14.85,6.87,29.65,10.15,44.49,0,0-.95.31-.95.31-30.75-67.88-63.23-138.97-96.03-206.02-45.46-93.76-95.4-189.28-146.45-279.98-188.97-334.89-418.92-649.82-698.43-914.93-303.76-287.42-679.12-527.11-1096.52-596.98-14.26-2.5-32.21-4.75-46.47-6.94-17.77-1.93-39.12-4.88-56.95-6.16-85.77-7.99-172.96-7.24-258.47,1.48-162.95,17.39-318.49,67.38-466.42,141.12-130.84,65.25-253.49,148.39-366.4,241.79-14.15,11.41-29.9,25.45-43.63,36.88,0,0-2.16,1.93-2.16,1.93,0,0-4.32,3.85-4.32,3.85,0,0-8.64,7.7-8.64,7.7,0,0-17.29,15.39-17.29,15.39-2.89,2.55-5.74,5.16-8.66,7.65,0,0-8.94,7.08-8.94,7.08,0,0-35.79,28.27-35.79,28.27-208.4,164.31-420.85,327-635.08,483.66-67.33,49.07-135.71,98.43-203.97,146.3-32.62,23.11-78.89,54.84-112.88,77.72,0,0-.66-.76-.66-.76h0Z"/>
  <path class="cls-1" d="M5217.07,3395.08c77.05,29.11,153.7,63.94,227.68,100.11,140.34,68.98,276.14,147.81,407.61,232.43,75.67,49.29,151.77,101.73,224.54,155.2,31.83,23.84,64.15,47.88,95.45,71.87,34.67,27.29,72.56,57.35,106.84,85.07,38.29,31.86,79.71,66.54,117.38,99.21,32.53,28.78,69.69,61.93,101.92,91.07,40.94,38.6,83.88,78.25,123.83,117.77,31.16,30.92,65.88,65.77,96.5,96.93,31.45,33.02,62.72,66.22,93.82,99.58,49.62,53.84,98.23,109.48,146.53,164.43,47.2,54.79,95.17,113.06,141.27,168.87,11.77,15.18,91.46,114.84,105.37,132.71,250.01,318.73,484.32,654.47,700.34,996.6,200.03,314.8,390.24,648.98,586.44,965.17,114.81,184.64,234.97,369.71,356.83,549.83,455.62,674.46,959.37,1316.66,1488.14,1936.34,99.26,116.84,203.92,237.79,304.22,353.87,14.55,16.87,29.03,33.82,43.46,50.85,0,0-.68.73-.68.73-25.29-19.01-54.64-41.07-80.03-60.51-150.23-115.01-297.76-235.39-441.43-358.48-577.81-494.88-1109.73-1045.57-1586-1639.55-210.98-263.25-411.23-535.85-599.27-816.11-230.78-345.51-458.27-702.42-698.86-1041.33-106.23-151.2-225.74-312.71-337.75-459.98-32.79-42.34-77.1-99.31-109.83-141.67-27.47-34.82-94.33-118.4-121.75-153.1-40.49-49.62-82.97-102.27-122.74-152.45-41.16-50.45-82.44-101.51-122.93-152.57-33.74-42.01-68.16-83.68-101.66-125.89-30.39-36.6-72.19-88.28-102.6-125.24-44.41-53.24-90.02-109.31-134.78-162.3-40.94-49.87-84.24-100.17-125.37-149.9-27.33-31.87-57.46-67.52-84.38-99.78-60.35-70.36-120.67-142.01-181.07-212.35-118.8-139.15-238.5-278.36-356.22-418.45-50.71-60.55-102.04-122.29-150.89-184.47-1.76-2.27-3.55-4.51-5.29-6.81,0,0-5.23-6.9-5.23-6.9,0,0,.59-.8.59-.8h0Z"/>
  <path class="cls-1" d="M902.49,2584.57c155.06-11.91,313.13-4.4,467.11,19.22,98.73,15.14,197.59,37.92,293.04,67.41,199.87,61.87,390.58,155.41,559.18,280.11,157.81,120.04,319.57,252.72,404.59,437.98,9.94,21.23,18.95,42.81,26.78,64.67,0,0,10.87,24.85,10.87,24.85-12.82,132.3-18.38,265.24-22.93,398.04-4.11,119.54-8.02,244.49-10.95,363.95,3.24,142.05,16.16,283.8,35.17,424.74,33.29,244.48,83.61,487.13,149.82,724.8,78.49,283.28,189.68,557.58,325.19,818.02,128.58,246.32,277.12,482.04,454.03,695.65,548.95,667.6,1374.69,1075.55,2227.42,1179.28,873.2,110.81,1766.15-75.8,2542.51-484.88,50.4-26.11,80.6-43.4,126.91-68.72,0,0,119.42,189.65,119.42,189.65,0,0-62.58,42.77-62.58,42.77-5.27,3.45-10.63,7.42-15.7,10.63-24.75,16.18-54.8,35.92-79.52,51.7-16.1,10.46-48.32,29.9-64.44,40.19-24.05,14.87-57.06,33.98-81.53,48.78-5.47,3.2-10.99,6.3-16.49,9.46-19.93,11.56-46.61,26.48-66.16,37.58-6.43,3.97-70.08,37.75-75.27,40.89-12.41,6.37-45.64,23.73-59.18,30.69-647.18,331.88-1377.03,505.17-2105.33,489.82-223.68-4.85-448.04-27.43-668.33-67.74,0,0-76.81-14.99-76.81-14.99-2.49-.49-7.14-1.41-9.59-1.97-32.99-7.31-72.42-15.24-105.16-23.35-1067.85-244.8-2042.47-968.54-2498.16-1976.78-97.8-215.76-172.13-442.45-227.53-672.32-37.96-157.78-68.01-318.71-87.94-479.79-26.68-217.65-35.58-438.21-27.6-657.17,4.94-130.52,14.79-261.22,31.98-390.75,40.9-246.72,93.22-503.18,123.04-751.36,0,0,8.07,54.74,8.07,54.74-47.33-97.23-111.76-180.03-190.17-255.2-66.3-63.46-141.87-130.95-212.96-190.39,0,0-5.66-4.5-5.66-4.5,0,0-22.62-18.08-22.62-18.08-3.78-3.01-7.51-6.08-11.33-9.04,0,0-11.54-8.77-11.54-8.77,0,0-23.07-17.61-23.07-17.61-3.81-3-7.76-5.78-11.67-8.64,0,0-11.76-8.54-11.76-8.54,0,0-11.76-8.55-11.76-8.55,0,0-5.88-4.29-5.88-4.29,0,0-2.94-2.15-2.94-2.15,0,0-2.99-2.07-2.99-2.07,0,0-23.94-16.6-23.94-16.6,0,0-11.98-8.33-11.98-8.33-4.02-2.74-8.1-5.37-12.15-8.07-155.92-104.33-325.89-187.28-502-251.73-89.8-33.09-182.31-61.45-274.91-85.99,0,0-14.81-3.83-14.81-3.83-9.88-2.53-19.77-5.14-29.69-7.55,0,0-14.89-3.71-14.89-3.71-44.87-11.11-89.77-21.27-135.25-31.17,0,0,.07-1,.07-1h0Z"/>
  <ellipse class="cls-3" cx="6079.5" cy="7267.68" rx="2431.45" ry="1125.63"/>
  <rect class="cls-3" x="3452.86" y="4246.38" width="3890.81" height="3848.83" rx="1263.19" ry="1263.19" transform="translate(-2712.79 4974.66) rotate(-40.43)"/>
  <ellipse class="cls-3" cx="3581.55" cy="3951.22" rx="1079.01" ry="2533.86"/>
  <path class="cls-1" d="M4157.38,2150.9c92.61,158.37,185.22,316.74,277.83,475.11,91.88,157.11,184.33,313.91,275.56,471.4,48.34,83.45,95.1,168.01,132.78,256.9-5.88-13.93-11.76-27.87-17.64-41.8,13.24,31.5,25.22,63.47,35.89,95.94,14.47,44.04,30.11,86.52,48.54,129.19,18.17,42.08,44.76,78.33,74.72,113.04,20.5,23.75,44.55,44.06,69.24,63.29,40.4,31.46,81.61,61.82,122.13,93.11-11.81-9.12-23.61-18.24-35.42-27.36,118.96,92.05,232.71,190.77,340.44,295.74,30.43,29.65,60.37,59.81,89.84,90.42v-247.49c-3.84,4.39-7.92,8.33-12.51,11.93,11.81-9.12,23.61-18.24,35.42-27.36-5.22,3.79-10.6,6.84-16.53,9.38,13.93-5.88,27.87-11.76,41.8-17.64-6.82,2.65-13.74,4.39-20.98,5.46,15.51-2.08,31.01-4.17,46.52-6.25-11.54,1.37-22.97.96-34.48-.52,15.51,2.08,31.01,4.17,46.52,6.25-27.38-4.01-53.5-13.45-78.93-24.1,13.93,5.88,27.87,11.76,41.8,17.64-42-17.82-83.05-38-126.27-52.81-28.75-9.85-58.27-17.42-88.18-22.75-75.06-13.36-150.89-20.25-226.87-12.22-76.23,8.06-150.97,21.2-222.59,49.08-70.76,27.55-138.99,59.5-199.82,105.35-38.27,28.85-75.9,58.05-109.07,92.72-33.68,35.21-63.97,74.34-90.99,114.83,106.62,44.95,213.24,89.9,319.86,134.85,34.5-199.91,67.46-400.81,82.82-603.25,15.09-198.92,8.94-399.01-29.89-595.13-22.9-115.68-61.61-225.9-110.5-333.1-11-20.39-26.02-36.76-45.07-49.1-16.9-15.47-36.74-25.91-59.51-31.32-15.51-2.08-31.01-4.17-46.52-6.25-24.09-.91-46.57,4.12-67.42,15.07-14.82,4.16-27.69,11.66-38.61,22.5-19.05,12.34-34.08,28.71-45.07,49.1-5.88,13.93-11.76,27.87-17.64,41.8-8.33,31.01-8.33,62.03,0,93.04,99.76,250.98,199.52,501.97,299.27,752.95,28.04,70.55,56.08,141.09,84.12,211.64,5.41,22.77,15.86,42.61,31.32,59.51,12.34,19.05,28.71,34.08,49.1,45.07,20.09,12.79,41.78,19.71,65.06,20.77,23.26,5.21,46.52,4.17,69.78-3.13,42.34-13.7,83.2-39.94,104.59-80.42,5.88-13.93,11.76-27.87,17.64-41.8,8.33-31.01,8.33-62.03,0-93.04-99.76-250.98-199.52-501.97-299.27-752.95-28.04-70.55-56.08-141.09-84.12-211.64-106.62,44.95-213.24,89.9-319.86,134.85,5.32,11.67,10.48,23.41,15.47,35.23-5.88-13.93-11.76-27.87-17.64-41.8,47.02,112.36,76.88,230.89,93.16,351.47l-6.25-46.52c23.17,174.78,18.59,352,1.44,527.1-4.96,50.66-11.01,101.22-17.76,151.67l6.25-46.52c-14.91,110.77-33.36,221.02-52.37,331.15-7.29,23.26-8.33,46.52-3.13,69.78,1.06,23.29,7.98,44.98,20.77,65.06l27.36,35.42c15.85,17.07,34.62,29.13,56.32,36.18,13.65,7.92,28.37,11.9,44.16,11.95,23.26,5.21,46.52,4.17,69.78-3.13,13.93-5.88,27.87-11.76,41.8-17.64,26.3-15.56,47.22-36.48,62.78-62.78,7.79-11.67,15.96-23.04,24.54-34.14l-27.36,35.42c31.33-40.13,67.71-75.9,107.99-107.01l-35.42,27.36c44.49-34.03,93.15-62.08,144.68-83.99-13.93,5.88-27.87,11.76-41.8,17.64,56.4-23.69,115.65-39.85,176.27-48.04-15.51,2.08-31.01,4.17-46.52,6.25,57.48-7.5,115.66-7.75,173.14-.09l-46.52-6.25c51.45,7.11,101.75,20.53,149.68,40.57-13.93-5.88-27.87-11.76-41.8-17.64,51.74,21.97,102.64,50.39,158.27,61.25,52.78,10.3,92.14,12.11,144.8,1.13,43.07-8.98,91.58-37.51,120.48-70.62,17.07-15.85,29.13-34.62,36.18-56.32,10.96-20.86,15.98-43.33,15.07-67.42-2.1-46.92-18.19-89.41-51.26-123.74-124.45-129.24-257.57-250.07-398.39-361.24-49.82-39.33-100.78-77.09-151.09-115.76l35.42,27.36c-30.14-23.31-59.12-48.14-82.59-78.34,9.12,11.81,18.24,23.61,27.36,35.42-15.89-21.03-28.16-44.07-38.4-68.31,5.88,13.93,11.76,27.87,17.64,41.8-17.88-43.33-30.03-88.77-46.49-132.64-22.2-59.15-47.55-117.39-75.57-174.02-44.46-89.84-95.97-175.98-146.54-262.46-106.57-182.25-213.15-364.5-319.72-546.75-60.27-103.07-120.54-206.13-180.81-309.2-22.21-37.99-62.16-68.74-104.59-80.42-23.26-7.29-46.52-8.33-69.78-3.13-23.29,1.06-44.98,7.98-65.06,20.77-37.37,24.09-70.26,59.96-80.42,104.59-10.47,45.96-6.61,93.38,17.64,134.85h0Z"/>
  <path class="cls-3" d="M1730.01,1864.2c-23.17,6.8-45.51,17.23-67.45,26.92-8.96,3.96-17.68,8.4-26.14,13.33-29.21,17.02-56,39-82.11,60.13-30.43,24.62-58.72,51.97-86.22,79.78-55.02,55.62-106.5,114.64-162.04,169.77-30.99,30.76-63.29,60.24-97.85,86.97,11.81-9.12,23.61-18.24,35.42-27.36-15.41,11.85-31.23,23.12-47.53,33.7-20.39,11-36.76,26.02-49.1,45.07-15.47,16.9-25.91,36.74-31.32,59.51l-6.25,46.52c-.91,24.09,4.12,46.57,15.07,67.42,4.16,14.82,11.66,27.69,22.5,38.61,12.34,19.05,28.71,34.08,49.1,45.07l41.8,17.64c31.01,8.33,62.03,8.33,93.04,0,85.6-21.75,171.2-43.51,256.8-65.26,24.51-6.23,49.03-12.46,73.54-18.69-71.76-40.74-143.51-81.48-215.27-122.23,9.17,27.2,20.48,53.87,33.26,79.56,5.99,12.05,12.79,23.7,20.27,34.89,15.42,23.07,32.73,44.99,50.51,66.26,8.72,10.43,17.98,20.4,27.66,29.95,29.84,29.44,63.73,54.94,97.33,79.79,23.14,17.12,47.28,32.85,71.9,47.76,51.55,31.23,104.99,59.35,157.83,88.3,55.57,30.44,111.01,61.13,165.37,93.69,61.01,36.55,120.63,75.53,177,118.94l-35.42-27.36c28.58,22.08,56.31,45.27,82.8,69.83,26.26,24.34,52.22,49.69,74.28,77.97l-27.36-35.42c11.81,15.33,22.28,31.62,29.97,49.42-5.88-13.93-11.76-27.87-17.64-41.8,4.66,11.15,8.08,22.65,9.88,34.61-2.08-15.51-4.17-31.01-6.25-46.52,1.07,8.05,1.37,16.07.87,24.18,99.58-41.25,199.16-82.5,298.74-123.74-35.15-37.74-77.07-69.14-118.48-99.51-31.62-23.19-64.49-44.67-97.06-66.49-69.63-46.64-139.38-93.08-209.27-139.32-69.89-46.24-139.91-92.29-210.05-138.14-69.29-45.29-138.57-90.63-208.33-135.21-67.34-43.03-135.65-84.8-207.19-120.57-8.8-4.4-17.66-8.7-26.55-12.92-20.09-12.79-41.78-19.71-65.06-20.77-23.26-5.21-46.52-4.17-69.78,3.13-22.77,5.41-42.61,15.86-59.51,31.32-19.05,12.34-34.08,28.71-45.07,49.1-5.88,13.93-11.76,27.87-17.64,41.8-8.33,31.01-8.33,62.03,0,93.04,5.88,13.93,11.76,27.87,17.64,41.8,15.56,26.3,36.48,47.22,62.78,62.78,134.67,63.83,258.37,148.99,382.94,230.13s258.3,169.2,386.79,254.81c35.73,23.8,71.42,47.66,107.08,71.57,33.29,22.32,66.79,44.42,98.57,68.88-11.81-9.12-23.61-18.24-35.42-27.36,23.47,18.17,45.87,37.68,66.12,59.42,11.81,9.12,23.61,18.24,35.42,27.36,13.93,5.88,27.87,11.76,41.8,17.64,15.51,2.08,31.01,4.17,46.52,6.25,24.09.91,46.57-4.12,67.42-15.07,14.82-4.16,27.69-11.66,38.61-22.5,13.15-7.78,23.61-18.24,31.39-31.39,10.84-10.92,18.35-23.79,22.5-38.61,10.96-20.86,15.98-43.33,15.07-67.42.51-8.12.13-16.1-.87-24.18-2.78-22.48-4.39-47.64-11.83-69.83-9.63-28.73-21.83-58.17-38.53-83.8-26.11-40.09-57.91-76.54-91.94-110.06-24.23-23.87-49.65-46.53-75.96-68.09-37.27-30.55-75.62-59.96-114.99-87.76-112.74-79.61-235-144.25-355.77-210.54-61.49-33.75-123.18-67.77-178.84-110.74,11.81,9.12,23.61,18.24,35.42,27.36-31.98-24.84-61.77-52.59-86.63-84.66,9.12,11.81,18.24,23.61,27.36,35.42-16.82-21.92-31.08-45.61-41.9-71.05,5.88,13.93,11.76,27.87,17.64,41.8-2.88-6.9-5.52-13.88-7.9-20.97-5.41-22.77-15.86-42.61-31.32-59.51-12.34-19.05-28.71-34.08-49.1-45.07l-41.8-17.64c-31.01-8.33-62.03-8.33-93.04,0-85.6,21.75-171.2,43.51-256.8,65.26-24.51,6.23-49.03,12.46-73.54,18.69,44.95,106.62,89.9,213.24,134.85,319.86,15.14-9.82,29.89-20.23,44.24-31.17,25.34-19.32,50.74-38.63,74.88-59.45,27.35-23.57,53.33-48.68,78.6-74.45,50.4-51.39,98.04-105.42,148.81-156.45,28.84-28.99,58.55-57.52,90.85-82.65l-35.42,27.36c20.61-15.88,42.49-30.03,66.44-40.34-13.93,5.88-27.87,11.76-41.8,17.64,7.76-3.25,15.65-6.08,23.72-8.45,22.77-5.41,42.61-15.86,59.51-31.32,19.05-12.34,34.08-28.71,45.07-49.1,12.79-20.09,19.71-41.78,20.77-65.06,5.21-23.26,4.17-46.52-3.13-69.78l-17.64-41.8c-15.56-26.3-36.48-47.22-62.78-62.78l-41.8-17.64c-31.01-8.33-62.03-8.33-93.04,0h0Z"/>
  <path class="cls-1" d="M907.97,2584.21c4.43,1.38,9.56-1.55,10.52-6.11h-4.82c.54,1.3,1.08,2.59,1.62,3.89.48,1.15,1.41,1.99,2.74,1.79,1.1-.17,2.32-1.21,2.17-2.46-.14-1.13-.04-2.3.71-3.22l-4.18-2.43c-.49,3.49.48,6.91,3.13,9.33,1.68,1.53,4.08.39,4.27-1.77.24-2.79.47-5.58.71-8.37.11-1.35-1.23-2.5-2.5-2.5-1.48,0-2.35,1.15-2.5,2.5-.47,4.16,1.94,8.44,5.68,10.28,1.56.76,3.92-.13,3.76-2.16-.34-4.3-.68-8.6-1.01-12.9l-4.91.66c.81,4.97,3.16,9.55,6.59,13.22,1.42,1.52,4.43.41,4.27-1.77-.4-5.44-.8-10.87-1.2-16.31-.23-3.17-5.04-3.26-5,0,.08,7.1,2.67,13.84,7.25,19.25.71.84,2.13.92,3.03.39,1.03-.6,1.32-1.71,1.15-2.82-.9-5.96-1.8-11.92-2.7-17.87-.42-2.77-5.14-2.14-4.91.66.54,6.6,2.94,12.66,7,17.88,1.33,1.71,4.4.28,4.27-1.77-.47-7.04-.94-14.07-1.41-21.11-.21-3.18-5.11-3.24-5,0,.3,8.45,2.94,16.72,7.71,23.71,1.67,2.45,4.97.84,4.57-1.93-1.22-8.46-2.45-16.91-3.67-25.37-.19-1.34-1.89-2.07-3.08-1.75-1.44.4-1.93,1.73-1.75,3.08,1.39,9.99,4.79,19.64,9.91,28.33,1.51,2.56,5.05.77,4.57-1.93-.93-5.28-1.87-10.55-2.8-15.83s-1.76-10.43-1.07-15.72h-5c.47,11.27,3.81,22.31,9.75,31.9,1.51,2.43,5.2.84,4.57-1.93-2.61-11.36-3.67-23-3.23-34.65.08-2.12-2.82-3.36-4.27-1.77-4.62,5.09-5.76,12.1-4.59,18.71,1.29,7.32,5.63,13.71,9.8,19.68.64.92,1.69,1.46,2.82,1.15.97-.27,1.96-1.34,1.84-2.41-1.59-13.8-2.14-27.7-1.64-41.57.05-1.35-1.18-2.5-2.5-2.5-1.44,0-2.4,1.15-2.5,2.5-1.07,14.36,1.59,28.79,6.42,42.3,1.07,2.99,5.69,1.82,4.82-1.33-3.44-12.49-5.32-25.32-5.6-38.27h-5c1.17,12.82,3.37,25.53,6.65,37.98.7,2.67,5.07,2.2,4.91-.66-.71-12.87-1.43-25.75-2.14-38.62h-5c.91,13.1,3.29,26.07,7.13,38.62.94,3.07,5.77,1.76,4.82-1.33-3.72-12.13-6.08-24.63-6.96-37.29-.09-1.35-1.08-2.5-2.5-2.5-1.3,0-2.58,1.15-2.5,2.5.71,12.87,1.43,25.75,2.14,38.62l4.91-.66c-3.16-12.02-5.34-24.27-6.47-36.65-.12-1.34-1.06-2.5-2.5-2.5-1.33,0-2.53,1.14-2.5,2.5.28,13.37,2.22,26.7,5.78,39.6l4.82-1.33c-4.7-13.13-7.28-27-6.24-40.97h-5c-.5,13.88.05,27.78,1.64,41.57l4.66-1.26c-3.74-5.34-7.62-10.91-9.08-17.37-1.14-5.07-.52-10.97,3.09-14.95l-4.27-1.77c-.46,12.08.71,24.2,3.41,35.98l4.57-1.93c-5.48-8.85-8.63-18.98-9.07-29.38-.06-1.35-1.11-2.5-2.5-2.5-1.5,0-2.33,1.15-2.5,2.5-.72,5.55.21,11.11,1.17,16.57s1.92,10.87,2.88,16.31l4.57-1.93c-4.91-8.35-8.07-17.55-9.4-27.14l-4.82,1.33c1.22,8.46,2.45,16.91,3.67,25.37l4.57-1.93c-4.28-6.28-6.75-13.58-7.02-21.19h-5c.47,7.04.94,14.07,1.41,21.11l4.27-1.77c-3.18-4.09-5.11-9.2-5.53-14.35l-4.91.66c.9,5.96,1.8,11.92,2.7,17.87l4.18-2.43c-3.7-4.38-5.72-10-5.78-15.71h-5c.4,5.44.8,10.87,1.2,16.31l4.27-1.77c-2.87-3.07-4.63-6.87-5.3-11.01-.45-2.76-5.13-2.14-4.91.66.34,4.3.68,8.6,1.01,12.9l3.76-2.16c-2.34-1.15-3.5-3.39-3.21-5.96h-5c-.24,2.79-.47,5.58-.71,8.37l4.27-1.77c-1.22-1.12-2.08-2.76-1.85-4.47.16-1.12-.1-2.21-1.15-2.82-.89-.52-2.34-.46-3.03.39-1.57,1.92-2.48,4.25-2.17,6.76l4.91-.66c-.54-1.3-1.08-2.59-1.62-3.89-.43-1.04-1.21-1.84-2.41-1.84-1.05,0-2.19.77-2.41,1.84-.43,2.05-2.47,3.21-4.37,2.62-3.08-.96-4.4,3.86-1.33,4.82h0Z"/>
  <path class="cls-1" d="M906.9,2586.1c2.51-.03,5.04.06,7.54-.08s3.75-1.52,5.23-3.29,2.93-3.8,3.66-6.14c.23-.73.27-1.24.84-1.76.74-.67,1.74-1.19,2.59-1.7,3.76-2.23,8-3.28,11.28-6.28,1.32-1.2,2.48-2.56,3.76-3.81.6-.58,1.2-1.15,1.9-1.61.38-.25.78-.5,1.19-.68.11-.08.23-.13.37-.15.54-.11.45-.17-.29-.17,2.77,1.65,5.29-2.68,2.52-4.32-3.83-2.27-8.32,2.41-10.72,4.92-1.25,1.31-2.5,2.69-4.06,3.65-1.95,1.19-4.15,1.88-6.19,2.89s-4.18,2.21-5.89,3.72-1.78,3.77-2.89,5.66c-.54.92-1.19,1.75-1.87,2.56-.38.44-.89,1.29-1.42,1.5-.45.18-1.32.02-1.81.02l-1.91.02-3.82.04c-3.22.03-3.22,5.03,0,5h0Z"/>
  <polygon class="cls-3" points="1202.83 2614.69 928.31 2583.26 1132.48 2347.48 1202.83 2614.69"/>
  <path class="cls-1" d="M9473.43,8791.9c-26.45-15.72-54.91-34.32-80.85-50.84-73.08-47.08-145.54-93.3-220.03-137.09-167.68-99.43-343.27-184.02-527.59-243.75-461.13-152.73-912.92-121.21-1388.79-44.46-28.72,4.46-57.98,8.87-86.85,12.58,0,0-6.06.67-6.06.67,0,0-.6-.8-.6-.8,21.09-47.28,48.12-91.38,77.94-133.51,24.96-35.15,52.9-69.12,81.96-100.86,524.98-567.94,1529.41-534.84,1975.13,115.35,106.34,155.25,176.72,343.77,178.59,533.1.12,13.95-.45,29.03-1.42,42.94,0,0-.54,6.22-.54,6.22,0,0-.89.46-.89.46h0Z"/>
  <path class="cls-2" d="M1573.04,2946.56c172.48,5,345.05-2.62,515.65-29.37,122.23-19.17,243.21-49.62,357.49-97.54,97.56-40.91,187.41-91.65,270.35-157.49,75.34-59.8,135.32-132.74,194.61-207.99,41.47-52.64,83.34-105.14,130.69-152.69,12.21-12.26,24.75-24.18,37.67-35.68,6.12-5.45,12.33-10.81,18.63-16.07,3.63-3.03,7.29-6.03,10.97-8.99,1.39-1.12,2.78-2.23,4.18-3.33,9.56-7.56-2.69,1.63-5.29,4.04,13.07-12.09,29.86-21.86,44.78-31.48,15.93-10.27,32.29-19.87,49.03-28.75s35.53-17.78,53.81-25.56l-17.92,7.56c42.16-17.66,85.37-30.12,130.68-36.47l-19.94,2.68c61.12-8.05,122.77-5.89,183.77,2.13l-19.94-2.68c103.84,14.17,208.82,41.18,305.52,81.92l-17.92-7.56c24.98,10.66,49.49,22.45,73.06,35.98,11.6,6.66,22.98,13.71,34.05,21.21,5.99,4.06,11.85,8.29,17.68,12.57,9.78,7.18-12.12-9.66-5.19-4.05,2.79,2.26,5.6,4.48,8.36,6.78,20.17,16.78,38.35,35.46,54.85,55.84,5.6,6.91-11.18-15.08-4.17-5.25,2.08,2.91,4.17,5.8,6.19,8.76,3.72,5.44,7.26,11,10.64,16.65,7.45,12.48,13.94,25.45,19.72,38.77l-7.56-17.92c11.48,27.41,19.16,55.93,23.14,85.37l-2.68-19.94c4.09,33.05,3.47,66.22-.86,99.21l2.68-19.94c-6.67,47.48-20.7,93.35-39.2,137.5l7.56-17.92c-21.75,51.03-49.13,99.43-80.08,145.42-7.75,11.52-15.73,22.88-23.91,34.1-3.66,5.02-7.36,10-11.1,14.96-2.07,2.74-4.23,5.42-6.24,8.21,13.36-18.55,4.64-6.01,1.65-2.22-17.91,22.72-36.67,44.78-55.66,66.61-75.66,87.01-157.13,168.95-243.41,245.44-39.5,35.02-80.02,68.9-121.47,101.59-4.48,3.54-8.98,7.06-13.49,10.57-4.19,3.26-12.97,9.82,4.72-3.62-2,1.52-3.97,3.06-5.96,4.58-10.32,7.91-20.69,15.74-31.12,23.5-19.25,14.33-38.68,28.4-58.3,42.21-68.85,48.49-139.95,93.86-213.24,135.35-60.43,34.21-122.38,66.09-186.35,93.19l17.92-7.56c-115.56,48.74-239.87,80.2-362.84,103.44-37.53,7.09-75.24,13.17-113.09,18.3,6.65-.89,13.29-1.79,19.94-2.68-41.48,5.56-83.1,9.94-124.83,13.16-20.13,1.55-38.39,7.32-53.03,21.97-13.01,13.01-22.8,34.35-21.97,53.03,1.7,38.05,33.11,78.23,75,75,165.27-12.73,329.51-42.4,488.07-90.89,103.3-31.59,201.38-73.79,296.42-125.05,120.22-64.85,234.76-140.37,343.13-223.45,143.88-110.29,278.01-232.33,398.02-368.37s241.71-305.87,261.8-499.86c9.33-90.11-11.98-185.81-62.47-261.46-48.82-73.15-118.7-128.92-196.79-168.35-77.3-39.03-160.39-65.6-244.32-86.04-97.29-23.7-199.79-40.23-300.11-31.47-52.61,4.59-104.74,14.05-154.2,32.87-44.21,16.82-87.41,36.65-127.88,61.2-68.43,41.49-130.04,94.44-184.21,153.16-82.2,89.12-147.86,192.81-235.23,277.23-14.96,14.46-30.46,28.36-46.44,41.69-3.89,3.25-7.81,6.46-11.76,9.64-2.13,1.71-4.27,3.42-6.41,5.11-2.91,2.3-13.34,10.37-.57.5,13.48-10.42-2.27,1.65-5.79,4.25-4.56,3.39-9.16,6.73-13.79,10.03-39.99,28.51-82.25,53.78-126.02,76.02-23.55,11.97-47.54,23.04-71.86,33.36l17.92-7.56c-96.74,40.8-198.38,69.04-301.45,88.48-34.28,6.46-68.73,11.93-103.29,16.6,6.65-.89,13.29-1.79,19.94-2.68-149.36,19.94-300.39,24.54-450.9,20.17-39.25-1.14-76.78,35.31-75,75s32.95,73.78,75,75h0Z"/>
  <path class="cls-2" d="M3274.96,2159.6c87.32,9.01,175.47,11.01,263.02,4.09,85.2-6.73,170.58-20.36,252.49-45.1,40.93-12.36,80.74-27.86,119.77-45.31,31.72-14.18,62.51-30.49,91.81-49.17,32.91-20.98,64.4-44.83,93.38-70.97s53.13-54.63,76.37-85.23c19.93-26.24,37.12-54.55,51.07-84.4,20.46-43.79,36.42-89.23,45.17-136.82,3.28-17.85,5.63-35.89,7.82-53.89.39-10.33-1.76-19.96-6.46-28.9-3.02-9.3-8.19-17.34-15.51-24.14-6.79-7.31-14.84-12.48-24.14-15.51-8.94-4.7-18.57-6.85-28.9-6.46-19.4.87-39.51,7.24-53.03,21.97-3.91,5.06-7.82,10.12-11.73,15.18-6.78,11.7-10.2,24.32-10.24,37.85-.28,2.33-.58,4.66-.88,6.98l2.68-19.94c-6.01,44.72-17.38,88.61-34.91,130.23l7.56-17.92c-15.64,36.82-35.97,71.43-60.38,103.12l11.73-15.18c-27.34,35.32-59.44,66.69-94.71,94.05l15.18-11.73c-35.92,27.75-74.93,51.33-115.74,71.15-12.1,5.88-24.37,11.42-36.76,16.67l17.92-7.56c-61.94,26.13-126.95,44.59-192.97,57.02-19.71,3.71-39.53,6.87-59.41,9.55,6.65-.89,13.29-1.79,19.94-2.68-84.21,11.25-169.49,13.68-254.29,9.05-25.33-1.38-50.63-3.41-75.86-6.02-10.33-.39-19.96,1.76-28.9,6.46-9.3,3.02-17.34,8.19-24.14,15.51-7.31,6.79-12.48,14.84-15.51,24.14-4.7,8.94-6.85,18.57-6.46,28.9.87,19.4,7.24,39.51,21.97,53.03l15.18,11.73c11.7,6.78,24.32,10.2,37.85,10.24h0Z"/>
  <path class="cls-1" d="M8962.99,8449.19c111.43,91.92,218.83,188.7,321.8,290,102.97,101.3,201.52,207.1,295.3,316.95,52.72,61.76,103.92,124.81,153.58,189.05-9.12-11.81-18.24-23.61-27.36-35.42,67.13,86.93,131.44,176.03,192.72,267.18s119.07,183.6,173.96,278.23c31.09,53.6,61.16,107.8,90.22,162.53,11,20.39,26.02,36.76,45.07,49.1,16.9,15.47,36.74,25.91,59.51,31.32,23.26,7.29,46.52,8.33,69.78,3.13,23.29-1.06,44.98-7.98,65.06-20.77,11.81-9.12,23.61-18.24,35.42-27.36,21.69-21.84,36.69-47.58,45.01-77.22,2.08-15.51,4.17-31.01,6.25-46.52-.1-31.59-8.06-61.03-23.89-88.33-59.72-112.48-123.76-222.66-191.98-330.2s-140.57-212.45-216.82-314.45c-84.67-113.26-172.89-223.93-265.92-330.44-83.77-95.92-171.22-188.63-262.09-277.85-90.87-89.22-185.18-174.94-282.67-256.88-11.78-9.9-23.6-19.74-35.47-29.53-15.85-17.07-34.62-29.13-56.32-36.18-20.86-10.96-43.33-15.98-67.42-15.07-24.09-.91-46.57,4.12-67.42,15.07-21.7,7.06-40.47,19.12-56.32,36.18-9.12,11.81-18.24,23.61-27.36,35.42-15.83,27.29-23.79,56.74-23.89,88.33,2.08,15.51,4.17,31.01,6.25,46.52,8.31,29.65,23.32,55.39,45.01,77.22h0Z"/>
  <path class="cls-1" d="M8985.41,8350.21c89.46,110.83,181.78,219.35,276.88,325.38,95.09,106.03,192.94,209.6,293.41,310.55,100.47,100.96,203.55,199.31,309.11,294.93,105.21,95.3,212.89,187.89,322.89,277.63,120.81,98.56,244.25,194.04,369.98,286.24,14.36,10.53,28.75,21.01,43.17,31.44,20.09,12.79,41.78,19.71,65.06,20.77,23.26,5.21,46.52,4.17,69.78-3.13,22.77-5.41,42.61-15.86,59.51-31.32,19.05-12.34,34.08-28.71,45.07-49.1,5.88-13.93,11.76-27.87,17.64-41.8,8.33-31.01,8.33-62.03,0-93.04-5.88-13.93-11.76-27.87-17.64-41.8-15.56-26.3-36.48-47.22-62.78-62.78-69.84-50.54-138.89-102.16-207.12-154.85,11.81,9.12,23.61,18.24,35.42,27.36-99.35-76.78-196.96-155.81-292.71-237.04-95.39-80.93-188.93-164.04-280.53-249.23-91.6-85.19-181.27-172.46-268.9-261.73-87.96-89.6-173.87-181.22-257.64-274.75-83.46-93.18-164.79-188.27-243.89-285.18-9.78-11.98-19.52-23.98-29.23-36.01-15.85-17.07-34.62-29.13-56.32-36.18-20.86-10.96-43.33-15.98-67.42-15.07-24.09-.91-46.57,4.12-67.42,15.07-21.7,7.06-40.47,19.12-56.32,36.18-9.12,11.81-18.24,23.61-27.36,35.42-15.83,27.29-23.79,56.74-23.89,88.33,2.08,15.51,4.17,31.01,6.25,46.52,8.31,29.65,23.32,55.39,45.01,77.22h0Z"/>
  <path class="cls-1" d="M5227.54,8010.69c-80.43-21.61-165.6-27.44-248.33-18.67s-166.69,28.59-246.24,58.45c-80.19,30.1-157.07,67.73-231.52,109.95-70.6,40.04-139.18,83.5-208.19,126.19-68.95,42.65-138.44,84.6-210.68,121.5-9.1,4.65-18.25,9.21-27.43,13.69-8.74,4.71-15.75,11.15-21.04,19.32-6.63,7.24-11.1,15.75-13.42,25.51-3.13,9.97-3.57,19.94-1.34,29.91.45,9.98,3.42,19.28,8.9,27.88,10.32,16.01,25.7,30.11,44.82,34.47,6.65.89,13.29,1.79,19.94,2.68,13.54-.04,26.16-3.46,37.85-10.24,83.02-40.52,162.23-88.22,240.72-136.8,78.55-48.62,156.61-98.18,237.72-142.47,44.62-24.36,90.14-46.99,136.98-66.77l-17.92,7.56c62.33-26.2,126.83-47.6,193.11-61.28,18.64-3.85,37.4-7.06,56.26-9.62-6.65.89-13.29,1.79-19.94,2.68,58.67-7.83,118.16-8.95,176.91-1.2-6.65-.89-13.29-1.79-19.94-2.68,24.59,3.33,48.93,8.18,72.9,14.62,18.86,5.07,40.89,2.33,57.79-7.56,15.56-9.1,30.39-26.94,34.47-44.82,4.37-19.2,3.43-40.75-7.56-57.79-10.56-16.38-25.61-29.3-44.82-34.47h0Z"/>
  <path class="cls-1" d="M4157.21,8594.2c14.69-.23,29.39.66,43.95,2.6-6.65-.89-13.29-1.79-19.94-2.68,21.61,2.92,42.88,8.14,63.42,15.47,5.78,2.06,11.49,4.29,17.15,6.67l-17.92-7.56c20.39,8.62,39.9,19.28,58.16,31.79,5.18,3.55,10.26,7.25,15.24,11.09l-15.18-11.73c16.81,13,32.38,27.6,46.33,43.64,3.93,4.51,7.72,9.14,11.38,13.87l-11.73-15.18c10.19,13.2,19.32,27.21,27.19,41.91,2.22,4.16,4.34,8.37,6.36,12.62,4.71,8.74,11.15,15.75,19.32,21.04,7.24,6.63,15.75,11.1,25.51,13.42,9.97,3.13,19.94,3.57,29.91,1.34,9.98-.45,19.28-3.42,27.88-8.9l15.18-11.73c9.3-9.36,15.72-20.39,19.29-33.1.89-6.65,1.79-13.29,2.68-19.94-.04-13.54-3.46-26.16-10.24-37.85-5.05-10.63-10.73-20.96-17.02-30.91-9.61-15.21-20.71-29.5-31.97-43.49-14.66-18.22-31.37-34.78-49.63-49.38-14.07-11.25-28.36-22.34-43.55-32.05-9.93-6.35-20.19-12.16-30.73-17.42-5.24-2.61-10.55-5.08-15.92-7.4-11.17-4.83-22.38-9.7-33.8-13.95-10.96-4.07-22.13-7.55-33.47-10.4-17.85-4.48-35.89-6.82-54.12-9.24-11.66-1.55-23.41-2.43-35.17-2.59-2.86-.04-5.71-.03-8.57.01-10.33-.39-19.96,1.76-28.9,6.46-9.3,3.02-17.34,8.19-24.14,15.51-7.31,6.79-12.48,14.84-15.51,24.14-4.7,8.94-6.85,18.57-6.46,28.9.89,6.65,1.79,13.29,2.68,19.94,3.56,12.71,9.99,23.74,19.29,33.1l15.18,11.73c11.7,6.78,24.32,10.2,37.85,10.24h0Z"/>
  <path class="cls-1" d="M4094.93,8415.37c-87.46-10.03-175.76-12.19-263.61-6.58-93.4,5.97-186.76,19.79-277.77,41.69-91.12,21.93-179.29,52.9-265.22,90.18-77.78,33.75-154.7,73.3-224.02,122.38-36.76,26.03-72.64,54.43-102.89,87.97-16.74,18.55-32.35,38.51-45.93,59.5-13.69,21.15-23.88,43.87-33.19,67.25-3.48,8.73-6.45,17.63-8.99,26.67-5.25,18.67-2.22,41.08,7.56,57.79,9.1,15.56,26.94,30.39,44.82,34.47,19.2,4.37,40.75,3.43,57.79-7.56,16.49-10.63,29.06-25.59,34.47-44.82,3.02-10.73,6.68-21.24,10.97-31.52l-7.56,17.92c10.24-24.11,23.83-46.51,39.8-67.25-3.91,5.06-7.82,10.12-11.73,15.18,23.72-30.5,52.08-56.95,82.54-80.62l-15.18,11.73c60.67-46.86,129.09-84.2,198.1-117.17,20.46-9.77,41.14-19.06,62.01-27.9l-17.92,7.56c96.48-40.7,197.13-71.36,299.92-91.35,28.81-5.6,57.77-10.35,86.85-14.29-6.65.89-13.29,1.79-19.94,2.68,95.17-12.77,191.52-16.63,287.39-11,27.3,1.6,54.54,3.98,81.71,7.1,10.33.39,19.96-1.76,28.9-6.46,9.3-3.02,17.34-8.19,24.14-15.51,13.01-13.01,22.8-34.35,21.97-53.03s-7.24-39.51-21.97-53.03l-15.18-11.73c-11.7-6.78-24.32-10.2-37.85-10.24h0Z"/>
  <path class="cls-1" d="M3497.44,8541.11c-28.2,17.8-54.96,37.88-80.77,58.98-21.01,17.17-40.96,35.62-59.75,55.2-23.14,24.11-44.04,50.06-64.15,76.74-16.33,21.66-31.37,44.31-44.98,67.78-13.61,23.47-25.8,47.76-36.42,72.73-3.78,8.87-7.56,17.75-11.21,26.67-3.13,9.97-3.57,19.94-1.34,29.91.45,9.98,3.42,19.28,8.9,27.88,4.71,8.74,11.15,15.75,19.32,21.04,7.24,6.63,15.75,11.1,25.51,13.42,6.65.89,13.29,1.79,19.94,2.68,13.54-.04,26.16-3.46,37.85-10.24l15.18-11.73c9.3-9.36,15.72-20.39,19.29-33.1.95-2.31,1.9-4.62,2.87-6.92l-7.56,17.92c8.75-20.7,18.55-40.95,29.35-60.65s22.6-38.86,35.32-57.38c7.16-10.43,14.62-20.65,22.35-30.67-3.91,5.06-7.82,10.12-11.73,15.18,13.74-17.78,28.35-34.89,43.79-51.23,15.43-16.34,31.67-31.91,48.64-46.63,9.56-8.29,19.35-16.3,29.36-24.03l-15.18,11.73c16.47-12.71,33.53-24.65,51.13-35.76,8.74-4.71,15.75-11.15,21.04-19.32,6.63-7.24,11.1-15.75,13.42-25.51,3.13-9.97,3.57-19.94,1.34-29.91-.45-9.98-3.42-19.28-8.9-27.88-3.91-5.06-7.82-10.12-11.73-15.18-9.36-9.3-20.39-15.72-33.1-19.29-6.65-.89-13.29-1.79-19.94-2.68-13.54.04-26.16,3.46-37.85,10.24h0Z"/>
  <path class="cls-1" d="M3790.32,8542.73c49.5-7.13,98.56-17.21,146.87-30.14,48.12-12.89,95.49-28.6,141.79-46.99,51.98-20.64,103.05-43.62,152.35-70.07,44.06-23.65,86.76-49.84,127.78-78.45,45.9-32.01,90.2-66.66,132.02-103.85,4.53-4.03,9.03-8.09,13.5-12.18,7.31-6.79,12.48-14.84,15.51-24.14,4.7-8.94,6.85-18.57,6.46-28.9.39-10.33-1.76-19.96-6.46-28.9-3.02-9.3-8.19-17.34-15.51-24.14-5.06-3.91-10.12-7.82-15.18-11.73-11.7-6.78-24.32-10.2-37.85-10.24-6.65.89-13.29,1.79-19.94,2.68-12.71,3.56-23.74,9.99-33.1,19.29-25.72,23.53-52.41,45.98-79.97,67.31l15.18-11.73c-34.33,26.52-69.99,51.29-106.83,74.2-36.68,22.81-74.51,43.77-113.28,62.79-21.94,10.76-44.19,20.9-66.7,30.41l17.92-7.56c-39.27,16.56-79.35,31.22-120.06,43.83s-81.68,23.1-123.26,31.54c-23.58,4.79-47.29,8.89-71.1,12.32-9.76,2.32-18.26,6.8-25.51,13.42-8.16,5.29-14.6,12.3-19.32,21.04-5.48,8.61-8.45,17.9-8.9,27.88-2.23,9.97-1.79,19.94,1.34,29.91l7.56,17.92c6.67,11.27,15.64,20.24,26.91,26.91l17.92,7.56c13.29,3.57,26.58,3.57,39.88,0h0Z"/>
  <rect class="cls-4" x="283.46" y="283.46" width="10771.65" height="10771.65" rx="707.27" ry="707.27"/>
</svg>