<?xml version="1.0" encoding="UTF-8"?>
<svg id="_レイヤー_1" data-name="レイヤー 1" xmlns="http://www.w3.org/2000/svg" viewBox="0 0 11338.58 11338.58">
  <defs>
    <style>
      .cls-1 {
        fill: #c67c33;
      }

      .cls-1, .cls-2 {
        stroke-width: 0px;
      }

      .cls-2 {
        fill: #fff;
      }
    </style>
  </defs>
  <ellipse class="cls-1" cx="4096.81" cy="4496.14" rx="1216.02" ry="2792.29" transform="translate(-1601.73 6623.54) rotate(-68.13)"/>
  <path class="cls-1" d="M10683.3,10554.85c-234.83-272.63-473.8-551.36-715.13-818.64-353.42-393.45-717.01-775.28-1092.37-1146.14-255.59-252.7-508.02-504.87-771.55-747.89-160.79-147.91-327.86-294.28-498.28-430.96-294.75-237.07-608.89-452.38-939.81-635.12,0,0-56.67-31.1-56.67-31.1,0,0-7.08-3.89-7.08-3.89-2.36-1.3-4.72-2.6-7.11-3.84-31.71-16.45-68.37-36.39-100.19-52.57-267.98-139.26-547.71-254.09-830.97-358.35-161.92-60.75-326.32-119.61-489.72-176.87-103.26-36.16-207.5-72.18-311.07-107.5-47.99-16.63-97.45-33.14-145.39-49.8-49.75-16.63-104.59-35.7-154.49-52.54-72.67-25.36-151.59-51.64-224.12-77.38,0,0-8.05-2.86-8.05-2.86,0,0-4.03-1.43-4.03-1.43,0,0-4.04-1.37-4.04-1.37,0,0-16.16-5.48-16.16-5.48,0,0-16.16-5.67-16.16-5.67-40.82-14.32-88.75-31.45-129.85-46.13,0,0-8.15-2.93-8.15-2.93,0,0-8.15-3.02-8.15-3.02,0,0-16.32-6.04-16.32-6.04-10.9-4.07-21.82-7.88-32.71-12,0,0-32.78-12.18-32.78-12.18,0,0-16.42-6.09-16.42-6.09,0,0-8.22-3.05-8.22-3.05,0,0-4.11-1.52-4.11-1.52-44.59-17.58-84.63-32.11-127.95-50.91,0,0-8.29-3.67-8.29-3.67,0,0,.06-1,.06-1,0,0,8.64-2.6,8.64-2.6,13.09-3.9,46.35-12.71,60.57-16.3,24.47-6.36,49.14-11.83,73.79-17.26,15.97-3.08,48.53-9.66,65.28-12.9,35.84-7.12,77.19-13.17,113.56-18.73,43.91-6.31,91.7-11.77,135.91-16.35,31.49-2.81,69.22-5.94,101.1-8.22,93.48-5.9,188.28-8.54,281.94-6.92,87.89,1.28,176.73,5.93,264.22,13.47,654.63,52.93,1282.56,295.41,1854.03,612.72,28.4,15.59,79.6,45.21,108.03,61.54,27.09,15.87,79.16,47.16,106.74,63.75,20.9,12.62,70.38,44.31,90.35,56.5,23.67,15.28,72.64,47.19,96.72,62.94,53.73,36.09,114.88,78.08,167.85,115.91,371.49,265.13,711.21,574.23,1025.29,904.81,291.2,307.05,565.05,631.55,832.63,958.16,50.8,61.64,121.9,152.06,171.36,214.58,31.98,41.65,82.76,107.04,115.17,149.48,0,0,10.32,13.7,10.32,13.7,0,0,82.21,109.83,82.21,109.83,39.57,52.66,82.84,113.29,121.33,166.1,33.62,46.33,48.88,68.98,79.33,111.79,209.32,297.5,408.38,606.71,590.44,921.7,45.29,78.37,90.63,158.73,133.69,238.37,0,0,16.25,30.04,16.25,30.04,0,0,16.15,30.09,16.15,30.09,10.84,20.01,21.26,40.29,31.84,60.45,10.53,20.2,20.98,40.43,31.34,60.72,0,0-.83.56-.83.56h0Z"/>
  <path class="cls-1" d="M3969.75,2654.19c3.52-.18,14.47-.51,17.58-.67,1.15-.01,2.24.04,3.36.06,0,0,6.69.15,6.69.15,0,0,26.79.61,26.79.61,12.43,0,26.88,1.29,39.17,2.24,0,0,6.44.49,6.44.49,2.13.15,4.4.31,6.39.55,0,0,24.96,2.96,24.96,2.96,12.7,1.3,35.66,5.08,48.82,7.36,11.18,1.38,57.68,11.51,70.69,14.35,16.06,4.51,47.54,12.57,61.92,16.83,18.2,5.47,41.92,13.28,59.78,19.58,4.34,1.54,26.35,9.94,31.65,11.89,11.58,4.56,24.61,10.03,36.23,14.74,14.26,6.32,31.6,13.71,45.37,20.46,5.48,2.76,19.94,9.52,24.73,11.96,7.44,3.8,25.93,13.51,33.9,17.61,101.54,54.29,193.71,121.59,278.47,198.45,24.97,22.64,71.95,64.28,95.08,85.19,69.83,63.19,150.49,137.07,219.66,201.15,477.27,443.89,935.19,910.84,1368.23,1398.03,749.14,843.13,1421.96,1753.33,2078.52,2669.27,699.06,982.81,1374.04,1986.49,2018.76,3005.84,99.71,158.8,213.59,340.42,311.18,501,0,0-.81.58-.81.58-51.46-60.92-110.55-132.05-162-194.1-1011.73-1226.99-2005.83-2493.17-3010.74-3725.44-386-472.68-778.86-949.19-1181.75-1407.38-246.47-279.83-501.13-556.06-760-824.42-369.49-382.99-752.78-755.04-1145.96-1113.61-39.36-35.55-98.7-89.61-138.61-125.17-22.13-20.09-98.43-87.13-123.09-111.39-96.56-92.86-181.31-199.39-248.82-315.76,0,0-10.87-19.35-10.87-19.35,0,0-5.43-9.69-5.43-9.69,0,0-5.24-9.92-5.24-9.92,0,0-10.53-19.8-10.53-19.8,0,0-10.14-20.28-10.14-20.28,0,0-2.54-5.07-2.54-5.07,0,0-1.27-2.54-1.27-2.54,0,0-1.2-2.62-1.2-2.62,0,0-4.77-10.51-4.77-10.51,0,0-19.13-42.07-19.13-42.07,0,0-17.68-43.93-17.68-43.93-3.08-7.18-5.6-15.03-8.33-22.63,0,0-8.09-22.95-8.09-22.95-2.82-7.51-5.12-15.65-7.58-23.6,0,0-7.37-23.89-7.37-23.89-.32-.98-.61-2-.87-3.05,0,0-.83-3.1-.83-3.1,0,0-1.66-6.21-1.66-6.21,0,0-3.32-12.42-3.32-12.42-1.09-4.16-2.25-8.24-3.29-12.46,0,0-2.78-13.09-2.78-13.09,0,0-5.58-26.19-5.58-26.19,0,0-1.4-6.55-1.4-6.55-.23-1.1-.48-2.17-.68-3.3,0,0-.53-3.48-.53-3.48,0,0-2.12-13.94-2.12-13.94,0,0,.64-.77.64-.77h0Z"/>
  <ellipse class="cls-1" cx="2939.45" cy="3028.42" rx="1180.62" ry="1682.35" transform="translate(-1250.12 3537.55) rotate(-52.78)"/>
  <path class="cls-1" d="M1484.4,1776.77c275.3-145.96,536.79-316.33,782.62-507.73,69.03-53.74,136.67-109.24,202.96-166.33-27.86-7.35-55.71-14.71-83.57-22.06.74,2.49,3.95,19.92,2.58,7.41.62,5.66.26,11.24.52,16.89-.51,5.85-.33,5.63.53-.65-.43,2.8-.96,5.57-1.59,8.33-1.26,5.54-2.98,10.92-4.91,16.26,3.91-10.79-2.91,5.06-4.17,7.17-1.44,2.43-2.97,4.81-4.59,7.14,3.65-4.42,3.66-4.45.03-.09-3.9,4.13-7.74,8.12-12.01,11.89,8.27-7.31-5.11,2.93-7.3,4.18,16.82,28.78,33.65,57.56,50.47,86.35,20.43-14.39,41.54-27.73,63.43-39.79,10.2-5.62,20.55-10.97,31.03-16.05,5.99-2.91,12.02-5.72,18.09-8.45,3.04-1.36,6.08-2.7,9.14-4.02-4.29,1.79-3.66,1.54,1.87-.74,44.92-17.92,91.3-31.6,138.91-40.19,6.56-1.18,13.14-2.18,19.72-3.27,10.72-1.77-5.31.45,6.51-.92,13.24-1.54,26.49-2.86,39.79-3.73,23.26-1.51,46.59-1.86,69.88-1.03,13.3.48,26.6,1.34,39.85,2.59,4.97.47,9.93,1.06,14.89,1.57,6.09.77,6.61.81,1.56.12,3.3.46,6.59.94,9.88,1.45,24.69,3.82,49.11,9.12,73.23,15.63-9.96-24.48-19.92-48.97-29.88-73.45,5.35-6.99-4.23,4.9-4.36,5.05-2.63,3.08-5.33,6.11-8.07,9.09-6.04,6.56-12.35,12.87-18.9,18.91-5.95,5.49-12.1,10.81-18.47,15.81,6.92-5.43-5.29,3.72-5.46,3.83-3.31,2.33-6.68,4.6-10.08,6.81-14.3,9.3-29.28,17.34-44.77,24.47-7.97,3.67,1.15-.3-3.75,1.53-3.8,1.42-7.57,2.88-11.41,4.21-9.2,3.19-18.53,5.89-27.97,8.3,12.84,30.46,25.69,60.92,38.53,91.39,18.03-11.32,36.68-21.57,56.04-30.45.2-.09,14.39-6.28,6.04-2.79,4.53-1.89,9.1-3.67,13.69-5.4,9.95-3.75,20.01-7.18,30.18-10.29,19.56-5.98,39.48-10.78,59.62-14.38,5.64-1.01,11.3-1.92,16.97-2.74,3.61-.52,3.24-.47-1.12.17,2.44-.3,4.88-.57,7.32-.83,10.59-1.13,21.21-1.94,31.84-2.41,20.45-.91,40.95-.63,61.38.86,5.72.42,11.42.92,17.12,1.53,1.97.21,15.92,2.1,6.19.67,9.71,1.43,19.39,3.1,29,5.08,20.82,4.27,41.38,9.85,61.48,16.77,9.27,3.19,18.49,6.61,27.53,10.41-8.24-3.47,4.46,2.11,6.04,2.84,5.95,2.76,11.81,5.66,17.66,8.64-3.37-26.18-6.75-52.35-10.12-78.53-4.04,3.91-8.13,7.75-12.37,11.44-1.38,1.2-13.8,10.93-6.76,5.73-7.74,5.72-15.78,11.03-24.06,15.93-8.98,5.32-18.26,10.07-27.75,14.42-3.21,1.43-2.92,1.33.88-.29-2.98,1.2-5.97,2.36-8.99,3.46-4.52,1.66-9.08,3.21-13.68,4.64-9.2,2.86-18.53,5.29-27.97,7.24-1.85.38-16.93,3.03-12.33,2.34s-10.58,1.02-12.49,1.15c-9.6.68-19.23.87-28.85.57-4.81-.15-9.61-.43-14.41-.83-3.2-.27-6.39-.6-9.57-.98,5.34.72,5.01.61-1-.32v96.43c19.41-6.29,39.08-11.68,59.04-15.94,9.19-1.96,18.44-3.7,27.72-5.22,2.32-.38,4.64-.74,6.97-1.09,1.36-.21,11.1-1.49,4.99-.74-5.59.69,2.14-.22,2.68-.28,3.12-.33,6.23-.69,9.35-1,40.57-4.03,81.54-3.95,122.11.07,4.69.46,9.36,1,14.04,1.55,9.72,1.14-4.29-.78,5.37.77s20.13,3.31,30.14,5.33c20.01,4.04,39.82,9.03,59.34,14.98,9.76,2.97,19.45,6.17,29.05,9.61,4.43,1.59,8.85,3.22,13.24,4.91,2.2.84,4.39,1.7,6.58,2.57.8.32,9.47,3.81,4.92,1.93-4.81-1.98,2.34,1.01,2.69,1.16,2.15.95,4.3,1.9,6.45,2.86,5,2.25,9.98,4.57,14.92,6.95,9.17,4.43,18.24,9.09,27.18,13.97,19.94,10.89,39.28,22.89,57.85,35.98,4.48,3.16,8.89,6.42,13.31,9.67s0-.09-.77-.68c2.48,1.92,4.93,3.88,7.37,5.85,9.78,7.89,19.25,16.13,28.51,24.61v-70.71c-2.06,2.12-5.54,4.59-7.27,7.03-2.84,4,6.44-3.56-1.04.74-2.89,1.66-5.76,3.42-8.61,5.14-2.28,1.38-10.88,4.44-.81.87-5.74,2.04-11.47,3.7-17.35,5.27-5.5,1.47-7.53,1.22-.67.56-3.36.33-6.72.58-10.1.68-6.09.19-12.14-.14-18.19-.75,11.55,1.16,1.97.11-.63-.63-3.19-.91-6.47-1.94-9.71-2.67-8.82-2,3.46,2.64-1.14-.1-2.85-1.7-6.03-2.95-8.9-4.62-2.3-1.34-4.45-3.05-6.79-4.3,8.66,4.64.12-.04-2.41-2.36-16.22,27.86-32.43,55.71-48.65,83.57,53.63,11.11,106.46,25.71,158.12,43.91,12.33,4.34,24.59,8.89,36.77,13.62,6.85,2.66,13.68,5.39,20.49,8.18,3.02,1.24,6.05,2.48,9.06,3.75-6.41-2.7,1.3.6,3.83,1.7,24.72,10.76,49.1,22.33,73.07,34.68,48.67,25.08,95.7,53.36,140.67,84.6,10.74,7.46,21.36,15.09,31.86,22.88,2.62,1.95,5.24,3.91,7.85,5.88.85.64,8.9,6.76,4.68,3.53s3.78,2.95,4.62,3.61c3.21,2.53,6.41,5.06,9.6,7.62,21.67,17.39,42.76,35.49,63.2,54.3,45.72,42.07,88.09,87.62,126.89,136.14,7.35-27.86,14.71-55.71,22.06-83.57-6.04,1.01-6.49,1.08-1.38.21-2.46.24-4.92.4-7.38.5-4.93.24-9.86.27-14.8.09-2.01-.07-18.32-1.86-8.8-.38-4.87-.76-9.72-1.77-14.51-2.96s-9.54-2.58-14.22-4.14c-1.33-.45-13.89-5.79-6.38-2.28-10.48-4.89-20.27-10.86-29.66-17.59-12.84,30.46-25.69,60.92-38.53,91.39,23.19,5.01,46.08,11.22,68.57,18.8,10.52,3.55,20.94,7.38,31.25,11.48,2.67,1.06,14.89,6.42,6.5,2.62,6.07,2.75,12.17,5.4,18.2,8.24,42.23,19.91,82.17,44.41,119.38,72.58-7.34-5.56,5.01,4.02,7.36,5.93,4.6,3.74,9.16,7.54,13.66,11.4,9.01,7.72,17.82,15.68,26.43,23.85,16.67,15.84,32.54,32.52,47.54,49.94,7.25,8.43,14.33,17.02,21.15,25.8-5.66-7.28,3.78,5.19,5.56,7.64,3.93,5.39,7.77,10.84,11.53,16.35,12.96,18.95,24.95,38.55,35.88,58.74,6.34,11.71,12.32,23.62,17.93,35.7,1.25,2.68,2.47,5.38,3.68,8.08.48,1.08,5.26,12.09,2.78,6.25s1.21,3,1.72,4.28c1.38,3.43,2.73,6.88,4.05,10.33,9.52,24.93,17.33,50.46,23.62,76.4l61.51-61.51c-201.46-62.63-410.37-101.11-620.86-115.2-58.87-3.94-117.86-5.83-176.87-5.85-26.15,0-51.21,23-50,50s21.97,49.99,50,50c206.64.07,403.56,23.12,603.4,71.19,56.41,13.57,112.34,29.06,167.75,46.29,37.62,11.7,70.17-25.77,61.51-61.51-48.21-198.93-189.97-373.12-372.27-465.24-52.08-26.32-107.3-46.7-164.36-59.03-24.55-5.31-49.01,5.3-58.99,28.95s-.06,47.72,20.46,62.44c50.79,36.42,113.41,46.72,174.17,36.65,16.67-2.76,30.67-19.47,34.92-34.92,5.15-18.69-1.37-34.28-12.86-48.65-143.48-179.45-336.78-316.03-551.38-396.97-59.66-22.5-121.01-40.22-183.44-53.15-21.07-4.36-45.74,2.68-56.47,22.98-10.09,19.1-8.94,45.23,7.82,60.59,65.41,59.95,172.47,59.71,235.06-4.86,18.18-18.75,20.21-52.21,0-70.71-133.58-122.27-318.19-186.34-498.97-172.62-51.37,3.9-102.35,13.18-151.38,29.08-20.24,6.56-37.71,25.73-36.71,48.21.91,20.41,14.67,44.55,36.71,48.21,107.8,17.9,217.61-13.69,296.64-90.21,22.12-21.41,18.52-63.95-10.12-78.53-171.39-87.22-384.4-80.3-547.93,22.32-47.7,29.93-17.3,105.67,38.53,91.39,86.41-22.1,159.16-73.65,213-143.97,20.03-26.16-1.81-65.86-29.88-73.45-207.46-56.06-438.85-17.11-614.85,106.9-21.33,15.03-33.43,44.38-17.94,68.41,14.76,22.9,44.13,31.89,68.41,17.94,65.3-37.52,98.43-119.09,76.85-191.45-11.3-37.88-55.2-46.5-83.57-22.06-230.13,198.18-475.36,374.61-738.97,531.31-74.4,44.23-149.9,86.57-226.37,127.12-23.14,12.27-32.15,46.36-17.94,68.41,15.17,23.53,43.66,31.06,68.41,17.94h0Z"/>
  <path class="cls-1" d="M526.57,1897.43c93.99-80.77,204.91-142.11,321.84-182.78,188.87-65.83,396.4-76.15,591.44-32.34,0,0,7.75,1.73,7.75,1.73,0,0,1.94.43,1.94.43,2.12.38,3.82,1.29,5.37,3.05,2.12,2.41,3.9,6.16,5.13,11.9.29,1.39.66,3.2.83,4.64.89,6.55,1.12,13.19.84,19.85,0,0-5.1,19.34-5.1,19.34-.7,1.41-1.31,2.52-1.95,3.71-.48.86-1.28,2.35-1.81,3.2-2.71,4.8-5.88,9.59-9.36,13.82-3.7,4.49-6.85,6.99-9.66,8.14-2.65,1.2-4.97.54-7.51-.15-140.23-35.56-287.26-44.81-430.95-27.77-10.19,1-33.73,4.61-44.1,5.98-12.13,1.99-24.47,4.23-36.61,6.31-10.71,1.94-25.78,5.29-36.47,7.41,0,0-3.65.75-3.65.75,0,0-3.62.86-3.62.86-11.09,2.73-25.24,5.83-36.27,8.76-20.86,5.48-51.49,14-71.9,20.85-81.84,26.2-160.67,61.3-236.18,102.29h0Z"/>
  <path class="cls-1" d="M526.79,1896.98c126.26,39.25,251.45,80.54,378.63,116.16,110.05,31.34,220.66,59.47,332.29,84.13,0,0,5.97,1.3,5.97,1.3l2.99.64c13.64,2.55,20.71,16.32,25.01,29.78,2.3,7.33,3.88,14.99,4.77,22.68,0,0-.2.98-.2.98-.69,1.2-1.65,2.83-2.4,3.98-2.65,4.4-5.77,8.51-8.94,12.46-9.64,11.51-23,23.02-37.74,19.24-35.78-7.9-71.57-16.55-106.94-26.14-80.85-21.77-160.77-48.17-238.61-78.99-93.38-37.07-184.16-80.42-270.68-131.38-28.78-17.01-57.13-34.73-84.58-53.94,0,0,.44-.9.44-.9h0Z"/>
  <path class="cls-1" d="M1251.41,2175.44c3.22,0,3.22-5,0-5s-3.22,5,0,5h0Z"/>
  <path class="cls-1" d="M1215.63,2126.36c-1.38,7.01-2.49,14.19-2.71,21.35-.09,2.81.07,5.62.42,8.41,1.24,10.05,2.3,19.68,5.89,29.13s7.44,18.54,12.31,27.22c2.87,5.11,6.02,10.07,9.27,14.94,12.15,18.21,24.71,36.18,37.54,53.93,15.13,20.94,30.81,41.56,47.52,61.27,13.99,16.5,28.87,32.28,44.97,46.75,11.02,9.9,22.67,19.03,34.51,27.92,8.56,6.43,17.43,12.44,26.61,17.96,2.28,1.37,4.57,2.71,6.89,4.01,5.74,3.65,11.94,5.63,18.59,5.93,6.65,1.49,13.29,1.19,19.94-.89,6.51-1.55,12.17-4.53,17-8.95,5.44-3.53,9.74-8.2,12.88-14.03l5.04-11.94c2.38-8.86,2.38-17.72,0-26.58l-5.04-11.94c-4.45-7.51-10.42-13.49-17.94-17.94-12.97-7.33-25.35-15.65-37.14-24.75l10.12,7.82c-12.74-9.85-24.78-20.59-36.2-31.95-11.46-11.41-22.29-23.43-32.64-35.83-5.92-7.09-11.68-14.3-17.32-21.6l7.82,10.12c-10.06-13.04-19.75-26.36-29.24-39.82s-19.05-27.1-28.19-40.89c-5.53-8.34-10.75-16.94-14.67-26.17l5.04,11.94c-2.49-5.95-4.41-12.12-5.3-18.52l1.79,13.29c-.61-4.6-.66-9.23-.06-13.84l-1.79,13.29c.14-1.02.31-2.04.51-3.06,2.08-6.65,2.38-13.29.89-19.94-.3-6.65-2.28-12.85-5.93-18.59-3.14-5.83-7.43-10.5-12.88-14.03-4.83-4.42-10.5-7.4-17-8.95l-13.29-1.79c-9.03.03-17.44,2.3-25.24,6.83l-10.12,7.82c-6.2,6.24-10.48,13.59-12.86,22.06h0Z"/>
  <path class="cls-1" d="M4902,5931.38c-73.03,77.94-136.28,164.77-194.61,254.07-56.68,86.78-109.01,176.28-163.68,264.32-26.77,43.11-54.53,85.66-85.57,125.84l7.82-10.12c-32.28,41.63-68.14,80.77-109.85,113.15,3.37-2.61,6.75-5.21,10.12-7.82-26.3,20.26-54.74,37.57-85.31,50.6l11.94-5.04c-32.99,13.87-67.57,21.56-102.95,26.35l13.29-1.79c-44.26,5.88-88.97,8.68-132.85,17.24-40.16,7.83-79.2,20.47-117.42,34.93-39.55,14.96-79.24,30.79-117.58,48.64-36.54,17.02-70.75,41.03-92.17,75.93-28.31,46.14-27.75,108.2.17,154.33,6.57,10.86,17.57,19.59,29.88,22.98s27.91,1.81,38.53-5.04c22.48-14.49,32.43-44.47,17.94-68.41-2.52-4.17-4.73-8.46-6.66-12.93l5.04,11.94c-3.47-8.48-5.77-17.21-6.99-26.29l1.79,13.29c-1.06-9.11-1-18.15.19-27.25l-1.79,13.29c1.26-8.45,3.46-16.59,6.68-24.5l-5.04,11.94c3.31-7.7,7.5-14.8,12.52-21.51l-7.82,10.12c6.74-8.7,14.6-16.28,23.26-23.06l-10.12,7.82c20.31-15.52,43.7-26.12,67.12-36.02l-11.94,5.04c75.79-31.92,152.19-63,234.2-74.23l-13.29,1.79c43.16-5.79,86.73-8.57,129.58-16.56,37.49-7,73.53-19.86,107.5-37.18,60.04-30.61,112.04-77.08,155.74-127.93,45.42-52.84,84.23-110.86,120.91-169.96,40-64.45,78.76-129.66,118.91-194.03,39.86-63.9,81.11-127.02,126.19-187.39,5.72-7.66,11.51-15.27,17.35-22.84l-7.82,10.12c27.6-35.68,56.64-70.23,87.49-103.15,8.95-9.55,14.64-22.1,14.64-35.36,0-12.26-5.45-26.91-14.64-35.36-9.53-8.75-22.04-15.24-35.36-14.64s-26.21,4.88-35.36,14.64h0Z"/>
  <path class="cls-1" d="M4870.85,5985.79c-62.18,75.36-119.84,154.51-171.79,237.26-50,79.65-94.82,162.55-134.09,248-23.67,51.51-45.52,103.9-65.39,156.99-4.13,11.04-1.23,28.8,5.04,38.53,7.31,11.33,17.06,18.59,29.88,22.98s24.4,8.83,36.36,13.88l-11.94-5.04c44.56,18.94,86.46,43.68,124.83,73.18l-10.12-7.82c39.92,30.86,75.79,66.72,106.72,106.58l-7.82-10.12c30.49,39.52,55.97,82.75,75.42,128.73l-5.04-11.94c9.66,23.01,17.79,46.62,24.27,70.72,3.26,12.1,12.19,23.57,22.98,29.88,10.72,6.27,26.51,8.93,38.53,5.04,12.1-3.92,23.77-11.41,29.88-22.98s8.62-25.24,5.04-38.53c-20.04-74.49-54.89-145.8-101.55-207.23-24.54-32.31-50.97-62.76-81.02-90.1-30.01-27.3-62.71-52.17-97.29-73.4-38.47-23.63-79.97-42.67-122.66-57.28,11.64,20.5,23.28,41,34.92,61.51,10.43-27.87,21.43-55.53,32.99-82.95l-5.04,11.94c28.37-67.17,60.09-132.91,95.06-196.89,34.97-63.98,73.16-126.2,114.38-186.34,23.22-33.88,47.41-67.08,72.51-99.59l-7.82,10.12c14.2-18.36,28.69-36.5,43.46-54.41,8.67-10.51,14.64-21.25,14.64-35.36,0-12.26-5.45-26.91-14.64-35.36-9.53-8.75-22.04-15.24-35.36-14.64-12.51.56-27.05,4.57-35.36,14.64h0Z"/>
  <path class="cls-1" d="M4478.23,6637.04c-5.45,9.94-11.69,19.41-18.61,28.39l7.82-10.12c-11.95,15.44-25.8,29.29-40.7,41.87-4.25,3.59-8.59,7.07-12.99,10.47,3.37-2.61,6.75-5.21,10.12-7.82-22.27,17.18-46.13,32.15-70.13,46.77s-48.94,29.34-72.54,45.38c-14.96,10.17-29.44,21.05-43.5,32.43-10.88,8.81-21.31,18.2-30.99,28.32-5.6,5.85-10.94,11.96-15.99,18.3-7.7,9.67-15.29,19.48-22.11,29.81-9.13,13.83-17,28.49-23.53,43.72-8.23,19.2-15.67,38.42-20.41,58.8-1.89,8.12-3.42,16.33-4.56,24.59-1.73,12.48-3.44,24.92-4.04,37.51-.2,4.11-.29,8.22-.3,12.34-.26,6.88,1.18,13.31,4.31,19.26,2.02,6.2,5.46,11.56,10.34,16.09,4.53,4.88,9.89,8.32,16.09,10.34,5.96,3.13,12.38,4.57,19.26,4.31,4.43-.6,8.86-1.19,13.29-1.79,8.47-2.38,15.82-6.66,22.06-12.86,2.61-3.37,5.21-6.75,7.82-10.12,4.52-7.8,6.8-16.21,6.83-25.24.03-11.89.85-23.76,2.42-35.54l-1.79,13.29c3.33-24.48,9.94-48.44,19.53-71.21l-5.04,11.94c9.29-21.9,21.3-42.58,35.82-61.43l-7.82,10.12c12.86-16.62,27.68-31.55,43.74-45.08,4.34-3.66,8.77-7.21,13.26-10.68l-10.12,7.82c16.31-12.58,33.46-24.02,50.89-34.99,17.54-11.04,35.37-21.61,53.04-32.44,17.44-10.69,34.75-21.63,51.37-33.56,19.47-13.96,38.62-28.81,55.61-45.76,6.99-6.97,13.61-14.32,19.74-22.06,8.73-11.03,17.28-22.15,24.47-34.25,1.27-2.13,2.49-4.29,3.69-6.47,3.65-5.74,5.63-11.94,5.93-18.59,1.49-6.65,1.19-13.29-.89-19.94-1.55-6.51-4.53-12.17-8.95-17-3.53-5.44-8.2-9.74-14.03-12.88l-11.94-5.04c-8.86-2.38-17.72-2.38-26.58,0l-11.94,5.04c-7.51,4.45-13.49,10.42-17.94,17.94h0Z"/>
  <path class="cls-1" d="M6398.55,5466.13c3.22,0,3.22-5,0-5s-3.22,5,0,5h0Z"/>
  <path class="cls-1" d="M6411.83,5801.98c52.9,64.72,105.8,129.44,158.7,194.17,52.9,64.72,105.8,129.44,158.7,194.17,52.9,64.72,105.8,129.44,158.7,194.17s105.8,129.44,158.7,194.17c52.9,64.72,105.8,129.44,158.7,194.17,6.58,8.05,13.16,16.11,19.75,24.16,82.5-82.5,164.99-164.99,247.49-247.49-70.1-65.74-135.98-135.75-201.32-206.16-65.34-70.41-130.26-141.3-198.63-208.81-74.74-73.8-154.2-141.62-238.97-203.72-70.21-51.44-145.37-96.63-225.5-130.86-52.96-22.62-105.72-44.29-161.52-58.86s-113.95-23.02-171.48-27.88c-11.05-.93-22.11-1.7-33.11-3.13,15.51,2.08,31.01,4.17,46.52,6.25-12.13-1.67-24.04-4.22-35.39-8.91,13.93,5.88,27.87,11.76,41.8,17.64-4.7-2.06-9.17-4.44-13.49-7.22-20.09-12.79-41.78-19.71-65.06-20.77-23.26-5.21-46.52-4.17-69.78,3.13-22.77,5.41-42.61,15.86-59.51,31.32-19.05,12.34-34.08,28.71-45.07,49.1-5.88,13.93-11.76,27.87-17.64,41.8-8.33,31.01-8.33,62.03,0,93.04,5.88,13.93,11.76,27.87,17.64,41.8,15.56,26.3,36.48,47.22,62.78,62.78,4.32,2.79,8.8,5.11,13.49,7.22,15.38,6.93,36.11,16.87,54.41,22.04,24.2,6.83,50.64,8.72,75.13,11.48,20.51,2.31,41.11,3.44,61.59,6.14-15.51-2.08-31.01-4.17-46.52-6.25,71.26,9.59,140.63,29.76,206.84,57.62l-41.8-17.64c72.2,30.56,140.4,69.94,204.58,114.85,18.54,12.97,36.75,26.42,54.66,40.25-11.81-9.12-23.61-18.24-35.42-27.36,81.32,62.96,155.69,134.2,227.14,208.02,73.99,76.45,144.96,155.73,218.32,232.78,41.54,43.64,83.88,86.54,127.83,127.76,15.85,17.07,34.62,29.13,56.32,36.18,20.86,10.96,43.33,15.98,67.42,15.07,24.09.91,46.57-4.12,67.42-15.07,21.7-7.06,40.47-19.12,56.32-36.18,9.12-11.81,18.24-23.61,27.36-35.42,15.83-27.29,23.79-56.74,23.89-88.33-2.08-15.51-4.17-31.01-6.25-46.52-8.31-29.65-23.32-55.39-45.01-77.22-52.9-64.72-105.8-129.44-158.7-194.17-52.9-64.72-105.8-129.44-158.7-194.17-52.9-64.72-105.8-129.44-158.7-194.17-52.9-64.72-105.8-129.44-158.7-194.17-52.9-64.72-105.8-129.44-158.7-194.17-6.58-8.05-13.16-16.11-19.75-24.16-15.85-17.07-34.62-29.13-56.32-36.18-20.86-10.96-43.33-15.98-67.42-15.07-24.09-.91-46.57,4.12-67.42,15.07-21.7,7.06-40.47,19.12-56.32,36.18-9.12,11.81-18.24,23.61-27.36,35.42-15.83,27.29-23.79,56.74-23.89,88.33,2.08,15.51,4.17,31.01,6.25,46.52,8.31,29.65,23.32,55.39,45.01,77.22h0Z"/>
  <path class="cls-1" d="M983.14,1930.03c20.36,59.47,55.4,109.28,110.61,141.44,20.2,11.77,42.61,21.32,65.53,26.27,44.37,9.58,71.62,7.85,116.27-.56,22.77-5.41,42.61-15.86,59.51-31.32,19.05-12.34,34.08-28.71,45.07-49.1,22.05-41.73,30.32-88.44,17.64-134.85-1.15-4.2-1.98-8.2-2.61-12.5l6.25,46.52c-.5-5.75-.5-11.27-.01-17.01-2.08,15.51-4.17,31.01-6.25,46.52,1.01-7.17,2.71-13.85,5.25-20.62-5.88,13.93-11.76,27.87-17.64,41.8,2.92-6.63,6.37-12.56,10.71-18.34-9.12,11.81-18.24,23.61-27.36,35.42,1.78-2.23,3.68-4.33,5.72-6.32l-292.49-77.22c57.66,165.3,156.87,318.85,295.66,427.48,23.99,18.77,47.18,36.73,77.22,45.01,15.51,2.08,31.01,4.17,46.52,6.25,24.09.91,46.57-4.12,67.42-15.07,14.82-4.16,27.69-11.66,38.61-22.5,13.15-7.78,23.61-18.24,31.39-31.39,23.14-29.95,38.58-67.23,37.57-106.03-4.01-155.5-47.99-310.89-130.65-443.08-22.71-36.32-61.64-70.64-104.59-80.42-15.51-2.08-31.01-4.17-46.52-6.25-24.09-.91-46.57,4.12-67.42,15.07-33.62,14.19-66.15,38.42-83.68,71.6-20.73,39.23-34.35,91.64-17.64,134.85s30,70.27,62.21,106.63c18.94,21.37,42.96,39.69,67.91,53.39,23.37,12.83,48.66,23.75,74.51,30.56,13.97,3.68,28.45,5.04,42.72,6.96,15.65,2.1,31.18,4.79,47.01,4.52,103.13-1.79,191.64-50.95,274.3-107.51,144.28-98.75,288.56-197.49,432.85-296.24,73.1-50.03,145.58-102.93,227.52-137.8-13.93,5.88-27.87,11.76-41.8,17.64,71.23-29.5,147.67-38.72,221.79-58.11,46.58-12.19,93.08-29.46,135.29-52.56,56.37-30.86,98.48-74.57,135.18-126.33,35.3-49.81,29.49-126.26,0-176.65-30.98-52.95-89.54-87.09-151.11-86.67-66.43.45-132.86.91-199.29,1.36-45.06.31-91.8,19.31-123.74,51.26-30.35,30.35-53.21,80.15-51.26,123.74s16.89,92.2,51.26,123.74l35.42,27.36c27.29,15.83,56.74,23.79,88.33,23.89,51.48,3.23,102.81,8.29,153.93,15.16l-46.52-6.25c193.66,26.44,383.14,79.05,563.21,154.98-13.93-5.88-27.87-11.76-41.8-17.64,178.53,75.71,347.03,174.02,500.54,292.53l-35.42-27.36c123.54,95.78,236.83,204.32,337.1,324.27,41.25-99.58,82.5-199.16,123.74-298.74-58.77,2.81-117.48-.12-175.79-7.88,15.51,2.08,31.01,4.17,46.52,6.25-134.6-18.59-263.87-62.28-388.67-114.9,13.93,5.88,27.87,11.76,41.8,17.64-171.44-72.68-334.48-163.41-505.77-236.34-97.97-41.71-196.74-81.01-299.7-108.76-100.61-27.12-205.69-44.61-309.89-47.95-64.38-2.06-127.39,4.57-191.07,13.82-50.86,7.39-100.69,19.9-148.94,37.61-22.77,5.41-42.61,15.86-59.51,31.32-19.05,12.34-34.08,28.71-45.07,49.1-21.95,37.51-31.25,92.79-17.64,134.85,13.7,42.34,39.94,83.2,80.42,104.59,39.66,20.95,91.06,33.72,134.85,17.64,49.88-18.31,101.36-30.96,153.97-38.32l-46.52,6.25c79.52-10.58,159.81-8.88,239.26,1.47-15.51-2.08-31.01-4.17-46.52-6.25,143.27,19.37,281.35,65.43,414.17,121.36-13.93-5.88-27.87-11.76-41.8-17.64,139.69,59.15,273.68,130.63,411.31,194.26,147.94,68.39,300.68,133.22,461.12,165.68,96.13,19.45,195.32,30.88,293.47,26.19,30.2-1.44,61.99-8.48,88.33-23.89,32.9-19.26,56.95-48.97,71.6-83.68,7.92-13.65,11.9-28.37,11.95-44.16,4.17-15.51,4.17-31.01,0-46.52-.05-15.79-4.03-30.52-11.95-44.16-7.06-21.7-19.12-40.47-36.18-56.32-158.56-189.68-351.25-352.27-561.1-482.6-106.23-65.98-217.72-121.8-332.86-170.39s-231.22-89.3-351.82-119.28c-141.52-35.17-287.24-56.81-432.75-65.93v350c66.43-.45,132.86-.91,199.29-1.36-50.37-87.78-100.74-175.55-151.11-263.33-1.53,2.21-3.11,4.39-4.73,6.53l27.36-35.42c-10.41,13.45-22.21,25.35-35.5,35.97l35.42-27.36c-18.54,14.27-38.87,25.4-60.37,34.55,13.93-5.88,27.87-11.76,41.8-17.64-58.92,24.29-122.38,33.84-184.17,47.92-85.43,19.46-166.87,54.24-241.56,99.93-73.06,44.7-142.69,95.35-213.35,143.71-72.95,49.93-145.9,99.85-218.85,149.78-42.15,28.85-84.3,57.69-126.45,86.54-36.7,25.12-73.19,50.91-114.12,68.79l41.8-17.64c-18.49,7.71-37.35,13.46-57.15,16.6,15.51-2.08,31.01-4.17,46.52-6.25-14.49,1.91-28.81,1.92-43.31.17l46.52,6.25c-13.14-1.92-25.76-5.2-38.12-10.07l41.8,17.64c-10.74-4.57-20.72-10.17-30.09-17.14,11.81,9.12,23.61,18.24,35.42,27.36-6.99-5.56-13.16-11.57-18.83-18.48,9.12,11.81,18.24,23.61,27.36,35.42-5.45-7.18-9.82-14.61-13.42-22.88,5.88,13.93,11.76,27.87,17.64,41.8l-1.4-3.62c-106.62,44.95-213.24,89.9-319.86,134.85,20.28,32.44,37.85,66.32,52.75,101.56l-17.64-41.8c23.31,56.28,39.35,115.04,47.83,175.37-2.08-15.51-4.17-31.01-6.25-46.52,3.43,25.85,5.5,51.77,6.17,77.83,99.58-41.25,199.16-82.5,298.74-123.74-49.94-39.09-94.66-84.14-133.61-134.18,9.12,11.81,18.24,23.61,27.36,35.42-40.58-52.8-74.22-110.38-100.13-171.73,5.88,13.93,11.76,27.87,17.64,41.8-6.06-14.62-11.7-29.39-16.91-44.34-8.31-29.65-23.32-55.39-45.01-77.22-21.84-21.69-47.58-36.69-77.22-45.01-59.29-16.33-127.27.27-170.27,45.01-62.57,65.09-88.04,157.28-64.06,245.06,40.74-71.76,81.48-143.51,122.23-215.27l-3.85.72c15.51-2.08,31.01-4.17,46.52-6.25-6.59.79-12.81.71-19.37-.16,15.51,2.08,31.01,4.17,46.52,6.25-5.18-1.01-10.04-2.4-14.98-4.27l41.8,17.64c-6.07-2.7-11.53-5.88-16.86-9.82l35.42,27.36c-4.06-3.37-7.67-6.91-11.11-10.92,9.12,11.81,18.24,23.61,27.36,35.42-3.19-4.2-5.84-8.45-8.19-13.17l17.64,41.8c-1.09-2.37-2.01-4.8-2.78-7.3-14.83-43.31-40.07-80.97-80.42-104.59-37.51-21.95-92.79-31.25-134.85-17.64-42.34,13.7-83.2,39.94-104.59,80.42-21.24,40.2-32.88,90.35-17.64,134.85h0Z"/>
  <polygon class="cls-1" points="526.57 1898.54 1085.31 1660.86 1125.29 1999.63 526.57 1898.54"/>
  <polygon class="cls-1" points="526.57 1898.63 1114.07 1745.24 1104.06 2086.22 526.57 1898.63"/>
  <path class="cls-1" d="M2314.62,1210.43c3.22,0,3.22-5,0-5s-3.22,5,0,5h0Z"/>
  <path class="cls-1" d="M4208.47,2061.53c11.09,12.88,22.17,25.75,33.26,38.63,11.14,12.94,22.28,25.88,33.42,38.82s22.17,25.75,33.26,38.63,22.28,25.88,33.42,38.82c11.09,12.88,22.17,25.75,33.26,38.63,1.41,1.64,2.83,3.28,4.24,4.92l106.07-106.07c-14.96-11.79-29.93-23.37-46.33-33.07-10.85-6.41-22.11-12.11-33.7-17.05-17.5-7.47-34.82-14.82-53.14-19.99-12.19-3.45-24.61-6.1-37.15-7.92-20.65-3-41.17-5.72-62.05-5.63-10.33-.39-19.96,1.76-28.9,6.46-9.3,3.02-17.34,8.19-24.14,15.51-7.31,6.79-12.48,14.84-15.51,24.14-4.7,8.94-6.85,18.57-6.46,28.9l2.68,19.94c3.56,12.71,9.99,23.74,19.29,33.1,5.06,3.91,10.12,7.82,15.18,11.73,11.7,6.78,24.32,10.2,37.85,10.24,13.03-.06,26.04.79,38.96,2.51-6.65-.89-13.29-1.79-19.94-2.68,19.93,2.68,39.56,7.43,58.51,14.15,5.34,1.89,10.62,3.94,15.84,6.14l-17.92-7.56c17.67,7.46,34.61,16.64,50.46,27.46,4.5,3.07,8.91,6.28,13.23,9.61l-15.18-11.73c.78.61,1.57,1.22,2.34,1.83,6.79,7.31,14.84,12.48,24.14,15.51,8.94,4.7,18.57,6.85,28.9,6.46,10.33.39,19.96-1.76,28.9-6.46,9.3-3.02,17.34-8.19,24.14-15.51,3.91-5.06,7.82-10.12,11.73-15.18,6.78-11.7,10.2-24.32,10.24-37.85l-2.68-19.94c-3.56-12.71-9.99-23.74-19.29-33.1-11.09-12.88-22.17-25.75-33.26-38.63-11.14-12.94-22.28-25.88-33.42-38.82s-22.17-25.75-33.26-38.63-22.28-25.88-33.42-38.82-22.17-25.75-33.26-38.63c-1.41-1.64-2.83-3.28-4.24-4.92-6.79-7.31-14.84-12.48-24.14-15.51-8.94-4.7-18.57-6.85-28.9-6.46-10.33-.39-19.96,1.76-28.9,6.46-9.3,3.02-17.34,8.19-24.14,15.51-3.91,5.06-7.82,10.12-11.73,15.18-6.78,11.7-10.2,24.32-10.24,37.85.89,6.65,1.79,13.29,2.68,19.94,3.56,12.71,9.99,23.74,19.29,33.1h0Z"/>
  <path class="cls-1" d="M2336.49,1304.79c10.33.39,19.96-1.76,28.9-6.46,9.3-3.02,17.34-8.19,24.14-15.51,7.31-6.79,12.48-14.84,15.51-24.14,4.7-8.94,6.85-18.57,6.46-28.9-.89-6.65-1.79-13.29-2.68-19.94-3.56-12.71-9.99-23.74-19.29-33.1l-15.18-11.73c-11.7-6.78-24.32-10.2-37.85-10.24-10.33-.39-19.96,1.76-28.9,6.46-9.3,3.02-17.34,8.19-24.14,15.51-7.31,6.79-12.48,14.84-15.51,24.14-4.7,8.94-6.85,18.57-6.46,28.9l2.68,19.94c3.56,12.71,9.99,23.74,19.29,33.1l15.18,11.73c11.7,6.78,24.32,10.2,37.85,10.24h0Z"/>
  <path class="cls-2" d="M2063.97,2129.97c-3.66,10.28-6.55,20.82-8.56,31.55-2.12,11.31-3.51,22.8-4.84,34.22-.58,4.97-.98,9.96-1.21,14.96-1.12,24.54,2.07,49.45,6.6,73.49,2.72,14.42,6.69,28.6,11.81,42.35,5.43,14.58,11.39,29.12,18.53,42.97,5.05,9.78,11.14,19.06,17.79,27.83,13.51,17.8,27.02,34.78,44.14,49.2,16.15,13.6,33.23,26.52,51.66,36.92,17.8,10.04,36.87,18.03,55.92,25.32,22.99,8.8,46.97,14.87,71.22,18.94,25.68,4.31,51.93,7.86,77.98,9.17,36.82,1.86,73.63-1.93,109.9-8.13,15.77-2.7,31.39-6.31,46.72-10.89,21.51-6.43,42.34-15.01,62.79-24.24,14.95-6.74,29.41-14.58,43.14-23.55,11.93-7.79,23.07-16.61,34.31-25.35,6.57-5.11,12.93-10.49,19.02-16.17,16.94-15.78,31.32-33.91,44.95-52.57,5.5-7.54,10.67-15.37,15.47-23.38,6.3-10.52,11.92-21.44,16.79-32.69,8.85-20.47,17.28-40.79,22.26-62.58,3.41-14.89,5.29-30.16,7.07-45.3,1.13-9.65,1.66-19.37,1.56-29.08-.09-9.06-.75-18.1-1.91-27.08-1.51-11.65-2.87-23.39-5.14-34.94-2.94-15-7.24-29.74-12.94-43.92s-11.65-28.79-19.16-42.32c-7.91-14.26-17.81-26.87-27.83-39.72s-20.85-23.65-33.31-33.39c-16.87-13.18-33.43-25.55-52.74-34.87-12.41-5.98-25.18-11.33-38.08-16.16-7.17-2.69-14.47-5.05-21.84-7.12-21.2-5.94-42.8-8.86-64.6-11.7-31.6-4.13-63.65-4.21-95.36-1.34-36.92,3.33-73.94,9.08-109.77,18.75-24.24,6.54-47.89,15.13-71.15,24.53-31.2,12.61-62.23,25.99-90.27,44.82-11.29,7.58-22.01,16.03-32.65,24.47-5.99,4.74-11.76,9.75-17.28,15.04s-11.01,11.11-16.05,17.09c-9.1,10.8-17.87,22.02-25.7,33.79-4.37,6.57-8.35,13.4-11.91,20.44-6.64,13.13-12.33,26.82-17.34,40.65-3.13,9.97-3.57,19.94-1.34,29.91.45,9.98,3.42,19.28,8.9,27.88,4.71,8.74,11.15,15.75,19.32,21.04,7.24,6.63,15.75,11.1,25.51,13.42l19.94,2.68c13.54-.04,26.16-3.46,37.85-10.24,5.06-3.91,10.12-7.82,15.18-11.73,9.3-9.36,15.72-20.39,19.29-33.1,1.24-3.44,2.57-6.84,3.98-10.21l-7.56,17.92c6.74-15.89,15.47-30.83,25.98-44.52l-11.73,15.18c11.97-15.47,26.03-29.14,41.47-41.11l-15.18,11.73c24.07-18.56,51.07-32.8,79-44.62l-17.92,7.56c35.28-14.87,71.61-27.23,109.13-35.05,12.54-2.62,25.18-4.77,37.88-6.49l-19.94,2.68c30.73-4.1,61.86-5.62,92.82-3.6,8.72.57,17.43,1.43,26.09,2.59l-19.94-2.68c25.62,3.49,50.9,9.72,74.78,19.75l-17.92-7.56c16.94,7.18,33.02,16.27,47.63,27.49l-15.18-11.73c12.7,9.83,24.08,21.18,33.93,33.87l-11.73-15.18c10.71,13.98,19.43,29.32,26.29,45.53l-7.56-17.92c8.23,19.64,13.82,40.36,16.69,61.46-.89-6.65-1.79-13.29-2.68-19.94,2.71,20.21,2.66,40.67-.01,60.88.89-6.65,1.79-13.29,2.68-19.94-2.99,21.95-9.02,43.36-17.58,63.79l7.56-17.92c-9.6,22.74-22.27,44.25-37.3,63.83l11.73-15.18c-14.05,18.17-30.42,34.39-48.56,48.46l15.18-11.73c-21.34,16.44-44.88,29.79-69.67,40.29l17.92-7.56c-31.41,13.2-64.61,21.83-98.34,26.41l19.94-2.68c-33.56,4.49-67.31,4.72-100.95,1.12-5.64-.6-11.27-1.26-16.89-2.01,6.65.89,13.29,1.79,19.94,2.68-24.76-3.33-49.3-8.5-73.03-16.36-7.96-2.64-15.82-5.58-23.55-8.83l17.92,7.56c-20.52-8.69-40.04-19.67-57.69-33.31l15.18,11.73c-14.26-11.09-27.13-23.82-38.23-38.07l11.73,15.18c-10.67-13.81-19.36-28.63-26.13-44.67l7.56,17.92c-8.77-20.9-14.82-42.93-17.84-65.39.89,6.65,1.79,13.29,2.68,19.94-2.57-19.61-2.73-39.44-.15-59.05-.89,6.65-1.79,13.29-2.68,19.94,1.97-14.38,5.4-28.49,10.27-42.16,3.13-9.97,3.57-19.94,1.34-29.91-.45-9.98-3.42-19.28-8.9-27.88-4.71-8.74-11.15-15.75-19.32-21.04-7.24-6.63-15.75-11.1-25.51-13.42l-19.94-2.68c-13.54.04-26.16,3.46-37.85,10.24-5.06,3.91-10.12,7.82-15.18,11.73-9.3,9.36-15.72,20.39-19.29,33.1Z"/>
  <path class="cls-1" d="M531.84,1899.4c15.97-8.6,32.12-16.87,48.43-24.79s32.8-15.5,49.43-22.74,33.32-14.06,50.2-20.57,34.07-12.62,51.23-18.57,34.83-12.11,51.83-19.27c2.18-.92,4.35-1.85,6.52-2.8,2.04-.9,1.32-4.05-.6-4.57-11.74-3.21-23.17,2.88-33.01,8.68-2.39,1.41-.83,5.44,1.93,4.57,5.88-1.86,11.76-3.72,17.64-5.58,2.55-.81,2.27-5.18-.66-4.91-7.89.72-15.21,3.51-22.49,6.46-6.88,2.79-13.78,5.52-20.71,8.19-13.71,5.28-27.48,10.38-41.23,15.56-27.56,10.41-55.05,21.21-81.29,34.67-14.7,7.54-28.97,15.93-42.48,25.43l3.03,3.93c5.67-6.27,14.04-9.11,21.66-12.23,9.29-3.8,18.59-7.56,27.9-11.3,18.55-7.44,37.14-14.77,55.78-21.98,10.55-4.08,21.11-8.12,31.69-12.12,1.26-.48,2.13-1.69,1.75-3.08-.33-1.21-1.81-2.23-3.08-1.75-19.01,7.19-37.97,14.51-56.89,21.95s-37.62,14.94-56.36,22.59c-9.05,3.69-19.24,6.92-25.99,14.38-1.8,1.99.59,5.64,3.03,3.93,23.87-16.79,50.03-29.99,76.82-41.44s54.27-21.23,81.48-31.61c7.62-2.91,15.23-5.87,22.8-8.92s15.98-6.88,24.58-7.67l-.66-4.91c-5.88,1.86-11.76,3.72-17.64,5.58l1.93,4.57c8.59-5.07,18.83-11,29.16-8.18l-.6-4.57c-16.84,7.39-34.17,13.57-51.53,19.61s-34.53,12.02-51.62,18.52-33.86,13.3-50.58,20.47c-16.59,7.12-33.04,14.58-49.32,22.38s-32.55,16.02-48.56,24.53c-2.01,1.07-4.02,2.14-6.02,3.22-2.83,1.53-.31,5.84,2.52,4.32h0Z"/>
  <path class="cls-1" d="M708.22,1823.15l6.41-.66c.68-.07,1.27-.23,1.77-.73.43-.43.76-1.15.73-1.77s-.24-1.32-.73-1.77c-.46-.42-1.12-.8-1.77-.73l-6.41.66c-.68.07-1.27.23-1.77.73-.43.43-.76,1.15-.73,1.77s.24,1.32.73,1.77c.46.42,1.12.8,1.77.73h0Z"/>
  <path class="cls-1" d="M582.07,1878.76c2.77-.73,5.29-2.13,7.44-4.01.46-.41.73-1.17.73-1.77s-.27-1.35-.73-1.77-1.1-.76-1.77-.73-1.25.28-1.77.73c-.24.21-.49.41-.74.61l.51-.39c-1.07.83-2.24,1.51-3.48,2.04l.6-.25c-.69.29-1.39.53-2.12.72-1.26.33-2.16,1.8-1.75,3.08s1.72,2.1,3.08,1.75h0Z"/>
  <path class="cls-2" d="M627.57,1881.76c27.03-5.22,53.74-8.14,80.39-10.25,3.34-.29,6.66-.49,9.99-.74,3.33-.24,6.66-.47,9.97-.64,6.63-.31,13.28-.72,19.9-.93,13.27-.55,26.51-.89,39.7-.91,26.44-.26,52.73.51,78.96,1.81,26.18,1.49,52.32,3.47,78.29,6.32,51.97,5.56,103.53,13.63,154.49,24.19,50.97,10.5,101.45,23.15,151.22,38.12l18.66,5.62,18.57,5.92c12.35,4.04,24.7,8.07,36.97,12.37,24.49,8.69,48.88,17.71,72.93,27.63,48.19,19.59,95.4,41.8,141.33,66.83,45.94,24.99,90.61,52.82,133.53,84.01,21.43,15.65,42.46,32.08,62.87,49.67,10.2,8.81,20.28,17.82,30.13,27.29l7.36,7.14c2.43,2.43,4.87,4.84,7.27,7.32,4.83,4.91,9.56,10.01,14.21,15.29-7.04.15-13.99.12-20.86-.1-3.44-.08-6.85-.24-10.28-.34l-10.2-.48c-13.55-.73-26.97-1.71-40.24-2.95-26.6-2.34-52.68-5.59-78.51-9.26-51.62-7.4-101.99-16.95-151.63-27.88-24.81-5.48-49.43-11.35-73.91-17.5-24.45-6.23-48.78-12.69-72.98-19.46-24.14-6.93-48.26-13.87-72.19-21.37l-17.97-5.56-17.92-5.69-35.76-11.63c-47.6-15.78-95.06-32.08-142.31-49.48-47.25-17.43-94.39-35.61-141.39-55.15-5.88-2.42-11.75-4.91-17.62-7.4l-17.61-7.51c-11.75-4.99-23.47-10.18-35.19-15.44-11.74-5.17-23.46-10.49-35.17-15.96l-17.57-8.23c-5.86-2.73-11.7-5.6-17.56-8.41-5.86-2.78-11.69-5.76-17.54-8.62-5.87-2.82-11.7-5.82-17.55-8.75-5.86-2.91-11.68-6.02-17.52-9.02l-17.52-9.24c-11.68-6.2-23.31-12.77-34.96-19.42-11.64-6.69-23.26-13.58-34.78-21.23Z"/>
  <path class="cls-2" d="M627.57,1872.78c9.17-4.91,18.44-9.4,27.75-13.64,9.31-4.27,18.68-8.26,28.09-12.13,18.82-7.68,37.78-14.72,56.88-21.19,38.2-12.89,76.87-23.79,115.98-32.76,39.1-9,78.63-16.13,118.61-21.4,39.97-5.26,80.4-8.58,121.37-9.73,20.5-.56,41.13-.52,61.94.16,20.82.69,41.81,2.03,63.04,4.26,21.24,2.2,42.71,5.27,64.53,9.52,21.83,4.24,44.01,9.66,66.72,17.06,11.33,3.79,22.7,8.4,34.02,14.02,11.33,5.62,22.6,12.21,33.7,20.16l4.15,3.01c1.38.99,2.76,2.12,4.13,3.17,1.37,1.09,2.73,2.12,4.1,3.25l4.06,3.43c1.34,1.12,2.7,2.32,4.03,3.55l3.98,3.65c1.33,1.27,2.64,2.57,3.94,3.86l1.95,1.94c.65.67,1.3,1.34,1.94,2.03l3.82,4.1c1.28,1.41,2.52,2.86,3.76,4.3l1.85,2.16c.61.75,1.24,1.49,1.84,2.26l3.58,4.57c4.72,6.3,9.2,12.86,13.24,19.97,8.11,14.13,14.61,30.05,18,46.74,1.68,8.34,2.71,16.76,2.75,25.14.06,4.17-.1,8.32-.52,12.41l-.3,3.05-.4,3.02c-.25,2-.63,3.99-1.04,5.96-.78,3.93-1.73,7.75-2.94,11.47-.61,1.85-1.21,3.69-1.87,5.48-.68,1.79-1.45,3.56-2.18,5.29-.79,1.73-1.58,3.42-2.41,5.09-.84,1.67-1.79,3.28-2.69,4.88-.46.8-.91,1.59-1.38,2.37l-1.51,2.3c-1.02,1.52-2.01,3.02-3.09,4.46-8.68,11.57-19.22,20.86-32.25,27.62l-9.64-2.64c-1.08-1.51-1.99-2.95-3-4.38l-1.38-2.1-1.43-2.06-2.78-3.97-2.75-3.78c-3.67-4.9-7.18-9.32-10.88-13.17-.85-.97-1.8-1.89-2.7-2.79-.92-.9-1.8-1.77-2.71-2.58-.92-.82-1.77-1.63-2.72-2.37-.91-.75-1.77-1.47-2.67-2.16-1.86-1.36-3.58-2.59-5.36-3.68-.84-.56-1.84-1.04-2.65-1.53-.83-.49-1.73-.92-2.59-1.33-.43-.2-.85-.41-1.29-.6l-1.28-.54-1.23-.51-1.26-.45c-.82-.29-1.66-.55-2.48-.78-.8-.24-1.58-.46-2.41-.64-3.11-.77-6.17-1.15-8.99-1.37-5.69-.41-10.8-.17-15.85-.21-.65,0-1.3.01-1.9-.01l-1.93-.03c-1.19-.05-2.61-.06-3.8-.14-2.67-.11-5.15-.34-7.92-.6-5.32-.57-11.09-1.45-17.05-2.62-11.99-2.32-25.29-5.78-39.44-10.1-14.12-4.5-29.51-8.61-45.54-12.35-16.05-3.73-32.77-7.08-49.86-10.21-17.1-3.11-34.6-5.93-52.33-8.65-17.74-2.7-35.74-5.17-53.89-7.64-36.34-4.87-73.34-9.37-110.77-13.98-37.43-4.61-75.28-9.28-113.49-14.42-38.2-5.1-76.76-10.73-115.7-17.11-19.47-3.21-39.04-6.68-58.73-10.45-9.85-1.92-19.72-3.87-29.64-6.01-9.92-2.11-19.88-4.37-29.91-6.93l-1.22-9.93Z"/>
  <path class="cls-2" d="M4231.61,2575.68c-22.96,46.67-50.78,90.77-82.5,131.97l11.73-15.18c-38.17,49.4-81.73,94.48-129.11,135.11-13.38,11.47-27.06,22.57-41,33.35,5.06-3.91,10.12-7.82,15.18-11.73-63.42,48.89-132.16,90.46-204.15,125.44-22.88,11.12-46.08,21.58-69.51,31.48l17.92-7.56c-56.32,23.72-114.01,44.08-172.47,61.85-58.93,17.92-118.62,33.24-178.68,46.9-33.68,7.66-67.47,14.8-101.34,21.59-9.76,2.32-18.26,6.8-25.51,13.42-8.16,5.29-14.6,12.3-19.32,21.04-5.48,8.61-8.45,17.9-8.9,27.88-2.23,9.97-1.79,19.94,1.34,29.91,5.87,18.15,17.12,35.66,34.47,44.82l17.92,7.56c13.29,3.57,26.58,3.57,39.88,0,82.18-16.48,163.99-35.03,244.6-58.06,86.12-24.6,170.31-54.86,252.16-91.26,69.59-30.95,136.74-67.45,199.51-110.66,64.2-44.2,125.09-94.15,178.5-151.03,28.5-30.35,54.72-62.82,79.26-96.44,21.23-29.07,40.53-59.56,57.53-91.3,4.14-7.73,8.14-15.54,12.01-23.41,5.48-8.61,8.45-17.9,8.9-27.88,2.23-9.97,1.79-19.94-1.34-29.91-2.32-9.76-6.8-18.26-13.42-25.51-5.29-8.16-12.3-14.6-21.04-19.32-17.41-9.2-38.49-13.81-57.79-7.56-17.83,5.77-36.26,17.06-44.82,34.47h0Z"/>
  <path class="cls-1" d="M6071.63,4193.53c3.22,0,3.22-5,0-5s-3.22,5,0,5h0Z"/>
  <path class="cls-1" d="M5499.5,3683.25c3.22,0,3.22-5,0-5s-3.22,5,0,5h0Z"/>
  <path class="cls-1" d="M9742.21,9398.59c74.55,99.38,147.64,199.85,219.21,301.39,71.29,101.13,141.08,203.31,209.35,306.5,68.27,103.19,135.02,207.39,200.22,312.55,65.46,105.59,129.36,212.14,191.66,319.62s122.53,215.01,181.39,323.84c7.39,13.66,14.75,27.33,22.09,41.02,8.71,16.23,27.31,29.65,44.82,34.47,17.95,4.94,41.86,2.71,57.79-7.56,35.17-22.67,46.76-65.58,26.91-102.61-58.71-109.48-119.02-218.11-180.93-325.81-61.67-107.27-124.92-213.62-189.73-319.02s-131.17-209.84-199.06-313.29c-68.16-103.86-137.87-206.71-209.08-308.51-70.92-101.39-143.34-201.72-217.23-300.97-9.27-12.46-18.57-24.89-27.89-37.32-4.71-8.74-11.15-15.75-19.32-21.04-7.24-6.63-15.75-11.1-25.51-13.42-17.95-4.94-41.86-2.71-57.79,7.56s-30.11,25.7-34.47,44.82c-4.18,18.37-4.28,42.01,7.56,57.79h0Z"/>
  <path class="cls-1" d="M9839.14,9550.13c67.7,89.3,134.78,179.07,201.22,269.31,66.44,90.25,132.23,180.96,197.39,272.14,64.89,90.81,129.14,182.07,192.74,273.79,63.86,92.09,127.07,184.63,189.61,277.61,62.55,92.98,124.44,186.41,185.66,280.27,7.44,11.4,14.86,22.81,22.28,34.22,10.59,16.3,25.76,29.22,44.82,34.47,17.95,4.94,41.86,2.71,57.79-7.56,16.01-10.32,30.11-25.7,34.47-44.82,4.36-19.16,3.47-40.81-7.56-57.79-61.07-93.96-122.79-187.5-185.18-280.59-62.39-93.09-125.44-185.74-189.14-277.93-63.44-91.82-127.53-183.2-192.26-274.12-64.99-91.29-130.64-182.12-196.92-272.48-66.28-90.36-133.2-180.25-200.76-269.66-8.21-10.86-16.42-21.71-24.64-32.56-4.71-8.74-11.15-15.75-19.32-21.04-7.24-6.63-15.75-11.1-25.51-13.42-17.95-4.94-41.86-2.71-57.79,7.56s-30.11,25.7-34.47,44.82-4.34,42.1,7.56,57.79h0Z"/>
  <path class="cls-1" d="M5445.38,3636.86c3.22,0,3.22-5,0-5s-3.22,5,0,5h0Z"/>
  <path class="cls-1" d="M5586.26,4004.95c75.56,35.24,149.57,73.76,221.77,115.44,72.19,41.68,142.57,86.48,210.91,134.19,38.68,27,76.69,54.95,114.04,83.76-5.06-3.91-10.12-7.82-15.18-11.73,78.21,60.43,153.42,124.71,225.25,192.6s139.7,138.77,204.18,213.14c36.5,42.1,71.79,85.23,105.87,129.31-3.91-5.06-7.82-10.12-11.73-15.18,95.91,124.25,181.98,256.07,256.62,394.17,21.64,40.04,43.52,80.45,61.47,122.31l-7.56-17.92c10.07,23.85,18.38,48.43,22.17,74.11-.89-6.65-1.79-13.29-2.68-19.94,1.89,14.16,2.3,28.3.66,42.5.89-6.65,1.79-13.29,2.68-19.94-1.52,11.23-4.22,22.16-8.48,32.67,2.52-5.97,5.04-11.94,7.56-17.92-2.71,6.27-6.13,12.06-10.24,17.52,3.91-5.06,7.82-10.12,11.73-15.18-4.96,6.31-10.61,11.86-16.92,16.82,5.06-3.91,10.12-7.82,15.18-11.73-7.37,5.59-15.31,10.17-23.8,13.84,5.97-2.52,11.94-5.04,17.92-7.56-8.94,3.7-18.19,6.28-27.77,7.63l19.94-2.68c-7.56.93-15.09,1.06-22.67.19l19.94,2.68c-6.16-.84-12.11-2.31-17.89-4.62,5.97,2.52,11.94,5.04,17.92,7.56-4.65-1.99-8.95-4.44-13-7.47,5.06,3.91,10.12,7.82,15.18,11.73-3.61-2.87-6.8-6.07-9.66-9.69l11.73,15.18c-2.93-3.94-5.31-8.13-7.26-12.64-6.97-16.05-28.77-30.05-44.82-34.47-17.95-4.94-41.86-2.71-57.79,7.56s-30.11,25.7-34.47,44.82c-.89,6.65-1.79,13.29-2.68,19.94.04,13.54,3.46,26.16,10.24,37.85,9.53,21.94,29.52,41.6,50.07,53.38,21.67,12.43,46.39,18.32,71.26,18.79,46.12.86,91.5-18.83,125.07-49.77,39.23-36.16,55.87-94.23,51.59-146.33-2.28-27.79-7.5-54.96-16.83-81.22-9.64-27.12-21.6-53.5-34.41-79.27-70.93-142.73-154.19-279.37-247.81-408.34-96.94-133.55-203.91-259.78-320.98-376.12-117.05-116.32-243.94-222.63-378.04-318.76-129.55-92.86-266.66-175.2-409.73-245.49-17.52-8.61-35.14-17.03-52.83-25.28-18.67-8.71-37.24-13.22-57.79-7.56-17.4,4.79-36.25,18.24-44.82,34.47-9.2,17.41-13.81,38.49-7.56,57.79,5.69,17.6,17.03,36.69,34.47,44.82h0Z"/>
  <path class="cls-1" d="M6221.7,4542.49c28.92,35.35,57.34,71.1,85.26,107.24l-11.73-15.18c23.68,30.67,47.01,61.61,69.96,92.82,22.95,31.22,45.53,62.71,67.73,94.46,22.31,31.91,44.24,64.08,65.78,96.51,21.44,32.27,42.49,64.8,63.16,97.58,20.67,32.77,40.94,65.79,60.82,99.05,2.5,4.18,4.99,8.36,7.47,12.54,4.71,8.74,11.15,15.75,19.32,21.04,7.24,6.63,15.75,11.1,25.51,13.42,9.97,3.13,19.94,3.57,29.91,1.34,9.98-.45,19.28-3.42,27.88-8.9,5.06-3.91,10.12-7.82,15.18-11.73,9.3-9.36,15.72-20.39,19.29-33.1.89-6.65,1.79-13.29,2.68-19.94-.04-13.54-3.46-26.16-10.24-37.85-24.47-41.2-49.53-82.04-75.2-122.51-25.56-40.31-51.72-80.24-78.45-119.78-26.73-39.54-54.04-78.69-81.92-117.43s-56.32-77.08-85.32-114.99c-32.66-42.69-65.78-85.02-99.67-126.75-3.78-4.65-7.56-9.29-11.35-13.93-6.79-7.31-14.84-12.48-24.14-15.51-8.94-4.7-18.57-6.85-28.9-6.46-10.33-.39-19.96,1.76-28.9,6.46-9.3,3.02-17.34,8.19-24.14,15.51l-11.73,15.18c-6.78,11.7-10.2,24.32-10.24,37.85.89,6.65,1.79,13.29,2.68,19.94,3.56,12.71,9.99,23.74,19.29,33.1h0Z"/>
  <path class="cls-1" d="M6472.89,4733.81c10.11,18.58,20.21,37.15,30.32,55.73s20.3,37.32,30.46,55.98,20.21,37.15,30.32,55.73c10.15,18.66,20.3,37.32,30.46,55.98,10.11,18.58,20.21,37.15,30.32,55.73,1.27,2.34,2.55,4.69,3.82,7.03,4.71,8.74,11.15,15.75,19.32,21.04,7.24,6.63,15.75,11.1,25.51,13.42,9.97,3.13,19.94,3.57,29.91,1.34,9.98-.45,19.28-3.42,27.88-8.9,5.06-3.91,10.12-7.82,15.18-11.73,9.3-9.36,15.72-20.39,19.29-33.1.89-6.65,1.79-13.29,2.68-19.94-.04-13.54-3.46-26.16-10.24-37.85-10.11-18.58-20.21-37.15-30.32-55.73-10.15-18.66-20.3-37.32-30.46-55.98s-20.21-37.15-30.32-55.73-20.3-37.32-30.46-55.98c-10.11-18.58-20.21-37.15-30.32-55.73-1.27-2.34-2.55-4.69-3.82-7.03-4.71-8.74-11.15-15.75-19.32-21.04-7.24-6.63-15.75-11.1-25.51-13.42-9.97-3.13-19.94-3.57-29.91-1.34-9.98.45-19.28,3.42-27.88,8.9l-15.18,11.73c-9.3,9.36-15.72,20.39-19.29,33.1-.89,6.65-1.79,13.29-2.68,19.94.04,13.54,3.46,26.16,10.24,37.85h0Z"/>
</svg>