<?xml version="1.0" encoding="UTF-8"?>
<svg id="_レイヤー_1" data-name="レイヤー 1" xmlns="http://www.w3.org/2000/svg" viewBox="0 0 11338.58 11338.58">
  <defs>
    <style>
      .cls-1 {
        fill: #000;
      }

      .cls-1, .cls-2 {
        stroke-width: 0px;
      }

      .cls-2 {
        fill: #fff;
      }
    </style>
  </defs>
  <rect class="cls-1" x="2679.03" y="9855.67" width="5990.61" height="657.18" rx="143.79" ry="143.79"/>
  <polygon class="cls-1" points="9930.21 9525.76 1426.27 9525.76 3628.55 8210.27 7727.92 8210.27 9930.21 9525.76"/>
  <polygon class="cls-1" points="9335.55 7177.93 2013.31 7177.93 3633.51 6226.36 7715.36 6226.36 9335.55 7177.93"/>
  <rect class="cls-1" x="3561.73" y="5315.13" width="4233" height="1247.24" rx="123.62" ry="123.62"/>
  <ellipse class="cls-1" cx="7073.37" cy="3677.16" rx="1565.4" ry="1122.38" transform="translate(-891.52 4015.81) rotate(-29.9)"/>
  <ellipse class="cls-1" cx="7802.68" cy="2070.44" rx="1084.35" ry="779.31"/>
  <path class="cls-1" d="M9790.74,1918.52c-435.3,42.89-815.05,173.68-1024.09,585.21-50.05,97.75-86.83,202.4-115.78,308.37-50.74,185.32-77.86,380-110.23,570.99-17.4,99.17-34.95,196.7-70.05,293.54-18.49,49.8-40.76,96.74-74.14,139.77-59.45,77.68-150.58,123.38-250.3,113.15-163.48-16.7-285.6-169.47-367.56-298.73-28.1-44.61-53.88-91.28-77.7-138.29-69.48-138.92-124.16-283.15-164.85-432.41-3.98-14.77-7.9-30.01-11.36-44.91-1.19-5.02-2.38-10.03-3.47-15.1,0,0,35.71-18.02,35.71-18.02,13.58,15.48,26.68,31.16,39.67,46.85,100.99,122.63,197.5,250.6,299.3,370.97,56.33,66,114.02,131.78,180.28,187.44,18.59,15.31,37.75,29.7,58.76,41.21,5.83,3.13,13.16,6.57,18.41,8.47,4.27,1.6,7.91,2.52,10.56,2.9,2.65.41,4.27.22,4.7-.19.04-.06.13-.06.13-.14,0-.16-.01-.25-.11-.35-.49-.44-.95-.53-1.85-.79-1.01-.23-2.17-.32-3.23-.31-2.74-.03-6.4.91-8.57,1.8-1.59.57-2.28.82-2.04.13,2.56-4.35,5.81-9.19,8.92-15.45,10.54-20.61,18.62-44.19,25.52-67,11.31-37.68,20.19-76.65,28.59-115.97,56.39-279.56,97.97-568.53,212.23-833.73,89.66-212.56,227.21-410.28,420.04-541.36,272.74-188.66,625.98-221.24,942.5-148.06h0Z"/>
  <path class="cls-1" d="M797.07,4397.75c983.46-263.3,1968.54-524.94,2935.9-843.14,308.33-101.46,616.78-209.64,919.34-327.26,325.46-126.94,648.33-265.11,957.41-428.26,113.16-59.84,225.98-124.16,333.87-193.11,54.4-34.43,110.34-72.61,162.65-110.18,23.45-17.19,49.49-36.52,72.45-54.41,26.14-20.13,55.97-44.6,81.17-65.79,92.17-78.88,179.42-165.79,250.02-264.12,22.15-30.5,41.11-61.16,60.29-93.78,34.03-57.49,69.42-114.21,107.86-169.43,150.21-216.77,343.27-410.57,578.21-534.71,188.24-100.44,397.88-149.68,610.93-148.26,227.11.43,449.42,54.5,667.17,112.8,458.14,120.03,889.91,340.88,1256.69,640.01,0,0-.6.8-.6.8-42.89-29.89-86.31-58.96-130.36-87.08-372.08-238.03-787.51-407.7-1220.77-493.88-325.2-72.18-655.26-115.19-973.46,10.07-186.64,72.07-351.53,193.88-487.42,339.92-103.71,111.05-191.32,235.63-267.72,367.07-26.88,46.41-53.53,94.53-84.78,138.42-70.84,101.53-155.91,191.2-247.61,273.22-72.09,64.66-150.29,125.25-229.09,181.53-230.43,162.8-479.69,297.56-733.75,419.02-362.14,172.06-738.02,317.08-1116.87,447.77-346.88,119.22-699.1,226.6-1052.27,325.05-807.01,222.86-1627.1,410.92-2449.26,557.72h0Z"/>
  <path class="cls-1" d="M7297.22,5668.62c-125.89-79.93-254.39-166.69-380.06-246.77-355.62-228.59-722.97-439.72-1104.45-620.85-196.07-93.15-395.56-180.23-599.88-253.9-220.37-80.17-445.99-146.08-673.68-202.47-435.82-110.69-885.1-175.59-1334.91-196.2-521.96-24.18-1046.35,10.46-1562.93,89.57-89.1,13.3-183.44,29.5-271.85,44.49,0,0-.28-.96-.28-.96,61.8-25.95,124.34-50.13,187.39-73.09,12.3-4.4,35.18-12.75,47.39-16.96,945.38-330.78,1982.05-397.68,2963.32-193.78,200.52,41.18,400.21,90.24,595.69,151.53,147.28,45.78,293.8,98.86,436.5,157.41,500.56,203.95,964.16,505.68,1337.03,898.33,78.52,82.94,154.77,171.92,223.77,262.96,48.66,64.51,95.43,131.31,136.94,200.69h0Z"/>
  <ellipse class="cls-1" cx="5829.03" cy="4166.92" rx="790.09" ry="1690.79" transform="translate(846.92 9316.63) rotate(-81.51)"/>
  <ellipse class="cls-1" cx="4601.78" cy="3525.55" rx="1846.41" ry="163.31" transform="translate(-788.04 1391.14) rotate(-15.85)"/>
  <ellipse class="cls-1" cx="6007.57" cy="3104.26" rx="2601.81" ry="346.83" transform="translate(-723.33 2454.46) rotate(-21.81)"/>
  <path class="cls-1" d="M6267.79,2470.08l598.99-772.81c287.42,222.78,253.54,754.95-75.06,1178.9-328.6,423.95-835.5,589.49-1122.93,366.72-59.85-46.39-107.53-107.56-140.98-180.85l739.97-591.96Z"/>
  <path class="cls-1" d="M9364.14,217.72c3.22,0,3.22-5,0-5s-3.22,5,0,5h0Z"/>
  <path class="cls-1" d="M9632.61,1840.99c-54.62-8.87-109.82-13.9-165.16-14.46-55.39-.56-110.58,3.45-165.44,10.99-52.82,7.26-105.12,18.36-156.33,33.19s-104.92,34.85-155.19,57.79c-48.68,22.22-95.72,48.07-140.48,77.41-5.48,3.59-10.93,7.24-16.35,10.94s-9.7,8.45-11.49,14.94c-1.65,5.98-.9,13.95,2.52,19.26,6.92,10.73,22.65,16.85,34.2,8.97,45.3-30.9,93.02-58.22,142.57-81.71,14.01-6.64,28.17-12.98,42.46-19.02l-5.97,2.52c69.67-29.37,142.35-51.52,216.57-65.99,21.02-4.1,42.16-7.57,63.38-10.45l-6.65.89c74.05-9.95,149.09-12.42,223.61-6.92,20.92,1.54,41.78,3.72,62.57,6.51l-6.65-.89c9.53,1.29,19.04,2.7,28.53,4.25,6.84,1.11,13.06,1.11,19.26-2.52,5.19-3.03,10.13-8.98,11.49-14.94,1.46-6.4,1.14-13.58-2.52-19.26-3.31-5.13-8.65-10.47-14.94-11.49h0Z"/>
  <path class="cls-1" d="M8472.52,2680.66c3.44.13,6.65-.59,9.63-2.15,3.1-1.01,5.78-2.73,8.05-5.17,2.44-2.26,4.16-4.95,5.17-8.05,1.57-2.98,2.28-6.19,2.15-9.63l-.89-6.65c-1.19-4.24-3.33-7.91-6.43-11.03-4.89-4.49-10.9-7.32-17.68-7.32-3.44-.13-6.65.59-9.63,2.15-3.1,1.01-5.78,2.73-8.05,5.17-2.44,2.26-4.16,4.95-5.17,8.05-1.57,2.98-2.28,6.19-2.15,9.63l.89,6.65c1.19,4.24,3.33,7.91,6.43,11.03,4.89,4.49,10.9,7.32,17.68,7.32h0Z"/>
  <path class="cls-1" d="M7624.61,1333.05c50.59-7.68,101.21-15.21,151.93-22.04l-6.65.89c68.87-9.25,137.93-17.22,207.23-22.46s135.58-7.83,203.4-6.13c35.2.88,70.39,3.18,105.31,7.83l-6.65-.89c49.54,6.69,98.51,18.28,144.69,37.68l-5.97-2.52c10.49,4.45,20.8,9.27,30.93,14.5,11.61,5.99,27.67,3.39,34.2-8.97,6.06-11.46,3.44-27.8-8.97-34.2-47.73-24.64-99.29-40.77-152.09-50.12-53.59-9.49-108.02-13.1-162.38-13.66-57.82-.6-115.66,1.67-173.33,5.82s-116.27,10.35-174.17,17.64-119.64,16.18-179.34,25.18c-7.15,1.08-14.29,2.16-21.44,3.25-5.78.88-12.13,6.68-14.94,11.49-3.14,5.36-4.46,13.26-2.52,19.26,1.96,6.05,5.71,11.89,11.49,14.94,6.33,3.34,12.24,3.59,19.26,2.52h0Z"/>
  <path class="cls-1" d="M7911.68,1347.64c91.35-8.38,182.84-16.66,274.62-18.12,45.86-.73,91.76.26,137.49,3.86,11.4.9,22.79,1.96,34.15,3.19,5.25.57,10.49,1.18,15.72,1.82,2.62.32,5.24.66,7.85,1,4.38.57-3.17-.45,1.2.16,1.74.24,3.48.49,5.23.74,22.24,3.2,44.38,7.13,66.34,11.88,90.27,19.52,176.73,53.02,263.2,84.8,89.26,32.8,178.52,65.6,267.78,98.39,89.26,32.8,178.52,65.6,267.78,98.39,11.21,4.12,22.42,8.24,33.63,12.36,12.3,4.52,27.93-5.05,30.75-17.46,3.22-14.13-4.3-25.92-17.46-30.75-89.69-32.96-179.38-65.91-269.07-98.87-89.69-32.96-179.38-65.91-269.07-98.87-86.85-31.91-173.45-66.29-263.32-88.95-90.21-22.75-183.54-31.44-276.41-31.9-92.23-.45-184.27,6.91-276.05,15.19-11.46,1.03-22.91,2.08-34.37,3.13-12.99,1.19-25.64,10.64-25,25,.56,12.52,11.05,26.28,25,25h0Z"/>
  <path class="cls-1" d="M7915.69,1314.94c24.62-2.2,49.37-2.3,74.02-.56,5.77.41,11.53.91,17.29,1.5,3.03.31,6.06.65,9.09,1.01,1.51.18,3.03.37,4.54.56,6.73.86-3.74-.58,1.52.2,12.11,1.8,24.17,3.79,36.17,6.17,48.4,9.59,95.71,23.98,142.47,39.59,43.54,14.54,86.9,29.72,129.86,45.9,20.78,7.82,41.46,15.91,61.98,24.37,2.56,1.06,5.13,2.12,7.68,3.19,1.02.43,2.05.86,3.07,1.28,5.42,2.26-5.24-2.24.16.07,5.1,2.18,10.19,4.35,15.27,6.57,10.15,4.43,20.25,8.96,30.29,13.61,40.49,18.73,80.12,39.38,118.16,62.7,18.71,11.47,37.02,23.58,54.83,36.4,4.45,3.21,8.88,6.46,13.26,9.75,1.98,1.48,3.94,2.98,5.91,4.48,1.26.97,4.39,3.63-.49-.39,1.27,1.04,2.6,2.03,3.89,3.05,8.65,6.81,17.15,13.8,25.49,20.98,15.86,13.65,31.08,28.03,45.53,43.18,7.26,7.62,14.33,15.42,21.2,23.39,3.02,3.51,6,7.05,8.94,10.62,3.5,4.26,6.67,9.41,10.6,13.26-.33-.32-3.63-4.75-1.08-1.39.78,1.02,1.56,2.05,2.34,3.07,1.4,1.85,2.78,3.7,4.16,5.57,3.36,4.55,6.65,9.15,9.88,13.8,5.86,8.44,11.52,17.02,16.93,25.76,10.79,17.39,20.67,35.35,29.5,53.81,2.2,4.59,4.33,9.22,6.4,13.87,1.02,2.29,1.84,4.8,3.04,6.99-.21-.38-2.35-5.67-.75-1.76.58,1.41,1.16,2.81,1.74,4.22,3.9,9.61,7.51,19.34,10.81,29.18,6.48,19.3,11.75,39.01,15.65,58.99.86,4.42,1.66,8.85,2.38,13.3.4,2.47.78,4.94,1.14,7.41.25,1.7.62,7.06-.07-.71.13,1.49.38,2.98.56,4.46,1.19,9.91,2.04,19.87,2.5,29.84.94,20,.39,40.08-1.74,59.99-.27,2.5-.57,5-.88,7.5-.65,5.29.72-4.95.19-1.4-.19,1.25-.36,2.5-.55,3.75-.76,5.01-1.63,10-2.59,14.98h48.21c-18.11-93.39-38.37-186.68-77.35-273.93-34.66-77.57-86.24-147.45-155.18-197.81-36.84-26.92-79.33-47.07-123.93-57.02-12.73-2.84-27.65,3.85-30.75,17.46-2.89,12.67,3.81,27.71,17.46,30.75,9.5,2.12,18.9,4.68,28.15,7.72,4.37,1.44,8.71,2.98,13,4.62,2.03.78,4.06,1.57,6.07,2.39,1.62.66,5.95,3.08-.62-.29,1.28.66,2.67,1.16,3.99,1.74,17.24,7.68,33.77,16.93,49.45,27.43,4.04,2.71,8.02,5.49,11.94,8.36,1.77,1.29,3.53,2.6,5.27,3.93,1.35,1.02,4.29,3.52-1-.79,1.13.92,2.3,1.81,3.45,2.72,7.64,6.11,15.05,12.51,22.22,19.17,14.06,13.07,27.2,27.12,39.4,41.94,1.57,1.91,3.12,3.82,4.66,5.75,1.23,1.55,5.8,8.49,1.56,1.94,2.66,4.11,5.96,7.91,8.82,11.9,5.75,8.02,11.24,16.21,16.49,24.56,11.04,17.57,20.9,35.85,29.83,54.57,2.49,5.22,4.91,10.48,7.25,15.77.94,2.11,1.86,4.23,2.78,6.36.54,1.25,3.2,6.57.19.41.76,1.55,1.34,3.21,1.99,4.81,4.39,10.71,8.51,21.52,12.39,32.42,7.59,21.31,14.27,42.94,20.29,64.74,13.79,49.96,24.1,100.8,33.96,151.66,1.99,10.27,13.82,18.81,24.11,18.35s22-7.34,24.11-18.35c16.27-84.84,5.32-172.57-26.84-252.47-32.64-81.09-83.27-154.34-146.38-214.77-65.59-62.8-143.41-112.31-224.52-152.49-82.64-40.94-169.34-73.14-256.43-103.17-95.89-33.07-195.18-65.01-297.75-64.28-12.23.09-24.43.69-36.61,1.78-6.75.6-12.74,2.38-17.68,7.32-4.34,4.34-7.6,11.45-7.32,17.68.56,12.55,11.05,26.25,25,25h0Z"/>
  <path class="cls-1" d="M8214.45,1349.9c14.04-.93,28.07-.33,42.01,1.54l-6.65-.89c28.53,3.98,55.99,13.07,82.46,24.24l-5.97-2.52c28.9,12.27,56.82,26.81,84.57,41.45,28.1,14.83,55.91,30.22,83.4,46.15,54.6,31.65,107.95,65.45,159.88,101.31,28.31,19.55,56.34,39.57,83.58,60.58l-5.06-3.91c36.6,28.29,71.71,59.06,100.19,95.73l-3.91-5.06c16.36,21.2,30.09,44.17,40.55,68.84l-2.52-5.97c13.5,32.21,21.47,66.34,26.17,100.87l-.89-6.65c6.19,46.21,6.75,92.92,6.97,139.47.06,13.07,11.46,25.61,25,25s25.06-10.99,25-25c-.32-70.59-1.36-142.91-21.35-211.19-9.95-33.98-24.81-66.74-44.97-95.9-19.73-28.54-43.22-54.19-68.94-77.41-25.84-23.33-53.62-44.46-81.7-65-29.92-21.88-60.35-43.07-91.26-63.54-61.45-40.69-124.77-78.55-189.71-113.41-31.91-17.13-64.07-34.23-97.37-48.52-36.32-15.57-73.58-27.74-113.29-30.26-8.73-.55-17.47-.53-26.19.05-6.67.44-12.84,2.49-17.68,7.32-4.34,4.34-7.6,11.45-7.32,17.68.57,12.8,11.03,25.93,25,25h0Z"/>
  <path class="cls-1" d="M8961.41,1982.92c.8-2.49,1.71-4.95,2.72-7.36l-2.52,5.97c2.8-6.48,6.4-12.53,10.7-18.13l-3.91,5.06c5.23-6.66,11.32-12.5,18.01-17.68l-5.06,3.91c10.81-8.25,22.86-14.64,35.36-19.93l-5.97,2.52c15.67-6.56,31.99-11.43,48.46-15.53,21.46-5.35,43.13-9.97,64.69-14.89,46.92-10.71,93.78-21.79,140.82-31.98,26.02-5.64,52.18-10.71,78.58-14.27l-6.65.89c41.96-5.58,84.42-6.9,126.65-3.75,11.96.89,23.89,2.14,35.78,3.72l-6.65-.89c30.34,4.09,60.35,10.42,89.75,18.97,10.22,2.97,23.15-1.87,28.23-11.49,2.08-3.93,3.21-8.18,3.41-12.62.31-6.98-3.24-12.51-7.32-17.68-26.24-33.19-63.78-55.88-103.42-69.48s-84.45-17.55-126.94-13.7c-49.7,4.51-97.8,17.48-145.01,33.17-47.11,15.66-93.72,32.87-140.13,50.48-46.51,17.66-92.8,35.92-139.05,54.24-5.81,2.3-11.61,4.6-17.42,6.9l19.26,2.52-.66-.49,5.06,3.91c-.78-.66-1.47-1.34-2.12-2.14l3.91,5.06c-.54-.76-.98-1.52-1.35-2.37l2.52,5.97c-.31-.85-.51-1.67-.65-2.57l.89,6.65c-.1-1.16-.07-2.26.09-3.41l-.89,6.65c.27-1.48.7-2.87,1.26-4.27l-2.52,5.97c1.14-2.58,2.63-4.92,4.34-7.16l-3.91,5.06c2.49-3.11,5.32-5.86,8.44-8.35l-5.06,3.91c7.3-5.61,16.13-9.24,24.29-13.4,9.45-4.82,18.92-9.61,28.4-14.36,18.61-9.31,37.33-18.42,56.24-27.1,10.92-5.01,21.92-9.87,32.99-14.54l-5.97,2.52c40.82-17.17,82.89-31.81,126.3-40.88,11.77-2.46,23.62-4.49,35.53-6.1l-6.65.89c36.38-4.84,73.31-5.56,109.72-.71l-6.65-.89c27.74,3.79,54.96,10.84,80.8,21.66l-5.97-2.52c1.77.75,3.54,1.51,5.3,2.29l5.97-45.69c-3.33.54-6.67,1.04-10.02,1.5l6.65-.89c-43.94,5.8-88.35,3.06-132.22-2.01-12.66-1.47-25.3-3.12-37.93-4.82l6.65.89c-52.65-7.09-105.48-15.35-158.77-13.62-48.17,1.56-96.26,10.25-139.89,31.31-23.53,11.36-45.38,27.12-63.33,46.12-8.6,9.1-9.65,22.86-1.95,32.83,3.19,4.13,7.75,7.77,12.99,8.96l6.65.89c4.51-.01,8.72-1.15,12.62-3.41,7.03-3.12,14.08-6.18,21.16-9.17l-5.97,2.52c38.41-16.18,77.64-30.38,117.52-42.49,39.88-12.11,80.38-22.15,121.3-30.08,23.04-4.46,46.21-8.25,69.47-11.37l-6.65.89c44.32-5.91,88.95-9.41,133.66-10.36,12.74-.27,25.49-.33,38.23-.2s25.6-11.6,25-25-10.98-24.85-25-25c-69.44-.72-138.78,4.79-207.36,15.67-66.34,10.52-131.8,26.57-195.47,47.96-37.72,12.67-74.76,27.3-111.13,43.46l30.3,39.26c6.69-7.07,13.89-13.61,21.56-19.6l-5.06,3.91c14.48-11.18,30.42-20.23,47.24-27.37l-5.97,2.52c23.88-10.03,49.15-16.19,74.77-19.7l-6.65.89c41.81-5.61,83.99-4.08,125.81.52,14.78,1.63,29.52,3.55,44.26,5.52l-6.65-.89c55.28,7.44,110.98,16.24,166.95,13.9,16.94-.71,33.81-2.58,50.54-5.31l5.97-2.52c1.69-1.3,3.37-2.61,5.06-3.91,3.91-3.91,6.15-8.94,6.88-14.35.61-4.57.09-8.7-1.71-12.95-1.92-4.54-5.54-9.88-10.23-11.95-16.39-7.25-33.1-13.54-50.43-18.18-17.36-4.64-35.04-7.61-52.86-9.77-31.82-3.87-64.09-3.48-95.92.15-34.5,3.94-68.39,10.98-101.6,21.13-34.16,10.43-67.38,23.72-100.02,38.17-30.97,13.71-61.32,28.75-91.52,44.08-14.92,7.57-31.2,14.13-43,26.41-6.47,6.74-12.42,15.25-14.71,24.46-3.14,12.62-.23,25.79,9.01,35.18,3.52,3.58,7.97,6.61,12.85,7.96,5.83,1.61,11.46.73,16.9-1.43,4.4-1.75,8.81-3.49,13.21-5.24,8.21-3.25,16.42-6.5,24.63-9.75,16.63-6.57,33.26-13.12,49.91-19.63,33.7-13.17,67.48-26.15,101.4-38.73,33.26-12.34,66.65-24.4,100.29-35.67s66.17-21.04,100.25-27.53c8.32-1.58,16.67-2.94,25.06-4.07l-6.65.89c28.8-3.79,57.97-4.63,86.81-.79l-6.65-.89c22.34,3.06,44.27,8.75,65.09,17.45l-5.97-2.52c16.5,6.98,32.15,15.83,46.37,26.74l-5.06-3.91c11.53,8.94,21.97,19.15,31.02,30.59,8.11-13.93,16.22-27.86,24.32-41.78-48.75-14.18-99.42-22.37-150.14-24.65-51.21-2.3-102.18,2.46-152.55,11.66-50.06,9.14-99.58,21.45-149.18,32.77-24.97,5.7-49.93,11.4-74.9,17.09-18.51,4.22-37,8.52-54.98,14.68-18.33,6.28-36.76,13.99-52.75,25.08s-31.97,26.28-40.95,44.82c-2.63,5.44-4.99,11.09-6.84,16.84-4,12.46,4.68,27.84,17.46,30.75,13.68,3.12,26.47-4.12,30.75-17.46h0Z"/>
  <path class="cls-1" d="M9393.17,1695.07c-8.54-.22-17.07-.74-25.56-1.61-2.25-.23-4.49-.5-6.74-.76-4.62-.54,5.53.81-.89-.13-4.45-.65-8.88-1.39-13.3-2.22-16.53-3.09-32.83-7.37-48.82-12.57-8.29-2.7-16.51-5.65-24.64-8.81-3.69-1.43-7.35-2.93-11.01-4.43-1.31-.54-4.11-2.1,1.27.54-.76-.37-1.57-.67-2.34-1.01-2.35-1.01-4.68-2.04-7.02-3.09-15.67-7.02-31.04-14.72-46.16-22.86-62.02-33.37-119.81-73.84-180.59-109.3-66.36-38.72-136.66-70.43-208.6-97.24s-143.63-47.82-216.93-66.51c-73.61-18.77-147.88-34.82-222.2-50.51-9.19-1.94-18.37-3.87-27.56-5.8-12.76-2.68-27.63,3.74-30.75,17.46-2.86,12.54,3.78,27.88,17.46,30.75,74.61,15.69,149.23,31.46,223.27,49.68,73.83,18.17,147.14,38.78,218.82,64.2,17.61,6.25,35.13,12.78,52.51,19.64,8.97,3.54,17.91,7.17,26.82,10.88.73.31,1.97.59,2.58,1.08-3.04-2.44-2.8-1.19-.81-.34s4.01,1.71,6.01,2.57c4.57,1.97,9.13,3.96,13.69,5.97,34.46,15.26,68.28,31.98,101.19,50.33,62.15,34.66,120.47,75.67,182.41,110.67,62.87,35.52,129.9,64.33,202.32,71.8,8.5.88,17.02,1.4,25.56,1.61,13.08.34,25.59-11.74,25-25s-10.98-24.64-25-25h0Z"/>
  <path class="cls-1" d="M8419.66,1412.68c15,.18,29.93,1.37,44.8,3.34l-6.65-.89c60.13,8.19,118.64,27.72,176.11,46.61,55.72,18.32,110.83,38.46,165.23,60.37,6.83,2.75,13.65,5.53,20.46,8.34,3.4,1.4,6.81,2.81,10.2,4.23,1.46.61,2.91,1.22,4.37,1.83.97.41,1.94.82,2.91,1.22,3.08,1.29-.53-.22-1.61-.68,13.54,5.8,27.08,11.58,40.56,17.53,26.94,11.91,53.69,24.26,80.23,37.04,52.84,25.45,104.85,52.62,155.92,81.45s101.2,59.33,150.28,91.44c6.16,4.03,12.31,8.09,18.44,12.17,10.91,7.26,28.15,2.49,34.2-8.97,6.64-12.57,2.68-26.45-8.97-34.2-51.45-34.25-104.06-66.74-157.74-97.38s-108.41-59.43-164.06-86.31-115.23-53.15-174.1-76.8c-57.35-23.04-115.49-44.12-174.29-63.16-62.57-20.26-126.27-40.76-192.18-46.07-8.03-.65-16.07-1.01-24.12-1.11-13.08-.16-25.6,11.61-25,25,.61,13.68,10.98,24.83,25,25h0Z"/>
  <path class="cls-1" d="M9269.54,1710.49c-24.02-.99-48.09-.88-72.1.34-26.04,1.33-51.95,4.08-77.77,7.76-23.7,3.37-47.24,7.82-70.53,13.32s-46.55,12.12-69.35,19.76c-24.65,8.26-48.83,17.81-72.61,28.29-2.7,1.19-5.39,2.4-8.08,3.61-2.91,1.57-5.25,3.72-7.01,6.44-2.21,2.41-3.7,5.25-4.47,8.5-1.04,3.32-1.19,6.65-.45,9.97.15,3.33,1.14,6.43,2.97,9.29,3.44,5.34,8.57,10.04,14.94,11.49l6.65.89c4.51-.01,8.72-1.15,12.62-3.41,6.37-2.89,12.78-5.7,19.22-8.42l-5.97,2.52c25.08-10.57,50.7-19.84,76.74-27.75s52.49-14.48,79.2-19.67c15.02-2.92,30.13-5.4,45.29-7.45l-6.65.89c35.53-4.77,71.37-7.16,107.22-7.06,10.06.03,20.11.26,30.16.67,6.24.26,13.33-2.97,17.68-7.32,2.44-2.26,4.16-4.95,5.17-8.05,1.57-2.98,2.28-6.19,2.15-9.63-.29-6.47-2.41-13.17-7.32-17.68s-10.82-7.04-17.68-7.32h0Z"/>
  <path class="cls-1" d="M8889.81,1802.61c18.22-4.06,36.44-8.13,54.66-12.19s36.44-8.13,54.66-12.19,36.62-8.17,54.94-12.25c18.22-4.06,36.44-8.13,54.66-12.19,18.22-4.06,36.44-8.13,54.66-12.19,2.28-.51,4.56-1.02,6.83-1.52,3.25-.77,6.09-2.27,8.5-4.47,2.72-1.76,4.87-4.1,6.44-7.01,1.83-2.87,2.82-5.97,2.97-9.29.74-3.32.6-6.65-.45-9.97-1.96-6.05-5.71-11.89-11.49-14.94l-5.97-2.52c-4.43-1.19-8.86-1.19-13.29,0-18.22,4.06-36.44,8.13-54.66,12.19s-36.44,8.13-54.66,12.19c-18.31,4.08-36.62,8.17-54.94,12.25s-36.44,8.13-54.66,12.19-36.44,8.13-54.66,12.19l-6.83,1.52c-3.25.77-6.09,2.27-8.5,4.47-2.72,1.76-4.87,4.1-6.44,7.01-1.83,2.87-2.82,5.97-2.97,9.29-.74,3.32-.6,6.65.45,9.97,1.96,6.05,5.71,11.89,11.49,14.94l5.97,2.52c4.43,1.19,8.86,1.19,13.29,0h0Z"/>
  <path class="cls-1" d="M9159.25,1675.78c-35.42-9.9-70.04-22.45-103.91-36.74l5.97,2.52c-34.92-14.77-69.05-31.35-102.71-48.79s-67.22-35.95-100.6-54.34-66.73-36.75-100.58-54.21c-35.42-18.28-71.39-35.36-108.17-50.75-34.79-14.56-70.4-27.25-106.84-37.04-4.53-1.22-9.07-2.38-13.63-3.51-6.4-1.59-13.52-.84-19.26,2.52-5.19,3.03-10.13,8.98-11.49,14.94-2.94,12.93,3.88,27.39,17.46,30.75,42.37,10.5,83.62,25,123.82,41.96l-5.97-2.52c33.59,14.21,66.44,30.1,98.84,46.82,32.76,16.91,65.08,34.66,97.36,52.44,32.16,17.72,64.31,35.47,96.85,52.48,32.38,16.93,65.17,33.12,98.68,47.7,35.21,15.33,71.04,29.23,107.86,40.22,4.33,1.29,8.67,2.54,13.02,3.76,12.59,3.52,27.76-4.33,30.75-17.46,3.02-13.26-3.98-26.98-17.46-30.75h0Z"/>
  <path class="cls-1" d="M8572.31,1467.72c.49.2.98.41,1.46.61l-5.97-2.52c16.9,7.14,33.4,15.18,49.45,24.08s31.48,18.53,46.49,28.92c8.48,5.87,16.8,11.97,24.96,18.27l-5.06-3.91c18.88,14.59,36.9,30.28,54.06,46.85,17.28,16.69,33.7,34.26,49.29,52.53,8.87,10.39,17.48,21.02,25.84,31.83l-3.91-5.06c12.5,16.19,24.44,32.81,35.85,49.79,11.39,16.96,22.26,34.27,32.63,51.88,5.84,9.91,11.51,19.9,17.04,29.98,2.97,5.42,9.05,9.87,14.94,11.49,3.32,1.04,6.65,1.19,9.97.45,3.33-.15,6.43-1.14,9.29-2.97,5.34-3.44,10.04-8.57,11.49-14.94s.81-13.19-2.52-19.26c-15.31-27.91-31.77-55.2-49.52-81.64-18.86-28.1-39.2-55.27-60.93-81.21-20.3-24.22-42-47.28-65.22-68.72-24.44-22.57-50.59-43.45-78.15-62.08-25.96-17.55-53.38-32.94-82.02-45.66-5.36-2.38-10.76-4.65-16.17-6.91-3.32-1.04-6.65-1.19-9.97-.45-3.33.15-6.43,1.14-9.29,2.97-2.91,1.57-5.25,3.72-7.01,6.44-2.21,2.41-3.7,5.25-4.47,8.5-1.46,6.4-1.14,13.58,2.52,19.26l3.91,5.06c3.12,3.1,6.8,5.24,11.03,6.43h0Z"/>
  <path class="cls-1" d="M8917.79,1758.72c25.23-1.55,50.47-3.09,75.7-4.64s50.3-3.08,75.46-4.62c14.19-.87,28.39-1.74,42.58-2.61,3.44.13,6.65-.59,9.63-2.15,3.1-1.01,5.78-2.73,8.05-5.17,2.44-2.26,4.16-4.95,5.17-8.05,1.57-2.98,2.28-6.19,2.15-9.63l-.89-6.65c-1.19-4.24-3.33-7.91-6.43-11.03l-5.06-3.91c-3.9-2.26-8.11-3.4-12.62-3.41-25.23,1.55-50.47,3.09-75.7,4.64-25.15,1.54-50.3,3.08-75.46,4.62-14.19.87-28.39,1.74-42.58,2.61-3.44-.13-6.65.59-9.63,2.15-3.1,1.01-5.78,2.73-8.05,5.17-2.44,2.26-4.16,4.95-5.17,8.05-1.57,2.98-2.28,6.19-2.15,9.63l.89,6.65c1.19,4.24,3.33,7.91,6.43,11.03l5.06,3.91c3.9,2.26,8.11,3.4,12.62,3.41h0Z"/>
  <path class="cls-1" d="M9052.7,1677.96c-8.15-.07-16.29-.66-24.37-1.73l6.65.89c-16.13-2.17-31.94-6.27-47.23-11.83-4.39-1.6-8.74-3.31-13.04-5.13l5.97,2.52c-15.53-6.57-30.47-14.46-44.91-23.16s-28.87-18.53-42.73-28.63c-7.8-5.69-15.5-11.51-23.14-17.41l5.06,3.91c-6.96-5.38-13.87-10.82-20.76-16.29-6.38-5.06-12.69-10.33-17.71-16.8l3.91,5.06c-2.04-2.66-3.82-5.5-5.15-8.58l2.52,5.97c-.93-2.21-1.59-4.49-1.94-6.86l.89,6.65c-.26-2.05-.27-4.1-.02-6.15l-.89,6.65c.03-.25.07-.5.11-.74,1.04-3.32,1.19-6.65.45-9.97-.15-3.33-1.14-6.43-2.97-9.29-1.57-2.91-3.72-5.25-6.44-7.01-2.41-2.21-5.25-3.7-8.5-4.47l-6.65-.89c-4.51.01-8.72,1.15-12.62,3.41l-5.06,3.91c-3.1,3.12-5.24,6.8-6.43,11.03-.65,4.17-1.52,8.56-1.07,12.83.43,4.05.81,8.3,2.14,12.2,1.01,2.95,2.3,5.82,3.59,8.65.45,1,.96,1.98,1.51,2.93,2.08,3.64,4.82,6.92,7.38,10.2,5.75,7.35,13.12,13.11,20.39,18.86,17.09,13.53,34.3,26.96,52.04,39.64,16.21,11.59,32.89,22.54,50.34,32.18,8.52,4.71,17.21,9.09,26.1,13.06,10.63,4.74,21.42,9.16,32.49,12.76,9.15,2.98,18.48,5.42,27.94,7.21,11.48,2.18,23.18,3.69,34.86,4.23,2.43.11,4.86.17,7.3.19,3.44.13,6.65-.59,9.63-2.15,3.1-1.01,5.78-2.73,8.05-5.17,2.44-2.26,4.16-4.95,5.17-8.05,1.57-2.98,2.28-6.19,2.15-9.63l-.89-6.65c-1.19-4.24-3.33-7.91-6.43-11.03l-5.06-3.91c-3.9-2.26-8.11-3.4-12.62-3.41h0Z"/>
  <path class="cls-1" d="M8790.16,1561.18c18.06,24.2,35.15,49.11,51.21,74.67,15.98,25.43,30.96,51.5,44.87,78.12,7.81,14.94,15.28,30.06,22.41,45.33,2.22,3.76,5.21,6.75,8.97,8.97,2.87,1.83,5.97,2.82,9.29,2.97,3.32.74,6.65.6,9.97-.45,4.24-1.19,7.91-3.33,11.03-6.43,14.93-17.1,29.58-34.45,43.94-52.04,3.42-4.19,6.86-8.36,10.18-12.63,4.25-5.45,8.58-10.88,12.13-16.82,1.27-2.12,2.43-4.3,3.45-6.55,1.8-3.98,3.63-8.07,4.88-12.28s1.72-8.61,2.23-12.97c.22-1.89.28-3.8.18-5.71-.11-2.02-.42-4.01-.69-6.01s-.5-4.12-.94-6.14c-.42-1.91-1.01-3.76-1.75-5.56-1.46-3.57-2.82-7.34-4.98-10.59-1.62-2.44-3.49-4.75-5.34-7.01-.61-.74-1.26-1.45-1.95-2.12-2.79-2.67-5.92-5.16-9.29-7.06-2.54-1.43-5.34-2.44-8.02-3.52-.95-.38-1.9-.72-2.89-.99-1.93-.52-3.91-.7-5.89-.97s-3.99-.63-6.01-.64c-3.93-.03-7.93.57-11.74,1.48s-7.34,2.62-10.72,4.19c-1.79.83-3.49,1.85-5.09,3-4.98,3.54-9.71,7.33-13.73,11.93-6.97,7.99-12.96,16.82-17.51,26.4-9.84,20.72-19.43,41.57-29.14,62.36-1.19,2.55-2.39,5.11-3.58,7.66-1.83,2.87-2.82,5.97-2.97,9.29-.74,3.32-.6,6.65.45,9.97.77,3.25,2.27,6.09,4.47,8.5,1.76,2.72,4.1,4.87,7.01,6.44l5.97,2.52c4.43,1.19,8.86,1.19,13.29,0l5.97-2.52c3.76-2.22,6.75-5.21,8.97-8.97,5.82-12.46,11.65-24.93,17.47-37.39,2.95-6.31,5.89-12.61,8.84-18.92,2.64-5.64,5.14-11.37,7.99-16.91,2.67-5.2,5.75-10.2,9.31-14.83l-3.91,5.06c2.94-3.79,6.22-7.33,10-10.3l-5.06,3.91c2.27-1.75,4.7-3.26,7.33-4.4l-5.97,2.52c1.93-.81,3.94-1.39,6.01-1.68l-6.65.89c1.88-.24,3.76-.24,5.64,0l-6.65-.89c1.88.28,3.7.79,5.46,1.51l-5.97-2.52c1.59.69,3.07,1.55,4.46,2.59l-5.06-3.91c1.52,1.18,2.87,2.54,4.07,4.05l-3.91-5.06c1.47,1.9,2.65,3.98,3.59,6.19l-2.52-5.97c1.11,2.69,1.85,5.5,2.24,8.38l-.89-6.65c.38,3.01.38,6.05-.01,9.06l.89-6.65c-.53,3.73-1.66,7.35-3.11,10.81l2.52-5.97c-2.92,6.82-7.14,12.95-11.65,18.8l3.91-5.06c-6.68,8.63-13.7,17.01-20.67,25.42s-14.25,17.04-21.47,25.47c-4.15,4.84-8.31,9.65-12.5,14.45l39.26,5.06c-12.78-27.35-26.64-54.2-41.56-80.44-14.84-26.11-30.73-51.63-47.6-76.48-9.47-13.95-19.25-27.68-29.33-41.19-1.57-2.91-3.72-5.25-6.44-7.01-2.41-2.21-5.25-3.7-8.5-4.47-3.32-1.04-6.65-1.19-9.97-.45-3.33.15-6.43,1.14-9.29,2.97l-5.06,3.91c-3.1,3.12-5.24,6.8-6.43,11.03l-.89,6.65c.01,4.51,1.15,8.72,3.41,12.62h0Z"/>
  <path class="cls-2" d="M6919.96,1571.23c38.87,2.78,77.63,6.76,116.26,11.92l-13.29-1.79c154.32,20.78,306.03,60.49,450.54,118.54,5.67,2.28,11.34,4.59,16.99,6.92,2.85,1.18,5.69,2.37,8.53,3.55,7.84,3.27-2.58-1-3.39-1.43,10.93,5.83,23.1,9.96,34.42,15.04,22.49,10.1,44.78,20.65,66.84,31.64,38.5,19.17,76.33,39.68,113.39,61.5,40.43,23.8,79.86,49.29,118.25,76.24,12.46,8.75,24.82,17.65,37.06,26.7,6.37,4.71,12.71,9.46,19.02,14.25,3.54,2.69,7.06,5.41,10.6,8.11-14.71-11.19-.83-.63,2.45,1.94,29.69,23.26,58.7,47.39,86.98,72.35,66.25,58.45,128.52,121.41,186.21,188.32,15.79,18.31,31.23,36.92,46.32,55.81,4.12,5.16,8.21,10.34,12.28,15.54,1.65,2.11,9.08,11.1.47.56,1.42,1.74,2.76,3.59,4.13,5.37,8.16,10.66,16.21,21.42,24.14,32.25,29.28,39.99,57,81.11,83.1,123.24,47.13,76.1,88.92,155.49,125.1,237.36,4.01,9.07,7.93,18.18,11.82,27.31,2.63,6.17-5.13-12.28-1.41-3.33,1.02,2.45,2.05,4.9,3.06,7.36,2.01,4.87,4.01,9.75,5.98,14.63,7.37,18.23,14.47,36.57,21.29,55.01,12.72,34.38,24.49,69.11,35.29,104.14,18.01,58.41,33.34,117.64,45.93,177.45,2.54,12.07,4.96,24.17,7.29,36.28,4.93,25.74,37.23,42.78,61.51,34.92,27.46-8.89,40.21-33.93,34.92-61.51-27.62-144.14-71.54-284.19-129.08-419.14-81.1-190.21-192.76-366.51-328.65-522.31-111.18-127.48-239.3-240.51-379.27-335.49-133.83-90.81-280.35-162.83-432.9-216.31-149.61-52.46-305.69-85.29-463.51-99.8-12.88-1.18-25.77-2.23-38.67-3.15-26.15-1.87-51.15,24.34-50,50,1.29,28.69,21.99,47.99,50,50h0Z"/>
  <path class="cls-2" d="M8528.3,1251.9c53.51,66.54,106.99,133.12,159.97,200.08,12.28,15.52,24.51,31.07,36.62,46.73l-7.82-10.12c15.51,20.09,30.97,40.28,45.16,61.33,8.38,12.43,16.49,25.26,22.35,39.1l-5.04-11.94c3.1,7.42,5.38,15.1,6.47,23.08l-1.79-13.29c1.25,9.47,1.06,19.09-.08,28.56l1.79-13.29c-1.45,10.7-4.31,21.01-8.48,30.97l5.04-11.94c-5.22,12.03-12.11,23.1-20.06,33.49,2.61-3.37,5.21-6.75,7.82-10.12-25.97,33.35-60.49,58.89-92.56,85.95-28.59,24.13-54.65,49.87-76.72,80.15-24.76,33.97-41.96,74.12-52.64,114.63-14.3,54.23-18.05,111.57-15.33,167.43,3.78,77.66,18.45,154.94,38.31,229.99,27.09,102.34,64.25,201.76,105.38,299.2,6.64,15.74,13.35,31.45,20.19,47.11,4.68,10.71,19.15,20.02,29.88,22.98,11.97,3.3,27.91,1.81,38.53-5.04s20.07-17.13,22.98-29.88l1.79-13.29c-.03-9.03-2.3-17.44-6.83-25.24-5.98-13.67-11.87-27.38-17.67-41.13l5.04,11.94c-49.03-116.44-92.6-236.33-118.86-360.16-5.6-26.39-10.32-52.96-13.95-79.69l1.79,13.29c-6.24-46.49-9.24-93.6-6.17-140.46.73-11.16,1.82-22.28,3.3-33.37l-1.79,13.29c4.42-32.69,12.31-64.94,25.08-95.41l-5.04,11.94c9.6-22.7,21.87-44.19,36.92-63.73l-7.82,10.12c34.64-44.71,82.31-76.27,123.51-114.3,44.42-41,82.74-96.49,77.13-159.94-1.16-13.08-3.01-25.87-7.77-38.12-5.86-15.09-12.83-29.21-21.47-42.87-27.59-43.63-61.03-83.84-92.98-124.28-54.1-68.46-108.77-136.48-163.45-204.48-7.52-9.35-23.92-14.64-35.36-14.64-12.26,0-26.91,5.45-35.36,14.64s-15.24,22.04-14.64,35.36c.63,14.04,5.89,24.46,14.64,35.36h0Z"/>
  <path class="cls-1" d="M6849.33,5304.17c62.79-8.04,126.06-12.18,189.36-12.41,63.3-.23,126.61,3.43,189.47,10.87,63.19,7.48,125.93,18.85,187.75,33.93,61.5,15.01,122.09,33.72,181.32,56.05,59.8,22.55,118.19,48.82,174.7,78.67,6.84,3.62,13.66,7.29,20.45,11.01,2.82,1.55,5.35-2.77,2.52-4.32-55.72-30.5-113.32-57.52-172.37-80.91-59.11-23.41-119.65-43.19-181.17-59.23-61.8-16.12-124.57-28.46-187.86-36.99s-126.42-13.18-189.94-13.97c-63.57-.79-127.18,2.32-190.36,9.42-7.97.9-15.93,1.86-23.88,2.88-3.15.4-3.19,5.41,0,5h0Z"/>
  <path class="cls-1" d="M6973.2,5319.35c17.81,1.85,35.6,3.96,53.35,6.34l-19.94-2.68c61.64,8.29,122.84,19.75,183.3,34.37,60.45,14.62,120.14,32.37,178.75,53.17,32.84,11.65,65.32,24.27,97.43,37.81l-17.92-7.56c3.3,1.39,6.59,2.8,9.89,4.21,8.61,5.48,17.9,8.45,27.88,8.9,9.97,2.23,19.94,1.79,29.91-1.34,9.76-2.32,18.26-6.8,25.51-13.42,8.16-5.29,14.6-12.3,19.32-21.04l7.56-17.92c3.57-13.29,3.57-26.58,0-39.88-2.52-5.97-5.04-11.94-7.56-17.92-6.67-11.27-15.64-20.24-26.91-26.91-38.14-16.36-76.54-32.02-115.57-46.12-33.38-12.06-67.12-23.13-101.15-33.19-33.88-10.02-68.05-19.04-102.46-27.04-34.57-8.04-69.38-15.06-104.36-21.05-41.1-7.03-82.47-12.73-123.91-17.33-4.37-.49-8.74-.95-13.11-1.41-10.33-.39-19.96,1.76-28.9,6.46-9.3,3.02-17.34,8.19-24.14,15.51-7.31,6.79-12.48,14.84-15.51,24.14-4.7,8.94-6.85,18.57-6.46,28.9.89,6.65,1.79,13.29,2.68,19.94,3.56,12.71,9.99,23.74,19.29,33.1,5.06,3.91,10.12,7.82,15.18,11.73,11.7,6.78,24.32,10.2,37.85,10.24h0Z"/>
  <path class="cls-1" d="M7042.91,5214.59c-31.53-19.03-62.21-39.46-91.91-61.23-8.38-6.14-16.68-12.39-24.9-18.74,5.06,3.91,10.12,7.82,15.18,11.73-15.39-11.89-30.51-24.14-45.33-36.74-14.75-12.54-29.2-25.43-43.34-38.64-14.21-13.28-28.11-26.89-41.68-40.83-13.57-13.93-26.81-28.19-39.71-42.75-12.84-14.49-25.33-29.28-37.47-44.36-1.54-1.91-3.07-3.83-4.6-5.75-6.79-7.31-14.84-12.48-24.14-15.51-8.94-4.7-18.57-6.85-28.9-6.46-10.33-.39-19.96,1.76-28.9,6.46-9.3,3.02-17.34,8.19-24.14,15.51l-11.73,15.18c-6.78,11.7-10.2,24.32-10.24,37.85.89,6.65,1.79,13.29,2.68,19.94,3.56,12.71,9.99,23.74,19.29,33.1,17.87,22.47,36.52,44.31,55.91,65.47,19.39,21.16,39.52,41.65,60.34,61.42,20.82,19.76,42.32,38.81,64.46,57.08,26.83,22.15,54.45,43.45,82.75,63.71,23.26,16.65,47.11,32.5,71.47,47.49,3.06,1.88,6.12,3.75,9.19,5.6,8.61,5.48,17.9,8.45,27.88,8.9,9.97,2.23,19.94,1.79,29.91-1.34,9.76-2.32,18.26-6.8,25.51-13.42,8.16-5.29,14.6-12.3,19.32-21.04,2.52-5.97,5.04-11.94,7.56-17.92,3.57-13.29,3.57-26.58,0-39.88-2.52-5.97-5.04-11.94-7.56-17.92-6.67-11.27-15.64-20.24-26.91-26.91h0Z"/>
  <path class="cls-1" d="M2011.91,7162.02c1214.8,160.17,2429.75,240.65,3644.83,241.41,1226.65.77,2453.39-79.71,3680.21-241.41"/>
  <path class="cls-1" d="M1426.27,9525.76c1410.32,155.38,2820.79,233.45,4231.43,234.18,1424.07.74,2848.24-77.32,4272.5-234.18"/>
  <rect class="cls-1" x="3561.73" y="7502.75" width="4233" height="628.94" rx="123.62" ry="123.62"/>
  <path class="cls-1" d="M6104.56,4858.47c-9.91,16.86-14.57,35.17-15.69,54.57-.55,9.57,1.07,19.28,2.52,28.66.84,5.45,2.17,10.8,4,16.01,5.04,14.36,11.43,28.43,20.69,40.56,5.83,7.64,11.5,15.31,18.43,21.97s14.76,12.63,22.65,18.1c5.23,3.62,10.84,6.69,16.59,9.4,9.79,4.6,19.87,8.88,30.21,12.13,16.96,5.33,34.83,7.72,52.45,9.53,28.7,2.93,57.71,1.3,86.45-.28,68.05-3.75,135.86-11.2,203.23-21.53,31.26-4.8,62.42-10.31,93.41-16.64,29.8-6.09,59.43-14.3,86.26-29.05,5.55-3.05,10.87-6.5,15.92-10.33,7.98-6.06,16.25-12.07,23.06-19.5,6.41-7,12.37-14.69,17.32-22.82,5.01-8.21,8.67-17.38,12.07-26.3,1.98-5.2,3.48-10.59,4.42-16.08,1.61-9.38,3.21-19.2,2.88-28.81s-1.5-19.14-4.01-28.27c-.66-2.41-1.5-4.75-2.44-7.06-2.51-6.13-4.84-12.54-8.23-18.28-4.64-7.85-10.46-15.4-17.13-21.66-9.54-8.95-22.11-14.64-35.36-14.64-6.88-.26-13.31,1.18-19.26,4.31-6.2,2.02-11.56,5.46-16.09,10.34-8.75,9.53-15.24,22.04-14.64,35.36s4.89,26.2,14.64,35.36c2.07,1.94,3.97,4.01,5.72,6.24l-7.82-10.12c2.74,3.6,4.99,7.48,6.78,11.63l-5.04-11.94c2.02,4.88,3.36,9.96,4.1,15.19-.6-4.43-1.19-8.86-1.79-13.29.83,6.41.76,12.85-.05,19.25.6-4.43,1.19-8.86,1.79-13.29-1.04,7.64-3.11,15.05-6.09,22.16l5.04-11.94c-2.95,6.87-6.7,13.33-11.26,19.25,2.61-3.37,5.21-6.75,7.82-10.12-4.82,6.13-10.51,11.45-16.65,16.24l10.12-7.82c-9.37,7.18-19.71,12.87-30.55,17.5l11.94-5.04c-20.66,8.71-42.61,13.62-64.52,18.02-26.51,5.32-53.14,10.1-79.85,14.33-15.16,2.4-30.34,4.61-45.55,6.66l13.29-1.79c-33.46,4.48-67.03,8.12-100.67,10.88s-64.74,4.91-97.15,5.41c-16.54.26-33.11-.23-49.52-2.38l13.29,1.79c-15.29-2.07-30.34-5.65-44.62-11.57l11.94,5.04c-9.17-3.88-17.96-8.6-25.89-14.64,3.37,2.61,6.75,5.21,10.12,7.82-7.11-5.5-13.45-11.87-18.98-18.95,2.61,3.37,5.21,6.75,7.82,10.12-5.62-7.3-10.31-15.23-13.9-23.72l5.04,11.94c-2.92-7.07-5.02-14.42-6.11-21.99l1.79,13.29c-.89-6.63-.97-13.29-.11-19.93-.6,4.43-1.19,8.86-1.79,13.29.8-5.6,2.26-11.04,4.43-16.27l-5.04,11.94c1.14-2.66,2.45-5.24,3.92-7.74,3.65-5.74,5.63-11.94,5.93-18.59,1.49-6.65,1.19-13.29-.89-19.94-1.55-6.51-4.53-12.17-8.95-17-3.53-5.44-8.2-9.74-14.03-12.88-11.6-6.13-25.66-9.2-38.53-5.04s-23.14,11.51-29.88,22.98h0Z"/>
  <path class="cls-1" d="M8372.17,2834.3c6.88.26,13.31-1.18,19.26-4.31,6.2-2.02,11.56-5.46,16.09-10.34,4.88-4.53,8.32-9.89,10.34-16.09,3.13-5.96,4.57-12.38,4.31-19.26l-1.79-13.29c-2.38-8.47-6.66-15.82-12.86-22.06l-10.12-7.82c-7.8-4.52-16.21-6.8-25.24-6.83-6.88-.26-13.31,1.18-19.26,4.31-6.2,2.02-11.56,5.46-16.09,10.34-4.88,4.53-8.32,9.89-10.34,16.09-3.13,5.96-4.57,12.38-4.31,19.26l1.79,13.29c2.38,8.47,6.66,15.82,12.86,22.06l10.12,7.82c7.8,4.52,16.21,6.8,25.24,6.83h0Z"/>
  <path class="cls-1" d="M8324.43,2787.39c1.82.08,3.65.03,5.46-.19,3.93-.47,7.94-.87,11.78-1.89,1.75-.47,3.47-1.05,5.16-1.72,3.66-1.45,7.34-2.96,10.87-4.72,6.83-3.4,13.13-7.74,19.67-11.66,3.69-2.21,7.46-4.29,11.42-5.97l-5.97,2.52c3.44-1.43,7.01-2.53,10.71-3.06l-6.65.89c2.02-.27,4.05-.36,6.09-.27,3.44.13,6.65-.59,9.63-2.15,3.1-1.01,5.78-2.73,8.05-5.17,2.44-2.26,4.16-4.95,5.17-8.05,1.57-2.98,2.28-6.19,2.15-9.63l-.89-6.65c-1.19-4.24-3.33-7.91-6.43-11.03l-5.06-3.91c-3.9-2.26-8.11-3.4-12.62-3.41-1.82-.08-3.65-.03-5.46.19-3.93.47-7.94.87-11.78,1.89-1.75.47-3.47,1.05-5.16,1.72-3.66,1.45-7.34,2.96-10.87,4.72-6.83,3.4-13.13,7.74-19.67,11.66-3.69,2.21-7.46,4.29-11.42,5.97l5.97-2.52c-3.44,1.44-7.01,2.53-10.71,3.06l6.65-.89c-2.02.27-4.05.36-6.09.27-3.44-.13-6.65.59-9.63,2.15-3.1,1.01-5.78,2.73-8.05,5.17-2.44,2.26-4.16,4.95-5.17,8.05-1.57,2.98-2.28,6.19-2.15,9.63l.89,6.65c1.19,4.24,3.33,7.91,6.43,11.03l5.06,3.91c3.9,2.26,8.11,3.4,12.62,3.41h0Z"/>
  <path class="cls-1" d="M9691.65,1874.96c-2.22.36-4.45.7-6.68,1l6.65-.89c-25.73,3.39-51.69,2.34-77.37-1.05l6.65.89c-44.65-6.02-88.04-18.56-132.25-26.9-23.68-4.47-47.73-7.94-71.84-8.78-25.46-.88-50.76,1.34-75.96,4.8-46.87,6.44-92.64,18.88-138.32,30.88-43.28,11.37-86.52,23.04-128.96,37.28-48.95,16.42-97.11,36.24-141.88,62.1-11.33,6.54-16.26,22.9-8.97,34.2s22.08,15.97,34.2,8.97c23.22-13.42,47.35-25.16,72.04-35.61l-5.97,2.52c40.76-17.16,82.88-30.79,125.38-42.93s86.49-23.86,130.05-34.37c25.48-6.15,51.16-11.53,77.15-15.02l-6.65.89c34.92-4.6,69.89-5.16,104.83-.47l-6.65-.89c66.41,9.12,130.49,32.09,197.79,35.27,20.16.95,40.13-.45,60.04-3.69,5.8-.94,12.1-6.63,14.94-11.49,3.14-5.36,4.46-13.26,2.52-19.26s-5.71-11.89-11.49-14.94c-6.3-3.33-12.27-3.66-19.26-2.52h0Z"/>
  <path class="cls-1" d="M9131.46,1623.78c13.39,1.97,26.5,5.52,39.19,10.2,3.61,1.33,7.18,2.75,10.72,4.25l-5.97-2.52c20.58,8.71,40.01,19.86,59.16,31.3,19.39,11.58,38.58,23.53,58.66,33.88,12.98,6.69,26.37,12.69,40.07,17.76,3.32,1.04,6.65,1.19,9.97.45,3.33-.15,6.43-1.14,9.29-2.97,2.91-1.57,5.25-3.72,7.01-6.44,2.21-2.41,3.7-5.25,4.47-8.5l.89-6.65c-.01-4.51-1.15-8.72-3.41-12.62l-3.91-5.06c-3.12-3.1-6.8-5.24-11.03-6.43-3.72-1.38-7.41-2.84-11.07-4.39l5.97,2.52c-12.79-5.42-25.17-11.76-37.29-18.53-12.21-6.81-24.17-14.05-36.15-21.26s-23.98-14.39-36.27-21.06c-13.84-7.52-28.08-14.21-42.74-20-12.68-5.01-25.79-8.97-39.22-11.34-1.69-.3-3.38-.57-5.08-.82-3.32-1.04-6.65-1.19-9.97-.45-3.33.15-6.43,1.14-9.29,2.97-2.91,1.57-5.25,3.72-7.01,6.44-2.21,2.41-3.7,5.25-4.47,8.5l-.89,6.65c.01,4.51,1.15,8.72,3.41,12.62l3.91,5.06c3.12,3.1,6.8,5.24,11.03,6.43h0Z"/>
  <path class="cls-1" d="M9692.83,1852.15c-23.65-20.13-48.81-38.46-74.74-55.54-25.31-16.67-51.35-32.19-77.53-47.44-27.76-16.17-55.6-32.2-83.41-48.28s-56.92-32.93-85.37-49.39c-7.11-4.12-14.23-8.23-21.34-12.35-6.29-3.64-12.5-7.58-19.01-10.81-12.77-6.34-28.51-10.99-41.93-3.74-4,2.16-6.75,5.29-9.45,8.82l-1.26,2.99c-.52,1.66-.6,3.32-.22,4.98.35,2.59,1.42,5.39,3.44,7.18,25.76,22.85,54.83,41.99,86.25,56.11,9.46,4.25,19.08,8.15,28.86,11.58,2.22-8.04,4.43-16.07,6.65-24.11-6.55-1.47-12.93-3.51-19.12-6.1l2.99,1.26c-9.37-3.97-18.16-9.13-26.22-15.34l2.53,1.95c-7.7-6-14.63-12.91-20.63-20.61l1.95,2.53c-2.85-3.7-5.47-7.57-7.85-11.59l-17.1,17.1c22.22,16.97,44.73,33.55,67.54,49.72,22.81,16.17,45.9,31.94,69.26,47.29s46.79,30.16,70.58,44.61,48.04,28.61,72.43,42.27c24.39,13.66,49.02,26.89,73.89,39.68,3.07,1.58,6.14,3.15,9.21,4.71,5.6,2.85,12.19,1.87,16.13-3.22s3.45-11.96-.98-16.41c-14.74-14.84-40.45-17.91-57.8-5.76l18.36,7.47c-7.16-26.72-32.21-41.97-53.63-56.54-25.2-17.15-50.4-34.3-75.6-51.45-14.24-9.69-28.49-19.39-42.73-29.08-5.42-3.69-14.1-1.2-17.1,4.48-3.35,6.33-1.3,13.17,4.48,17.1,37.58,25.58,75.17,51.15,112.75,76.73,9.3,6.33,18.8,12.46,27.74,19.31l-2.53-1.95c6.23,4.82,12.14,10.08,17,16.31l-1.95-2.53c2.63,3.44,4.88,7.11,6.61,11.08l-1.26-2.99c.85,2.01,1.56,4.07,2.12,6.18,1.95,7.29,11.68,12.15,18.36,7.47,1.82-1.27,3.74-2.34,5.78-3.22l-2.99,1.26c2.74-1.13,5.56-1.88,8.49-2.28l-3.32.45c3.13-.39,6.26-.37,9.38.03l-3.32-.45c3.12.45,6.13,1.27,9.03,2.5l-2.99-1.26c2.37,1.04,4.58,2.32,6.65,3.86l-2.53-1.95c1.17.9,2.27,1.87,3.31,2.92,5.05-6.54,10.1-13.09,15.15-19.63-24.91-12.68-49.61-25.8-74.06-39.35-24.45-13.55-48.66-27.54-72.62-41.96-23.85-14.35-47.45-29.12-70.77-44.3-23.43-15.25-46.59-30.91-69.47-46.98-22.88-16.07-45.47-32.55-67.76-49.42-2.75-2.08-5.49-4.17-8.23-6.26l-2.99-1.26c-1.66-.52-3.32-.6-4.98-.22-2.62.35-5.33,1.43-7.18,3.44-3.75,4.09-4.87,10.23-1.95,15.15,13.45,22.72,34.32,41.37,58.62,51.79,7.37,3.16,14.83,5.84,22.67,7.59,6.37,1.43,13.83-1.93,15.38-8.73s-2.12-13.05-8.73-15.38c-6.49-2.28-12.91-4.76-19.25-7.43l2.99,1.26c-25.98-11.02-50.5-25.34-72.86-42.56l2.53,1.95c-5.99-4.63-11.82-9.46-17.48-14.48.65,5.05,1.3,10.1,1.95,15.15l.32-.42-1.95,2.53c.75-.91,1.55-1.73,2.46-2.48l-2.53,1.95c1.14-.88,2.36-1.58,3.68-2.15l-2.99,1.26c1.35-.52,2.72-.88,4.15-1.1l-3.32.45c2.37-.31,4.73-.25,7.09.05l-3.32-.45c4.23.6,8.29,1.88,12.22,3.5l-2.99-1.26c4.91,2.07,9.46,4.76,14.06,7.42,5.85,3.39,11.7,6.77,17.56,10.16,11.82,6.84,23.64,13.67,35.46,20.51,23.52,13.61,47.05,27.22,70.57,40.82s46.14,26.66,69.18,40.03c21.67,12.58,43.26,25.29,64.47,38.63,21.06,13.25,41.74,27.13,61.63,42.07,2.53,1.9,5.05,3.82,7.56,5.76l-2.53-1.95c7.72,5.97,15.3,12.11,22.73,18.43,2.57,2.19,5.36,3.66,8.84,3.66,3.07,0,6.73-1.36,8.84-3.66,4.28-4.66,5.32-13.15,0-17.68h0Z"/>
  <path class="cls-1" d="M9687.37,1873.96c12.44,11.01,24.88,22.02,37.32,33.03,2.49,2.21,5.43,3.66,8.84,3.66,3.07,0,6.73-1.36,8.84-3.66s3.81-5.51,3.66-8.84-1.18-6.65-3.66-8.84c-12.44-11.01-24.88-22.02-37.32-33.03-2.49-2.21-5.43-3.66-8.84-3.66-3.07,0-6.73,1.36-8.84,3.66s-3.81,5.51-3.66,8.84,1.18,6.65,3.66,8.84h0Z"/>
  <path class="cls-1" d="M9789.49,1918.06c-.68-.31-1.36-.62-2.04-.92-.12-.06-.27-.04-.34.09-.06.11-.03.29.09.34.68.31,1.36.62,2.04.92.12.06.27.04.34-.09.06-.11.03-.29-.09-.34h0Z"/>
  <path class="cls-1" d="M9789.32,1917.73c-1.58-.59-3.06-1.47-4.33-2.57-.24-.21-.6.14-.35.35,1.35,1.17,2.89,2.08,4.55,2.7.3.11.43-.37.13-.48h0Z"/>
  <path class="cls-1" d="M9784.64,1915.13c.43.3.86.59,1.29.89.38.26.82.5,1.14.84.14.14.25.32.26.52,0,.05,0,.28-.09.29-.04,0-.11-.1-.13-.14-.1-.15-.13-.33-.22-.48-.1-.16-.23-.28-.42-.33l-.07.49c.33-.04.61.11.75.41l.09-.34c-.25.16-.58-.07-.8-.19-.28-.14-.58-.27-.88-.36-.61-.19-1.25-.27-1.88-.24-.24.01-.35.34-.13.47.62.36,1.34.52,2.06.44.23-.03.36-.33.13-.47-.35-.2-.75-.43-.94-.8-.13-.26-.13-.66.14-.83l-.34-.09c.42.64.9,1.24,1.44,1.78l.18-.43c-.37.02-.72-.18-.88-.52-.04-.08-.04-.17-.08-.25-.04-.09-.12-.11-.19-.16-.11-.09-.13-.24-.06-.36l-.46-.19c-.25.65-.74,1.17-1.36,1.48-.25.13-.08.55.19.46.43-.15.83-.36,1.2-.62.12-.08.15-.21.09-.34-.12-.27.04-.64.32-.74.13-.05.21-.17.17-.31-.05-.2-.16-.34-.33-.46-.27-.18-.52.25-.25.43.06.04.08.09.1.16l.17-.31c-.6.22-.88.9-.62,1.48l.09-.34c-.34.24-.7.43-1.08.57l.19.46c.74-.38,1.29-1.01,1.59-1.78.1-.27-.32-.43-.46-.19-.22.37-.08.91.33,1.09l-.11-.15c.14.66.77,1.14,1.43,1.1.21,0,.33-.27.18-.43-.51-.51-.96-1.07-1.36-1.68-.07-.11-.22-.16-.34-.09-.44.27-.57.84-.41,1.31.19.56.72.9,1.21,1.19l.13-.47c-.63.07-1.25-.05-1.81-.37l-.13.47c.69-.03,1.38.07,2.03.32.54.2,1.2.77,1.79.4.12-.08.15-.22.09-.34-.21-.44-.7-.72-1.19-.66-.26.03-.36.41-.07.49.19.05.23.38.31.53.11.2.3.4.54.43.62.08.73-.75.56-1.17-.21-.52-.72-.82-1.17-1.12-.56-.39-1.13-.78-1.69-1.17-.27-.18-.52.25-.25.43h0Z"/>
  <path class="cls-1" d="M9784.33,1914.1c-2.64-2.47-6.19-2.43-9.54-2.98-3.76-.62-7.46-1.55-11.14-2.5-7.42-1.93-14.85-3.97-22.55-4.26l1.77,4.27c.21-.23.37-.45.7-.38,1.32.28,2.7-.39,3.08-1.75.34-1.24-.42-2.8-1.75-3.08-2.05-.43-4.13.07-5.56,1.66s-.45,4.18,1.77,4.27c7.09.27,13.95,2.19,20.78,3.97,3.39.89,6.79,1.75,10.24,2.38,1.81.33,3.63.55,5.45.81,1.11.16,2.39.33,3.24,1.13,2.35,2.2,5.89-1.33,3.54-3.54h0Z"/>
  <path class="cls-1" d="M9779.73,1909.76c-1.75-1.23-3.61-2.02-5.55-2.88-1.5-.67-2.61-1.79-3.82-3.03-2.76-2.82-5.71-5.55-9.21-7.43-1.19-.64-2.72-.3-3.42.9s-.3,2.78.9,3.42c3.34,1.79,6.02,4.41,8.64,7.1,1.35,1.38,2.77,2.64,4.56,3.43,1.88.83,3.66,1.59,5.39,2.81,1.1.78,2.78.2,3.42-.9.73-1.25.21-2.64-.9-3.42h0Z"/>
  <path class="cls-1" d="M9725.91,1877.81c3.92,2.36,7.73,4.92,11.33,7.75s7.18,6.26,11.15,8.9c3.68,2.45,7.52,4.5,10.82,7.48s6.18,6.4,9.04,9.79l2.43-4.18c-2.29-.76-4.42-1.86-6.38-3.27-2.08-1.49-3.82-3.4-5.74-5.07-4.21-3.65-9.19-6.51-13.83-9.58-2.45-1.63-4.88,1.9-3.03,3.93,2.91,3.18,6,6.19,9.28,8.98s6.99,5.31,10.14,8.36l3.03-3.93c-6.19-3.02-12.15-6.49-17.83-10.39-2.22-1.53-4.44,1.37-3.42,3.42,1.57,3.16,3.78,5.99,6.46,8.28l2.43-4.18c-1.9-.72-3.8-1.45-5.7-2.17-1.26-.48-2.74.53-3.08,1.75-.39,1.41.48,2.59,1.75,3.08,1.9.72,3.8,1.45,5.7,2.17,2.31.88,4.28-2.59,2.43-4.18-2.39-2.05-4.27-4.45-5.67-7.27l-3.42,3.42c5.68,3.9,11.63,7.38,17.83,10.39,2.44,1.19,5.18-1.85,3.03-3.93-3.15-3.05-6.81-5.52-10.14-8.36s-6.37-5.8-9.28-8.98l-3.03,3.93c4.64,3.08,9.67,5.91,13.8,9.68,1.98,1.81,3.9,3.68,6.12,5.22s4.68,2.68,7.23,3.53c1.04.35,2.29-.23,2.82-1.15.59-1.01.33-2.17-.39-3.03-2.91-3.45-5.84-6.91-9.21-9.94s-7.42-5.34-11.29-7.87-7.23-5.8-10.88-8.65-7.82-5.75-11.98-8.25c-2.77-1.66-5.28,2.66-2.52,4.32h0Z"/>
  <path class="cls-1" d="M8846.72,1740.24c6.62,8.99,12.29,18.64,16.93,28.79.56,1.23,2.34,1.53,3.42.9,1.26-.74,1.46-2.19.9-3.42-4.64-10.16-10.31-19.8-16.93-28.79-.8-1.09-2.17-1.63-3.42-.9-1.07.63-1.7,2.33-.9,3.42h0Z"/>
  <path class="cls-1" d="M8971.81,1660.77v-4.69c0-.64-.28-1.31-.73-1.77s-1.15-.76-1.77-.73-1.32.24-1.77.73-.73,1.09-.73,1.77v4.69c0,.64.28,1.31.73,1.77s1.15.76,1.77.73,1.32-.24,1.77-.73.73-1.09.73-1.77h0Z"/>
  <path class="cls-1" d="M8971.65,1660.53c3.22,0,3.22-5,0-5s-3.22,5,0,5h0Z"/>
  <path class="cls-1" d="M8915.19,1630.95c.83.21,1.65.45,2.45.74.2.07.4.15.6.23.1.04.2.08.3.12.25.1.2.08-.15-.07.05.1.48.21.59.26.17.08.34.16.51.24.74.36,1.47.76,2.17,1.2.36.23.72.46,1.07.7.18.12.35.25.52.37.12.09.72.55.13.09.55.43,1.04.73,1.77.73.61,0,1.35-.27,1.77-.73.82-.9,1.1-2.67,0-3.54-3.09-2.42-6.57-4.23-10.39-5.18-1.27-.32-2.77.41-3.08,1.75s.39,2.74,1.75,3.08h0Z"/>
</svg>
